<?xml version="1.0" encoding="UTF-8"?>
<svg version="1.1" xmlns="http://www.w3.org/2000/svg" width="1358" height="1364">
<path d="M0 0 C448.14 0 896.28 0 1358 0 C1358 450.12 1358 900.24 1358 1364 C909.86 1364 461.72 1364 0 1364 C0 913.88 0 463.76 0 0 Z " fill="#4EACE8" transform="translate(0,0)"/>
<path d="M0 0 C1.12049369 0.9514279 2.23971415 1.90435543 3.35839844 2.85791016 C3.98180115 3.38840973 4.60520386 3.9189093 5.24749756 4.46548462 C7.37276242 6.32639593 9.311199 8.32170287 11.25 10.375 C17.89529363 17.09994613 25.71001462 24.31381978 35.4375 25.375 C42.71732363 24.60870278 47.22966403 18.97977632 52.0625 13.9375 C61.12109266 4.48887106 61.12109266 4.48887106 67.3125 3.4375 C75.91746576 4.7501219 81.31710918 12.26267085 86.7878418 18.50463867 C90.69755749 22.91558341 92.93859297 24.72514573 98.75 25.5 C107.23812002 25.18793676 113.22100464 16.96848577 118.70019531 11.22753906 C122.54002697 7.24974938 125.75937623 4.43088919 131.25 3.375 C139.20331447 4.70055241 144.40114923 11.18902175 149.3671875 17.13671875 C152.96949104 21.24748141 156.6637298 24.77535863 162.25 25.3125 C169.67088749 24.69409271 174.15428242 19.05842473 179.0625 13.9375 C188.04496569 4.56827583 188.04496569 4.56827583 194.25 3.375 C202.9063971 4.81773285 208.69512047 12.5491429 214.19433594 18.91113281 C217.66869881 22.882199 219.9922662 24.68506136 225.1875 25.5 C234.03973389 24.33905129 239.28813161 17.77837456 244.875 11.34765625 C248.63940788 7.18881593 251.84494388 4.34027202 257.5625 3.4375 C266.04091994 4.82487781 271.27025396 12.10680637 277 18 C282.25214204 23.3974969 282.25214204 23.3974969 289.25 25.5 C297.86434886 24.35142015 303.71554897 16.46000673 309.52001953 10.49536133 C310.0561084 9.94517334 310.59219727 9.39498535 311.14453125 8.828125 C311.62253174 8.3321582 312.10053223 7.83619141 312.59301758 7.32519531 C315.78614242 4.31768505 318.37657335 3.3756167 322.75390625 3.49609375 C329.80166786 5.07724375 334.94192054 11.83668972 339.3671875 17.13671875 C342.93326018 21.20613662 346.64226681 24.66991735 352.125 25.4375 C360.52494977 24.48911857 366.11485051 17.0804 371.69995117 11.22753906 C375.5401783 7.2500013 378.7592087 4.4309214 384.25 3.375 C392.9063971 4.81773285 398.69512047 12.5491429 404.19433594 18.91113281 C407.66869881 22.882199 409.9922662 24.68506136 415.1875 25.5 C424.31390804 24.30309403 429.87317226 17.29942787 435.54296875 10.5859375 C439.13729118 6.80304171 442.27841585 4.24594059 447.5 3.5 C456.01884383 4.71697769 461.27757655 12.11433785 467 18 C472.04700555 23.24942595 472.04700555 23.24942595 478.75 25.4375 C484.35490676 24.68299332 488.5034271 21.71036903 492.1875 17.5 C492.785625 16.675 493.38375 15.85 494 15 C496.625 12.1875 496.625 12.1875 499 10 C499.66 10 500.32 10 501 10 C501 9.34 501 8.68 501 8 C504.18423259 5.35941688 506.38034102 4.08852271 510.5 3.5 C518.80569609 4.68652801 524.67247353 11.95652135 530 18 C530 18.66 530 19.32 530 20 C530.556875 20.268125 531.11375 20.53625 531.6875 20.8125 C534 22 534 22 536.3125 23.625 C539.94156194 25.48172937 541.95674173 25.61676821 546 25 C552.15937932 21.8403184 556.97235503 16.18178509 561.69995117 11.22753906 C565.5401783 7.2500013 568.7592087 4.4309214 574.25 3.375 C582.20331447 4.70055241 587.40114923 11.18902175 592.3671875 17.13671875 C596.12862559 21.42907752 599.80070309 24.81040544 605.625 25.3125 C617.82873857 25.09261282 628.86987299 12.93934786 637 5 C637.54914062 4.25105469 638.09828125 3.50210938 638.6640625 2.73046875 C639.10492187 2.15941406 639.54578125 1.58835937 640 1 C640.66 1 641.32 1 642 1 C642.11981586 52.75032925 642.23126183 104.50066889 642.29640198 156.25109863 C642.29736838 157.0168914 642.29833478 157.78268417 642.29933046 158.57168277 C642.3202803 175.2139976 642.33967164 191.8563139 642.35745731 208.4986324 C642.36618874 216.65989589 642.37526461 224.82115897 642.38452148 232.98242188 C642.3854368 233.79457023 642.38635211 234.60671858 642.38729516 235.44347749 C642.41713026 261.77259984 642.4697136 288.1016171 642.53408055 314.43067577 C642.60010006 341.4848164 642.64319608 368.53889887 642.65740493 395.59311869 C642.65942205 399.41340272 642.6617015 403.23368655 642.6641407 407.05397034 C642.66461266 407.80586481 642.66508462 408.55775929 642.66557089 409.33243845 C642.67384635 421.44108955 642.70632186 433.54956092 642.74782424 445.6581387 C642.7890219 457.82824796 642.80477922 469.99817884 642.79450964 482.16835541 C642.7896507 488.76378383 642.79702033 495.35878713 642.83443832 501.95413208 C642.8684311 507.98967803 642.87027035 514.02433947 642.84629226 520.05992562 C642.84332755 522.24580476 642.85226927 524.43173846 642.87418228 526.61750978 C642.90221714 529.58601462 642.88717913 532.55131357 642.8613348 535.51976776 C642.8797239 536.37151557 642.89811299 537.22326338 642.91705933 538.10082173 C642.79831046 544.12284567 640.88904644 547.10719692 636.73671699 551.41735008 C634.72782548 553.24802946 632.86011057 554.57666436 630.375 555.6875 C629.51519531 556.07292969 628.65539062 556.45835937 627.76953125 556.85546875 C626.85558594 557.23316406 625.94164062 557.61085938 625 558 C624.05511719 558.40863281 623.11023438 558.81726562 622.13671875 559.23828125 C613.42700874 562.81291446 604.45207579 565.14002652 595.33251953 567.39331055 C593.4394582 567.88569671 591.56088803 568.43355821 589.68798828 568.99780273 C585.98703209 570.00352398 582.40695289 570.62448267 578.609375 571.1484375 C577.91646866 571.24569626 577.22356232 571.34295502 576.50965881 571.44316101 C574.25706142 571.75844788 572.00358757 572.06687734 569.75 572.375 C566.56093323 572.81711604 563.37226084 573.262043 560.18359375 573.70703125 C559.39067429 573.81718063 558.59775482 573.92733002 557.7808075 574.04081726 C553.21287811 574.67846494 548.65323943 575.35248159 544.09765625 576.07421875 C513.02141724 580.99120868 481.74609268 583.45225801 450.3293457 584.76635742 C446.85649515 584.93122431 443.39831758 585.20629872 439.93334961 585.49121094 C432.5912666 586.06748301 425.25082276 586.32465915 417.890625 586.53515625 C416.42888791 586.57871554 414.9671519 586.62231096 413.50541687 586.66593933 C408.75380531 586.80547377 404.0019554 586.93527551 399.25 587.0625 C398.02006254 587.09560524 398.02006254 587.09560524 396.76527786 587.12937927 C338.65339202 588.68259587 280.66169121 588.31985779 222.57208252 586.13214111 C218.9152796 585.99686596 215.25824507 585.87050629 211.60107422 585.74560547 C209.2535756 585.66257971 206.90608189 585.5794152 204.55859375 585.49609375 C202.95964012 585.44329002 202.95964012 585.44329002 201.3283844 585.38941956 C196.14380979 585.19958156 191.13323127 584.79904072 186 584 C183.97704711 583.85309175 181.95191492 583.73391368 179.92578125 583.640625 C145.83738141 581.90401588 111.29851758 579.53116344 77.67675781 573.47949219 C74.85855506 572.97466273 72.03576513 572.50529619 69.2109375 572.0390625 C58.25406826 570.19079285 47.60543185 567.79195741 36.96630859 564.58496094 C35.14775014 564.04395447 33.3183285 563.53983182 31.48828125 563.0390625 C21.07220033 560.09893833 8.26281934 555.69886825 1.38049334 546.93858367 C-0.5355157 542.86007586 -0.40997082 539.34217509 -0.36914349 534.88891125 C-0.37260502 533.96466674 -0.37606655 533.04042224 -0.37963298 532.08817032 C-0.38760847 528.97408021 -0.37408607 525.86045028 -0.36076355 522.74638367 C-0.36207113 520.49817588 -0.36469668 518.24996854 -0.36853105 516.00176364 C-0.37525723 509.81054603 -0.36321397 503.61948334 -0.34819686 497.42828548 C-0.33659808 491.44158589 -0.33907656 485.45489711 -0.34124239 479.46819038 C-0.34518537 467.22036193 -0.33515504 454.97258201 -0.31719017 442.72476768 C-0.29944553 430.59604337 -0.28789363 418.46733927 -0.28463173 406.33860207 C-0.28442551 405.58477312 -0.28421929 404.83094417 -0.28400682 404.05427191 C-0.28299184 400.22603229 -0.28208768 396.39779265 -0.2812262 392.569553 C-0.27492319 365.44666415 -0.25470616 338.32380171 -0.22631836 311.20092773 C-0.19877 284.84969219 -0.17751674 258.49846386 -0.16479492 232.1472168 C-0.16440034 231.33510801 -0.16400576 230.52299923 -0.16359923 229.68628108 C-0.15964371 221.53082968 -0.15581626 213.37537822 -0.15208265 205.21992671 C-0.14447379 188.60599343 -0.13601004 171.99206064 -0.12702942 155.37812805 C-0.12661755 154.61422853 -0.12620568 153.850329 -0.12578133 153.06328101 C-0.0981744 102.04217615 -0.05057587 51.02108667 0 0 Z " fill="#FEFEFE" transform="translate(359,548)"/>
<path d="M0 0 C13.80269022 -0.80456096 24.48701582 7.51180226 34.390625 16.26171875 C44.11834999 26.22479192 49.85073856 38.96924357 49.82446289 52.96191406 C49.60008404 60.77886362 47.35505831 68.01349723 45.18212891 75.47412109 C43.68978127 80.73002032 42.3692677 86.03126429 41.015625 91.32421875 C36.57404117 108.50626275 32.04236272 125.66013967 27.078125 142.69921875 C25.33953335 148.66693737 23.73166761 154.53707829 22.91015625 160.71484375 C22.43367432 163.05067997 21.7783916 165.14339808 21.00268555 167.39331055 C19.52156992 171.79172163 18.25799127 176.21588508 17.078125 180.703125 C16.86797256 181.4922377 16.65782013 182.2813504 16.44129944 183.09437561 C15.99008781 184.78919591 15.54005013 186.48432911 15.09109497 188.17974854 C13.88350997 192.73871994 12.66642123 197.29515101 11.44921875 201.8515625 C11.19861191 202.79016113 10.94800507 203.72875977 10.68980408 204.69580078 C7.55553617 216.41438329 4.3268888 228.10691803 1.09570312 239.79907227 C-2.30451614 252.10816226 -5.62803384 264.43502303 -8.83959961 276.79492188 C-9.33034155 278.67996722 -9.82491504 280.56401761 -10.32250977 282.44726562 C-11.57206216 287.18959417 -12.77773345 291.93119675 -13.859375 296.71484375 C-17.27118988 311.4709081 -17.27118988 311.4709081 -22.65234375 315.65625 C-25.25220351 317.78906908 -27.10978763 320.29796356 -29.171875 322.94921875 C-33.62644148 328.42713158 -36.31666231 331.67752779 -43.484375 332.94921875 C-48.99838262 332.59415008 -52.08337727 329.22524904 -55.609375 325.26171875 C-57.79007737 322.52283978 -59.90924376 319.7389814 -61.93310547 316.88208008 C-65.28068812 312.2679378 -68.8500429 308.92155904 -74.484375 307.57421875 C-82.42473382 309.32109769 -88.06409236 317.80516418 -93.21484375 323.61328125 C-100.73086504 331.92627054 -100.73086504 331.92627054 -106.109375 332.88671875 C-111.55135466 332.81758289 -114.49690682 329.46859817 -118.22265625 325.83984375 C-121.02885845 322.80859423 -123.55268435 319.64854976 -126.03125 316.34765625 C-130.40943797 310.43483631 -130.40943797 310.43483631 -136.984375 307.51171875 C-145.59006224 309.29220576 -150.14894068 315.98217257 -155.38671875 322.55859375 C-162.66491403 331.41010716 -162.66491403 331.41010716 -167.67578125 332.859375 C-171.35957754 333.13198991 -173.92598799 332.11432994 -177.234375 330.57421875 C-178.67578125 329.19140625 -178.67578125 329.19140625 -179.609375 327.26171875 C-179.65323605 322.76282815 -178.61408756 318.62685342 -177.609375 314.26171875 C-177.48820313 313.15957031 -177.36703125 312.05742188 -177.2421875 310.921875 C-176.77452018 307.603078 -176.23807212 305.19700297 -174.609375 302.26171875 C-170.56388802 299.59972655 -166.25433623 298.51228523 -161.609375 297.26171875 C-159.62453769 296.62793421 -157.6516391 295.96453197 -155.67871094 295.29467773 C-153.83085382 294.66936697 -151.97418844 294.07026563 -150.1171875 293.47265625 C-146.57841708 292.29868432 -146.57841708 292.29868432 -143.11328125 290.76171875 C-139.59185473 289.25421844 -136.06962816 288.05181033 -132.421875 286.88671875 C-125.66000863 284.68344229 -119.13319289 282.09775436 -112.609375 279.26171875 C-111.76246094 278.92269531 -110.91554688 278.58367187 -110.04296875 278.234375 C-104.72616538 276.05334693 -100.29726676 273.63750227 -97.609375 268.26171875 C-97.04201608 263.61123581 -97.1495119 260.16441298 -99.296875 255.94921875 C-103.81150279 250.70248915 -108.05161997 247.63027142 -115.02197266 246.90820312 C-125.41237912 246.76685486 -134.13480729 248.58970379 -143.984375 251.76171875 C-146.06614234 252.40823334 -148.14974034 253.04852482 -150.23379517 253.68762207 C-152.08917107 254.26021229 -153.94001039 254.84744289 -155.79052734 255.43554688 C-158.609375 256.26171875 -158.609375 256.26171875 -160.609375 256.26171875 C-160.17723927 250.53592035 -158.838447 245.8733662 -156.78515625 240.52734375 C-155.11837761 235.89801835 -153.78326033 231.18550361 -152.44824219 226.45141602 C-152.05387557 225.06999588 -151.64364695 223.69300351 -151.2175293 222.32104492 C-150.57606473 220.26340226 -150.57606473 220.26340226 -150.18286133 218.1184082 C-149.3145277 214.65755323 -148.53428001 212.82061197 -145.41430664 210.93530273 C-142.45195918 209.73076174 -139.48091336 208.75629819 -136.421875 207.82421875 C-134.14644998 207.07107815 -131.8717268 206.31581428 -129.59765625 205.55859375 C-127.85476318 204.99301758 -127.85476318 204.99301758 -126.07666016 204.41601562 C-120.69469986 202.62430261 -115.40629634 200.60103427 -110.109375 198.57421875 C-104.61076751 196.4846494 -99.1175453 194.40700567 -93.5390625 192.5390625 C-92.37600586 192.14690552 -92.37600586 192.14690552 -91.18945312 191.74682617 C-89.78321747 191.27802905 -88.37331756 190.8199899 -86.95898438 190.3762207 C-81.58235811 188.58239025 -77.42549882 186.02813992 -74.265625 181.21484375 C-73.0160832 177.49596936 -72.8829024 174.11518212 -73.609375 170.26171875 C-76.11344087 165.42108305 -79.52893515 161.42090569 -84.609375 159.26171875 C-94.92547637 156.55988268 -104.66588012 158.70671854 -114.609375 161.76171875 C-116.81676491 162.42113511 -119.02505901 163.07753459 -121.234375 163.73046875 C-122.19601562 164.02373047 -123.15765625 164.31699219 -124.1484375 164.61914062 C-126.609375 165.26171875 -126.609375 165.26171875 -129.609375 165.26171875 C-127.40018463 158.25872967 -124.71256499 151.59592195 -121.734375 144.88671875 C-121.25532715 143.80600098 -120.7762793 142.7252832 -120.28271484 141.61181641 C-97.97316728 91.65767337 -67.33939169 25.53156879 -13.234375 2.88671875 C-8.77074618 1.23404606 -4.72927434 0.47434338 0 0 Z " fill="#FDFEFE" transform="translate(754.609375,223.73828125)"/>
<path d="M0 0 C9.86889645 6.03099228 13.23305087 14.44331615 16.375 25.0625 C16.75011719 24.53140625 17.12523437 24.0003125 17.51171875 23.453125 C21.12920788 18.45971431 24.323251 14.07974967 30.375 12.0625 C37.71067957 11.01240272 43.32414862 12.90919561 49.375 17.0625 C53.21469652 20.27987942 56.73334125 23.47908963 57.97265625 28.46875 C58.15536559 33.2350806 57.16495783 36.14181037 54.375 40.0625 C52.02734375 42.1328125 52.02734375 42.1328125 49.3125 44.1875 C40.56396273 51.14920074 29.80503966 60.26467281 28.375 72.0625 C29.53128906 72.00835937 30.68757813 71.95421875 31.87890625 71.8984375 C36.44847964 71.90446994 40.09866632 73.00905637 44.3125 74.6875 C45.01197754 74.96037842 45.71145508 75.23325684 46.43212891 75.5144043 C51.93017586 77.73366472 56.75116012 80.31649439 61.375 84.0625 C62.20515625 84.73152344 63.0353125 85.40054688 63.890625 86.08984375 C69.81760691 91.13842564 74.2779848 96.46282692 78.375 103.0625 C78.9834375 104.03574219 79.591875 105.00898438 80.21875 106.01171875 C83.95080515 112.18700492 86.90655762 118.29814311 89.375 125.0625 C89.74488037 126.03670898 90.11476074 127.01091797 90.49584961 128.01464844 C93.96530561 137.35640019 96.47649285 146.76279553 98.8125 156.4375 C99.20260764 158.03109113 99.59340369 159.62451388 99.98486328 161.21777344 C100.75983768 164.37398906 101.53150738 167.53098617 102.30126953 170.68847656 C103.49757151 175.5808557 104.74353491 180.46010973 105.9921875 185.33935547 C113.41252718 214.45175774 113.41252718 214.45175774 111.375 219.0625 C109.484375 221.4296875 109.484375 221.4296875 107.125 223.9375 C104.50602798 226.75154601 101.93757083 229.53968258 99.5625 232.5625 C96.23652081 236.36361907 94.57607002 236.90498262 89.5625 237.5625 C85.59688531 237.40212588 83.26808098 236.0877791 80.359375 233.3125 C77.19801093 229.72796122 74.28308262 225.94368317 71.45776367 222.08935547 C67.96303091 217.42332871 64.36957359 213.77859369 58.5 212.375 C50.75141563 214.07968856 44.67325634 222.7740359 39.5 228.4375 C38.19268868 229.86435146 36.88291471 231.28895177 35.5703125 232.7109375 C35.00328613 233.33145996 34.43625977 233.95198242 33.85205078 234.59130859 C31.05971394 237.37256839 28.47280022 237.26951534 24.640625 237.48828125 C18.16981249 236.27221476 14.52177186 231.11172406 10.875 226.125 C6.53844109 220.23252874 2.49663514 214.88297491 -4.80078125 212.7421875 C-7.15540138 211.93920884 -8.31442522 211.51012894 -9.74365234 209.45019531 C-10.59378523 207.38432567 -11.22692622 205.3431863 -11.8125 203.1875 C-12.2924936 201.6400726 -12.77428195 200.09320084 -13.2578125 198.546875 C-13.60054199 197.4012207 -13.60054199 197.4012207 -13.95019531 196.23242188 C-14.88102507 193.23921822 -16.02246628 190.34646619 -17.1875 187.4375 C-24.10252265 169.64966038 -28.80602379 153.077224 -28.97509766 133.9284668 C-28.99159278 132.56826592 -29.0187981 131.20814941 -29.05712891 129.84838867 C-29.46686753 115.14946089 -25.29481057 101.48671816 -15.2421875 90.4453125 C-13.07773359 88.26728835 -10.88454064 86.14127739 -8.625 84.0625 C-9.2961473 81.07738617 -9.2961473 81.07738617 -11.13208008 79.97143555 C-16.42144912 77.36814148 -21.5271677 75.93788534 -27.3125 74.875 C-28.18592041 74.70411865 -29.05934082 74.5332373 -29.95922852 74.35717773 C-35.02197924 73.40619213 -39.91878107 72.83638571 -45.0625 72.625 C-49.18030962 72.39799255 -50.33481538 72.2673362 -53.8125 69.8125 C-57.20597496 64.66377937 -58.50801784 60.26516188 -57.625 54.0625 C-55.52599402 46.9648303 -52.5586518 41.84570812 -47.1875 36.75 C-41.7306206 34.16516239 -36.55398516 34.1908023 -30.625 35.0625 C-27.60433184 36.36350313 -25.13171943 37.94201226 -22.625 40.0625 C-22.9859375 39.29808594 -23.346875 38.53367187 -23.71875 37.74609375 C-27.61205195 28.75905507 -30.26470457 19.03589278 -26.6328125 9.44140625 C-20.65548395 -0.67550077 -10.95443754 -2.83304419 0 0 Z " fill="#FDFEFE" transform="translate(431.625,318.9375)"/>
<path d="M0 0 C17.68283237 -0.91462926 34.60289561 2.46786808 48.375 14.375 C56.45689438 22.09366317 62.02456956 29.68500685 63 41 C63.37511719 40.41992188 63.75023437 39.83984375 64.13671875 39.2421875 C74.13418724 23.98156809 74.13418724 23.98156809 81 21 C85.60723984 20.54085926 88.97219297 21.3520347 92.875 23.8125 C97.93314162 29.0194105 97.93314162 29.0194105 98.1875 32.75 C98.125625 33.4925 98.06375 34.235 98 35 C96.9275 35.309375 95.855 35.61875 94.75 35.9375 C81.6408628 40.94913475 71.50757796 52.39676678 65.7734375 64.99609375 C63.59002854 70.65310787 61.7827698 75.88496993 62 82 C62.52207031 81.48050781 63.04414062 80.96101563 63.58203125 80.42578125 C74.21131468 70.35495405 84.3856991 67.81971506 98.625 67.75 C100.16994141 67.7190625 100.16994141 67.7190625 101.74609375 67.6875 C111.32607147 67.63929885 120.30499939 68.91558091 128 75 C128.969375 75.639375 129.93875 76.27875 130.9375 76.9375 C139.3809666 84.2922038 142.79105297 96.21170407 143.81396484 106.96582031 C144.72277333 121.78822429 145.03456824 137.28811451 143 152 C139.31562152 152.669887 138.00275486 152.0018733 134.875 149.875 C130.71408265 146.08738158 127.39862931 141.55183895 124.08349609 137.02685547 C120.5873805 132.36153874 116.99514288 128.71622982 111.125 127.3125 C103.41183235 129.00939688 98.04532889 137.02998897 93.04296875 142.6953125 C85.1187306 151.63470162 85.1187306 151.63470162 79.375 152.625 C74.35123976 152.47778358 71.71259458 149.80211419 68.23046875 146.421875 C65.25610075 143.19226351 62.53705899 139.80289373 59.8359375 136.34375 C55.28670673 130.20334362 55.28670673 130.20334362 48.4375 127.375 C44.52867245 128.08569592 42.89163847 129.35621626 40 132 C39.34 132 38.68 132 38 132 C37.73574219 132.58499268 37.47148438 133.16998535 37.19921875 133.77270508 C35.95437727 136.08473456 34.60444395 137.72457719 32.8125 139.63671875 C32.19632813 140.29607422 31.58015625 140.95542969 30.9453125 141.63476562 C30.30335938 142.31216797 29.66140625 142.98957031 29 143.6875 C28.35804688 144.37650391 27.71609375 145.06550781 27.0546875 145.77539062 C21.38271176 151.80928114 21.38271176 151.80928114 16.375 152.5 C11.66535761 152.40665574 9.37615891 150.45479448 6.0703125 147.265625 C2.93960347 143.83956606 0.06665463 140.21855669 -2.84375 136.60546875 C-7.4289121 130.69531849 -7.4289121 130.69531849 -13.96484375 127.65625 C-19.72194015 127.92145214 -23.22953874 130.90340179 -27 135 C-29.32120476 137.78137343 -31.59132431 140.59860417 -33.8515625 143.4296875 C-36.36606738 146.4379497 -38.80579142 148.74068173 -42 151 C-42.66 151 -43.32 151 -44 151 C-44.23061425 139.815209 -43.94884361 129.05478269 -42 118 C-41.86577637 117.22366211 -41.73155273 116.44732422 -41.59326172 115.64746094 C-37.97505155 95.14026308 -33.24807215 76.83892216 -17.22265625 62.3984375 C-11.27419327 58.65581931 -5.45460017 57.46566282 1.5 57.5625 C2.66414429 57.57385986 2.66414429 57.57385986 3.85180664 57.58544922 C19.78809104 58.02924858 33.25248927 63.38782505 45.22265625 73.97265625 C47.17713965 76.202056 48.06487939 78.20432853 49 81 C49.66 81 50.32 81 51 81 C51.04898438 80.35933594 51.09796875 79.71867187 51.1484375 79.05859375 C51.6040145 73.78803915 52.3597379 69.03013712 54 64 C52.83210937 63.88914062 51.66421875 63.77828125 50.4609375 63.6640625 C34.14124871 61.60345947 20.93391953 51.55830607 11 39 C7.28007527 33.3945171 4.92822691 28.48369347 4.82421875 21.69921875 C4.78844727 20.48008789 4.78844727 20.48008789 4.75195312 19.23632812 C4.70928703 17.54907817 4.67787299 15.86150283 4.65820312 14.17382812 C4.4598493 8.32930968 3.28243972 4.85486593 0 0 Z " fill="#FDFEFE" transform="translate(822,404)"/>
</svg>
