<?xml version="1.0" encoding="UTF-8"?>
<svg version="1.1" xmlns="http://www.w3.org/2000/svg" width="1172" height="1162">
<path d="M0 0 C386.76 0 773.52 0 1172 0 C1172 383.46 1172 766.92 1172 1162 C785.24 1162 398.48 1162 0 1162 C0 778.54 0 395.08 0 0 Z " fill="#FEFEFE" transform="translate(0,0)"/>
<path d="M0 0 C1.11838273 0.9552828 2.23629272 1.91111906 3.35400391 2.8671875 C4.28788437 3.66552002 4.28788437 3.66552002 5.2406311 4.47998047 C7.32355026 6.27953359 9.34888277 8.13690369 11.375 10 C18.21018 16.0886757 26.16825669 22.79009455 35.83203125 22.5 C43.12384398 20.81828463 48.98413626 13.19685621 53.95703125 8.015625 C57.39448142 4.62418277 59.0113772 3.09415455 63.9375 2.625 C70.38645921 2.89967789 73.70472287 6.509483 78 11 C79.51437955 12.56875583 81.03575803 14.13077291 82.5625 15.6875 C83.30628906 16.45449219 84.05007813 17.22148437 84.81640625 18.01171875 C88.68276536 21.53224968 91.67653039 22.44634133 96.9765625 22.328125 C100.2543495 21.79659197 102.4172993 19.99572326 105 18 C105.7425 17.67 106.485 17.34 107.25 17 C109.52054527 15.70254556 109.93307297 14.34723946 111 12 C112.5 10.25 112.5 10.25 114 9 C114.66 9 115.32 9 116 9 C116 8.34 116 7.68 116 7 C119.92428562 3.57882792 123.31522932 2.04962487 128.578125 2.296875 C133.81139845 3.81621245 137.32264852 8.17302232 141 12 C142.64353287 13.66893524 144.28925081 15.33572245 145.9375 17 C146.64777344 17.7425 147.35804688 18.485 148.08984375 19.25 C151.18958544 22.08984515 154.62377311 22.53651874 158.765625 22.4609375 C166.42244478 20.88138377 172.66539766 12.49602433 177.8359375 7.13671875 C181.4945445 3.52433963 183.76158156 2.76686165 188.8671875 2.63671875 C195.00064073 3.68142782 198.96107524 8.78710176 203.0625 13.0625 C204.2776862 14.32890585 205.49759047 15.59080498 206.72265625 16.84765625 C207.25640869 17.40461182 207.79016113 17.96156738 208.34008789 18.53540039 C211.9389525 21.71080689 215.0298465 22.24829276 219.8046875 22.4609375 C225.78199332 21.20591599 230.01261062 16.19641593 234.0625 11.9375 C242.2219878 3.36011269 242.2219878 3.36011269 248.375 2.5625 C255.69023005 3.44537259 260.07916704 7.677538 264.625 13.0625 C268.89669199 18.07258446 272.15509371 21.6838993 278.9375 22.4375 C285.65103648 22.15987255 289.55208746 17.55135236 294 13 C305.74148992 2.21445439 305.74148992 2.21445439 312.47265625 2.3671875 C317.80287636 3.70180212 321.30459628 8.15423557 325 12 C326.64353287 13.66893524 328.28925081 15.33572245 329.9375 17 C330.64777344 17.7425 331.35804688 18.485 332.08984375 19.25 C335.23464976 22.13113107 338.64255522 22.47847339 342.83203125 22.39453125 C350.12014788 21.06822534 355.8350027 13.31594466 360.703125 8.26953125 C365.93333333 3.1015873 365.93333333 3.1015873 370.9375 2.625 C377.38645921 2.89967789 380.70472287 6.509483 385 11 C386.51437955 12.56875583 388.03575803 14.13077291 389.5625 15.6875 C390.67818359 16.83798828 390.67818359 16.83798828 391.81640625 18.01171875 C395.69731903 21.54550158 398.54506338 22.22670323 403.8046875 22.4609375 C409.78199332 21.20591599 414.01261062 16.19641593 418.0625 11.9375 C426.2219878 3.36011269 426.2219878 3.36011269 432.375 2.5625 C441.01334391 3.60505875 445.08575167 8.98772644 450.47265625 15.34375 C453.5648339 18.59364305 456.68746772 21.42186693 461.125 22.53125 C461.74375 22.5209375 462.3625 22.510625 463 22.5 C463.61875 22.5103125 464.2375 22.520625 464.875 22.53125 C470.57181861 21.10704535 474.57453889 16.60594208 478.5 12.5 C488.05397596 2.50676078 488.05397596 2.50676078 494.25 2.1875 C500.77173746 2.43068343 504.74996401 7.55817538 509 12 C509.88558594 12.82564453 509.88558594 12.82564453 510.7890625 13.66796875 C512 15 512 15 512 17 C512.556875 17.268125 513.11375 17.53625 513.6875 17.8125 C516 19 516 19 518.25 20.625 C521.9573943 22.47869715 525.00664613 22.98031792 529 22 C535.52696259 18.32416547 540.68285823 12.47792631 545.8359375 7.13671875 C549.4945445 3.52433963 551.76158156 2.76686165 556.8671875 2.63671875 C563.00064073 3.68142782 566.96107524 8.78710176 571.0625 13.0625 C572.2776862 14.32890585 573.49759047 15.59080498 574.72265625 16.84765625 C575.25640869 17.40461182 575.79016113 17.96156738 576.34008789 18.53540039 C580.18753592 21.9301409 583.66385147 22.45093911 588.64453125 22.3046875 C599.78725512 20.86334013 609.15259588 9.99531108 616.96875 2.78515625 C619 1 619 1 621 0 C621.08557491 48.44178299 621.16518018 96.88357138 621.2117157 145.32540894 C621.21240598 146.042137 621.21309627 146.75886507 621.21380747 147.49731217 C621.22877132 163.07300171 621.24262233 178.64869206 621.25532665 194.2243836 C621.26156344 201.86247987 621.26804619 209.50057592 621.2746582 217.13867188 C621.2756389 218.27880744 621.2756389 218.27880744 621.2766394 219.44197605 C621.29795367 244.08748901 621.33551582 268.73294474 621.3814861 293.37842301 C621.42863306 318.70067324 621.45942349 344.02289178 621.46957495 369.34518516 C621.47101577 372.92015521 621.47264395 376.49512515 621.47438622 380.07009506 C621.47472333 380.77371412 621.47506045 381.47733318 621.47540778 382.20227402 C621.48132093 393.53766053 621.50452344 404.87294917 621.53416017 416.20829574 C621.563573 427.59869549 621.57444045 438.98896859 621.56750689 450.37941547 C621.56429483 456.55328396 621.56932245 462.72686472 621.59602737 468.90068245 C621.62028009 474.54864066 621.62163929 480.19611643 621.60449447 485.84409641 C621.60237413 487.89130562 621.60878393 489.93854439 621.62441591 491.98569502 C621.64438846 494.76188253 621.63372717 497.53631268 621.61523914 500.31247139 C621.62837421 501.11332114 621.64150928 501.91417089 621.65504238 502.73928881 C621.56812017 508.48765229 620.09084838 510.95912586 616 515 C614.23339844 516.33618164 614.23339844 516.33618164 612.609375 517.16015625 C611.99223633 517.4761377 611.37509766 517.79211914 610.73925781 518.11767578 C610.08280273 518.42946777 609.42634766 518.74125977 608.75 519.0625 C608.04456055 519.40265137 607.33912109 519.74280273 606.61230469 520.09326172 C598.95892246 523.65908058 591.18710382 526.00548383 583 528 C582.08460449 528.22896973 581.16920898 528.45793945 580.22607422 528.69384766 C564.43774876 532.57172736 548.52902584 535.09546645 532.4375 537.3125 C531.05272964 537.50608597 531.05272964 537.50608597 529.63998413 537.70358276 C519.23423447 539.14483098 508.9291992 540.21157767 498.43153381 540.64204407 C494.42330361 540.82049186 490.61667243 541.13684966 486.6796875 541.96875 C478.61426036 543.63809866 470.33775472 543.84081777 462.13427734 544.32275391 C459.24914329 544.49268797 456.36483604 544.67304039 453.48046875 544.85546875 C447.98175105 545.19670414 442.48119074 545.49367367 436.97952271 545.78305054 C434.24361513 545.93220251 431.50929253 546.0890277 428.77462769 546.25772095 C390.42163466 548.6057292 352.024186 548.27341003 313.61767459 548.20059645 C306.16592032 548.18714532 298.71419526 548.18489996 291.26243049 548.1855461 C282.24006544 548.18622224 273.2177178 548.1793032 264.19535804 548.1700995 C261.62970713 548.1679823 259.06405907 548.16726041 256.49840736 548.16686058 C252.47842361 548.16585195 248.45847815 548.15971325 244.43850708 548.14969444 C242.97363202 548.14679438 241.50875256 548.14553896 240.04387474 548.14612198 C232.2864899 548.14804051 224.70357967 547.89896609 217 547 C215.30745046 546.89070463 213.61363422 546.7968397 211.91870117 546.73461914 C210.6173246 546.68423996 210.6173246 546.68423996 209.28965759 546.63284302 C208.38325027 546.60060638 207.47684296 546.56836975 206.54296875 546.53515625 C204.53547596 546.45775138 202.5279892 546.38019018 200.52050781 546.30249023 C198.96716736 546.24386307 198.96716736 546.24386307 197.38244629 546.18405151 C182.16119672 545.60496011 166.94676397 544.98971408 151.75 543.9375 C150.58750732 543.85830322 149.42501465 543.77910645 148.22729492 543.69750977 C140.53384875 543.13468991 140.53384875 543.13468991 138.00952148 542.49780273 C135.5945578 541.89956304 133.2835849 541.73267928 130.80078125 541.5703125 C129.2537854 541.46323975 129.2537854 541.46323975 127.67553711 541.35400391 C126.01083374 541.24064697 126.01083374 541.24064697 124.3125 541.125 C96.66127149 539.10300753 68.95380835 535.62263749 42 529 C41.00734131 528.76047607 41.00734131 528.76047607 39.99462891 528.51611328 C8.96879797 520.96099747 8.96879797 520.96099747 1 511 C-0.26575868 507.20272396 -0.1359226 503.65289032 -0.12304783 499.69723225 C-0.12420167 498.83607688 -0.12535552 497.97492152 -0.12654433 497.08767053 C-0.12920997 494.17629197 -0.12468923 491.26496772 -0.12025452 488.35359192 C-0.12069023 486.25560404 -0.12156514 484.1576162 -0.12284368 482.05962867 C-0.12508864 476.27440032 -0.12106733 470.48919035 -0.11606562 464.70396435 C-0.11176133 458.47287503 -0.11320753 452.2417868 -0.1139679 446.01069641 C-0.11449314 435.20822152 -0.11138103 424.40575406 -0.10573006 413.60328102 C-0.09981718 402.27115666 -0.09596495 390.93903469 -0.09487724 379.6069088 C-0.0948085 378.90285085 -0.09473976 378.19879291 -0.09466894 377.47339987 C-0.09433062 373.89798394 -0.09402923 370.322568 -0.09374207 366.74715205 C-0.09164051 341.4089884 -0.08489996 316.0708279 -0.07543945 290.73266602 C-0.06625813 266.11385108 -0.05917299 241.49503701 -0.05493164 216.8762207 C-0.05480011 216.11763488 -0.05466859 215.35904905 -0.05453308 214.57747578 C-0.05321458 206.95958748 -0.05193876 199.34169918 -0.05069422 191.72381087 C-0.04815786 176.20468307 -0.04533661 160.68555533 -0.04234314 145.16642761 C-0.04220585 144.45285111 -0.04206856 143.73927461 -0.04192711 143.00407457 C-0.03272326 95.33604838 -0.01685692 47.66802404 0 0 Z " fill="#4EACE0" transform="translate(262,464)"/>
<path d="M0 0 C1.74156066 1.31710349 3.47119237 2.65015436 5.1875 4 C6.44240234 4.91845703 6.44240234 4.91845703 7.72265625 5.85546875 C10.60629968 8.36437563 12.69324971 11.16650949 14.8125 14.3125 C15.38484375 15.12750977 15.38484375 15.12750977 15.96875 15.95898438 C23.91343066 27.56095768 24.49877773 40.03193919 22.5625 53.625 C21.1783817 60.90371999 18.98348362 67.9828624 16.90234375 75.0859375 C15.04229242 81.45249838 13.28954519 87.84621872 11.5625 94.25 C11.26255127 95.36173584 10.96260254 96.47347168 10.65356445 97.61889648 C9.0489273 103.61948275 7.5433427 109.62630395 6.1875 115.6875 C4.47135355 123.34378874 2.19753657 130.80562856 -0.17578125 138.28198242 C-2.09812248 144.39847283 -3.73976549 150.55841263 -5.26872253 156.78274536 C-6.91498427 163.47267975 -8.71418409 170.11873815 -10.53115845 176.76400757 C-16.00924882 196.81411674 -21.28211975 216.91796743 -26.54614258 237.02514648 C-29.37064466 247.8020598 -32.2140712 258.56925056 -35.2331543 269.29347229 C-36.26866308 272.98535422 -37.24416033 276.6795298 -38.11328125 280.4140625 C-39.93695018 288.1572244 -41.38143915 294.02537859 -47.765625 299.26953125 C-50.07078453 301.21835886 -51.66374636 303.31305086 -53.4375 305.75 C-57.04098005 310.47039581 -60.17353623 313.34025906 -66.0625 314.8125 C-74.83964669 312.91078488 -80.80049822 304.16584187 -85.92578125 297.26171875 C-88.04204007 294.72483706 -90.05524513 292.82694445 -92.8125 291 C-95.15950104 290.69196931 -95.15950104 290.69196931 -97.4375 291.1875 C-98.19289063 291.30480469 -98.94828125 291.42210937 -99.7265625 291.54296875 C-101.98969442 292.00025421 -101.98969442 292.00025421 -104.8125 293 C-104.8125 293.66 -104.8125 294.32 -104.8125 295 C-105.89836291 296.12089074 -106.99452345 297.23271407 -108.125 298.30859375 C-110.27828997 300.46686818 -112.24660623 302.76468856 -114.25 305.0625 C-121.68261097 313.31958934 -121.68261097 313.31958934 -127.6875 314.625 C-136.28428423 312.90564315 -140.94321674 305.57779972 -145.734375 298.8046875 C-149.41043217 293.8433923 -151.77285929 291.54713533 -157.9375 290.4375 C-165.69067272 291.56296056 -170.34954337 298.26841475 -174.9375 304.1875 C-179.05859705 309.48372175 -182.50237634 313.48636012 -189.4375 314.5625 C-193.61993375 313.86542771 -195.25308574 313.43921291 -197.8125 310 C-198.19865222 306.2062238 -197.47184357 302.73331023 -196.8125 299 C-196.71195312 297.13214844 -196.71195312 297.13214844 -196.609375 295.2265625 C-196.07291109 290.89158804 -195.60414588 287.44729849 -192.8125 284 C-187.114286 280.23926133 -180.25247204 278.63908489 -173.74023438 276.83105469 C-169.44710466 275.61242447 -165.26297904 274.1273296 -161.0625 272.625 C-160.27214355 272.34720703 -159.48178711 272.06941406 -158.66748047 271.78320312 C-156.04684892 270.86186713 -153.42966589 269.9311333 -150.8125 269 C-149.17619629 268.42330566 -149.17619629 268.42330566 -147.50683594 267.83496094 C-143.97488291 266.57978785 -140.45566696 265.29325665 -136.9375 264 C-135.82536133 263.60893066 -134.71322266 263.21786133 -133.56738281 262.81494141 C-127.31388996 260.47827135 -122.04298275 258.14208022 -118.8125 252 C-117.86562559 247.21101011 -118.27465412 244.05577154 -120.5 239.6875 C-124.87128468 234.60735834 -129.10237428 231.40749784 -135.87109375 230.6640625 C-144.87750735 230.55994211 -152.29363249 232.21959799 -160.8125 235 C-163.89033651 235.93550649 -166.97633588 236.84241961 -170.0625 237.75 C-170.80218018 237.97260498 -171.54186035 238.19520996 -172.30395508 238.42456055 C-177.58652903 240 -177.58652903 240 -179.8125 240 C-179.18473352 233.88433945 -177.89290232 228.43967261 -175.94750977 222.58666992 C-174.69039931 218.79097089 -173.54131108 215.01685379 -172.5703125 211.13671875 C-169.48502072 199.42484294 -169.48502072 199.42484294 -165.46484375 196 C-162.28603283 194.64084597 -159.16990867 193.83055393 -155.8125 193 C-153.40766534 192.19943357 -151.02520836 191.34631816 -148.64013672 190.48876953 C-146.04824184 189.55737635 -143.44764432 188.65505096 -140.84375 187.7578125 C-134.44949078 185.53825742 -128.12243676 183.15254722 -121.79638672 180.74707031 C-119.68269399 179.95111908 -117.56294265 179.1732269 -115.44140625 178.3984375 C-114.35811035 178.00023804 -114.35811035 178.00023804 -113.25292969 177.59399414 C-111.87869762 177.08929969 -110.50312921 176.58822247 -109.12597656 176.09155273 C-104.46571613 174.37077628 -100.26720674 172.70551825 -97 168.875 C-94.97259318 163.96654137 -94.92311351 159.17405586 -96.9375 154.25 C-100.62780851 149.82162979 -105.1103805 145.57469725 -110.9765625 144.6640625 C-123.22787345 144.46959725 -135.33721688 147.97358487 -146.8125 152 C-147.8025 152 -148.7925 152 -149.8125 152 C-137.02817113 100.86268453 -98.12686176 31.98146467 -53.0078125 2.86328125 C-34.8562931 -7.72140671 -18.41165293 -13.19337696 0 0 Z " fill="#4EACE0" transform="translate(668.8125,157)"/>
<path d="M0 0 C7.16034972 4.944051 10.00898823 11.10329016 13.625 18.8125 C14.28726262 20.14802628 14.95196145 21.48237168 15.625 22.8125 C15.9653125 22.28140625 16.305625 21.7503125 16.65625 21.203125 C20.23883423 15.98169905 23.51342498 12.73806473 29.625 10.8125 C36.18569699 9.7190505 41.20854267 12.32863464 46.625 15.8125 C54.31255472 22.29062025 54.31255472 22.29062025 54.8984375 27.01953125 C54.93195313 27.87933594 54.96546875 28.73914063 55 29.625 C55.04898438 30.47707031 55.09796875 31.32914062 55.1484375 32.20703125 C54.38984407 35.98301495 52.49616928 37.28113666 49.625 39.8125 C48.44944448 40.86598766 47.27503361 41.92075353 46.1015625 42.9765625 C45.47588379 43.53609619 44.85020508 44.09562988 44.20556641 44.67211914 C32.35304723 55.31219416 32.35304723 55.31219416 26.625 69.8125 C27.23085938 69.76609375 27.83671875 69.7196875 28.4609375 69.671875 C35.42917838 69.37170462 40.37274333 70.85144775 46.625 73.8125 C47.30304688 74.08964844 47.98109375 74.36679687 48.6796875 74.65234375 C55.03185437 77.42025582 59.73429221 81.99785298 64.625 86.8125 C65.40230469 87.57691406 66.17960937 88.34132813 66.98046875 89.12890625 C90.36223784 113.55701957 96.09702168 152.77294436 103.12280273 184.57128906 C103.6323763 186.84541902 104.16154688 189.11424816 104.6953125 191.3828125 C105.046875 192.90104167 105.3984375 194.41927083 105.75 195.9375 C105.93175781 196.69675781 106.11351562 197.45601562 106.30078125 198.23828125 C107.35051573 202.82396344 108.2502251 207.09841341 107.625 211.8125 C105.94302573 214.17492271 104.47317959 215.94624474 102.4375 217.9375 C101.95474609 218.43636719 101.47199219 218.93523437 100.97460938 219.44921875 C99.54211416 220.92209303 98.08546572 222.36742851 96.625 223.8125 C95.72136719 224.73804688 94.81773437 225.66359375 93.88671875 226.6171875 C91.2667679 229.16021406 90.18742074 229.69532901 86.625 230.4375 C81.55287811 230.35314038 78.58529602 226.80118523 75.1171875 223.46484375 C72.01522189 220.16353552 69.21091552 216.71023001 66.51171875 213.07421875 C63.92216614 209.96997245 61.51149621 207.1044968 57.37890625 206.46484375 C47.57082291 207.74111841 43.70341433 213.83495626 37.80859375 221.2109375 C34.28913262 225.40407009 30.58235674 229.31960721 25 230.25 C17.73223927 229.30788287 13.6773427 224.04099367 9.38549805 218.52978516 C8.43491747 217.27933335 7.49581382 216.02005627 6.56958008 214.75146484 C3.94184092 211.20958279 1.75333003 208.65788255 -2.375 206.8125 C-3.40238281 206.72871094 -4.42976563 206.64492188 -5.48828125 206.55859375 C-8.375 205.8125 -8.375 205.8125 -10.16796875 202.78515625 C-10.65871286 201.4913002 -11.12229508 200.18691192 -11.5625 198.875 C-11.81241699 198.19348877 -12.06233398 197.51197754 -12.31982422 196.80981445 C-13.94923544 192.29722989 -15.37385515 187.72791074 -16.671875 183.109375 C-17.39545541 180.74567899 -18.28757771 178.52620511 -19.25 176.25 C-22.23551063 168.96352387 -24.3085428 161.40016156 -26.375 153.8125 C-26.69984375 152.64460937 -27.0246875 151.47671875 -27.359375 150.2734375 C-31.94009077 131.82093151 -30.42940842 112.00215538 -21.4921875 95.125 C-18.5609322 90.53882934 -15.14206684 86.77604274 -11.31640625 82.921875 C-9.1492653 81.04503432 -9.1492653 81.04503432 -9.375 78.8125 C-20.05648772 72.83370267 -30.22811886 70.36055657 -42.41235352 70.45410156 C-48.20796247 70.3425298 -50.49034195 68.83630998 -54.375 64.8125 C-57.25701525 60.48530029 -57.078147 55.82780362 -56.375 50.8125 C-54.07206908 44.23677577 -50.6375759 38.32405924 -44.4921875 34.703125 C-38.72626845 32.27760924 -32.04294902 33.77203835 -26.375 35.8125 C-25.385 36.4725 -24.395 37.1325 -23.375 37.8125 C-23.849375 36.61625 -24.32375 35.42 -24.8125 34.1875 C-27.76399766 26.74459286 -28.10068454 18.72447724 -27.375 10.8125 C-22.17547893 -0.1642667 -11.17950336 -3.93352896 0 0 Z " fill="#4FACE0" transform="translate(332.375,241.1875)"/>
<path d="M0 0 C17.98411809 -0.63723253 34.53466884 3.44722575 48.375 15.375 C56.14465057 22.77525356 58.85445546 29.53392907 61 40 C61.38671875 39.40832031 61.7734375 38.81664062 62.171875 38.20703125 C63.76336193 35.79222559 65.37808399 33.39444956 67 31 C67.598125 30.113125 68.19625 29.22625 68.8125 28.3125 C72.03558995 24.90523348 75.70246187 21.92773211 80 20 C85.01564094 20.48514384 88.38268694 22.69716448 92.25 25.8125 C94.41046843 28.51308554 94.69080565 30.59886217 95 34 C94.45472656 34.20753906 93.90945313 34.41507812 93.34765625 34.62890625 C78.37788205 40.74476272 68.52029512 52.44145746 62 67 C60.3892771 71.63796807 59 76.06957556 59 81 C59.54398438 80.24976563 60.08796875 79.49953125 60.6484375 78.7265625 C63.13032915 75.84888747 65.34690116 74.26920487 68.625 72.375 C69.58664062 71.80523437 70.54828125 71.23546875 71.5390625 70.6484375 C79.90719505 66.66271297 87.6458771 65.4427583 96.875 65.5 C97.93203125 65.50499512 98.9890625 65.50999023 100.078125 65.51513672 C108.07953991 65.69418073 114.1261459 66.66648329 121 71 C121.75023437 71.43441406 122.50046875 71.86882812 123.2734375 72.31640625 C132.30866687 78.21113768 136.45826496 88.42483204 138.63879395 98.6595459 C139.99229366 107.42962029 139.39132695 116.53273264 139.25 125.375 C139.22989518 127.5755045 139.21165149 129.77602682 139.1953125 131.9765625 C139.15165442 137.31810337 139.08506151 142.65896626 139 148 C134.52569768 148.16974043 132.95009904 147.6415177 129.625 144.5625 C124.75123481 139.98164892 119.87644656 134.89188915 116.9453125 128.8125 C116.10163019 126.79672111 116.10163019 126.79672111 113.8125 125.75 C110.15308087 124.7741549 107.78649199 124.42239953 104 125 C98.10594038 128.66658061 93.51189582 134.5679123 88.94433594 139.73535156 C81.94618764 147.59607426 81.94618764 147.59607426 76.6875 148.6875 C68.25405584 147.11516295 63.01737774 138.89322047 57.85644531 132.5324707 C53.78308919 127.17100578 53.78308919 127.17100578 47.8515625 124.75 C37.94899393 125.86186735 34.10918619 131.98395253 28.18359375 139.3984375 C24.6542715 143.60331875 20.92218353 147.66793369 15.25 148.3125 C10.66922282 147.87204066 7.68606406 145.83628749 4.56689453 142.43920898 C3.14628239 140.67635619 1.78264781 138.88353462 0.4375 137.0625 C-4.78502425 129.31593161 -4.78502425 129.31593161 -12.17578125 124.265625 C-17.95090461 124.22339375 -20.92249925 125.78179847 -25.02734375 129.796875 C-27.87491852 132.97713672 -30.4964942 136.31338622 -33.109375 139.6875 C-35.50903027 142.62261554 -37.91921712 144.7994408 -41 147 C-41.66 147 -42.32 147 -43 147 C-43.30056748 136.17662389 -42.50495541 125.87777682 -40.875 115.1875 C-40.76429169 114.44564453 -40.65358337 113.70378906 -40.53952026 112.93945312 C-38.22943715 97.64510977 -35.26310603 82.78106159 -26 70 C-25.59007812 69.42121094 -25.18015625 68.84242188 -24.7578125 68.24609375 C-19.37588644 61.22848428 -12.6142389 57.57282452 -4 56 C10.20733226 54.46710362 26.47631789 58.17616267 37.72265625 67.1796875 C41.61832429 70.59890693 44.87895795 73.8386106 48 78 C49.32 73.05 50.64 68.1 52 63 C50.35 62.67 48.7 62.34 47 62 C31.19913877 57.94277061 18.65393315 49.75118152 9.15625 36.41015625 C7.91986149 34.30757696 6.90950379 32.260252 6 30 C5.566875 28.9275 5.13375 27.855 4.6875 26.75 C4.03736759 23.20382323 4.02013879 20.2737534 4.125 16.6875 C4.25749386 10.32779464 2.85021196 5.63680311 0 0 Z " fill="#4FADE0" transform="translate(710,323)"/>
<path d="M0 0 C0.99 0 1.98 0 3 0 C3 383.46 3 766.92 3 1162 C2.01 1162 1.02 1162 0 1162 C0 778.54 0 395.08 0 0 Z " fill="#E7E9EE" transform="translate(1169,0)"/>
<path d="M0 0 C0.66 0.33 1.32 0.66 2 1 C-1.63 4.63 -5.26 8.26 -9 12 C-9 7.8407692 -6.75316432 5.85455565 -4 3 C-1.6875 1.125 -1.6875 1.125 0 0 Z " fill="#6ABBE8" transform="translate(693,384)"/>
<path d="M0 0 C0.66 0.33 1.32 0.66 2 1 C-0.64 3.64 -3.28 6.28 -6 9 C-6.66 8.67 -7.32 8.34 -8 8 C-3.375 2.25 -3.375 2.25 0 0 Z " fill="#6DBCE8" transform="translate(357,254)"/>
</svg>
