<?xml version="1.0" encoding="UTF-8"?>
<svg version="1.1" xmlns="http://www.w3.org/2000/svg" width="973" height="141">
<path d="M0 0 C321.09 0 642.18 0 973 0 C973 46.53 973 93.06 973 141 C651.91 141 330.82 141 0 141 C0 94.47 0 47.94 0 0 Z " fill="#00A3EB" transform="translate(0,0)"/>
<path d="M0 0 C158.07 0 316.14 0 479 0 C479 46.53 479 93.06 479 141 C436.48500147 142.04085684 393.9822397 142.90669877 351.45809859 143.40007048 C346.41141511 143.45883705 341.36475855 143.5196718 336.31811523 143.58178711 C335.3136348 143.5941157 334.30915437 143.60644429 333.27423514 143.61914647 C317.11600814 143.8223723 300.96583064 144.19214704 284.8123427 144.62618142 C268.17318925 145.06945596 251.53817655 145.32751817 234.89336401 145.42215925 C225.56662364 145.48028327 216.25663 145.61820579 206.93592644 145.96931267 C143.31153734 148.29779204 143.31153734 148.29779204 120.47736675 127.42672092 C110.56141872 118.0316674 101.99607428 107.46004993 93.89206284 96.49169797 C89.93701087 91.28320555 85.56267432 86.43257082 80.93128967 81.81776428 C80.20646393 81.09300903 79.48163818 80.36825378 78.73484802 79.62153625 C77.96520218 78.85705673 77.19555634 78.09257721 76.40258789 77.30493164 C75.57251221 76.47631622 74.74243652 75.64770081 73.88720703 74.79397583 C72.09866776 73.00922025 70.30897492 71.22562007 68.51823616 69.44307137 C65.68827274 66.62592851 62.86141674 63.80568939 60.0355072 60.98448181 C54.04748264 55.0074993 48.05519507 49.03479914 42.0625 43.0625 C35.56725307 36.58929474 29.07276655 30.11533643 22.58310884 23.636527 C19.31821889 20.37743152 16.04945555 17.12225017 12.78004456 13.86769104 C11.08376694 12.17504276 9.38762778 10.48225573 7.69165039 8.78930664 C6.5159272 7.62133293 6.5159272 7.62133293 5.31645203 6.42976379 C4.61136505 5.72474731 3.90627808 5.01973083 3.17982483 4.29335022 C2.56209733 3.67784333 1.94436983 3.06233644 1.30792332 2.42817783 C0 1 0 1 0 0 Z " fill="#FBFDF9" transform="translate(494,0)"/>
<path d="M0 0 C2.97 0 5.94 0 9 0 C9.67305018 1.60149886 10.33822227 3.20631029 11 4.8125 C11.37125 5.70582031 11.7425 6.59914063 12.125 7.51953125 C13 10 13 10 13 13 C13.66 13 14.32 13 15 13 C15.12117187 12.39671875 15.24234375 11.7934375 15.3671875 11.171875 C15.53476562 10.37265625 15.70234375 9.5734375 15.875 8.75 C16.03742187 7.96109375 16.19984375 7.1721875 16.3671875 6.359375 C17 4 17 4 19 0 C21.97 0 24.94 0 28 0 C28.33 1.32 28.66 2.64 29 4 C28.01 4.33 27.02 4.66 26 5 C26.33 5.66 26.66 6.32 27 7 C27.07116382 9.37402501 27.08409085 11.75000677 27.0625 14.125 C27.05347656 15.40632813 27.04445313 16.68765625 27.03515625 18.0078125 C27.02355469 18.99523437 27.01195312 19.98265625 27 21 C27.99 21 28.98 21 30 21 C30 22.32 30 23.64 30 25 C26.37 25 22.74 25 19 25 C19 23.68 19 22.36 19 21 C19.66 21 20.32 21 21 21 C20.67 18.03 20.34 15.06 20 12 C18.68 14.97 17.36 17.94 16 21 C13.6875 21 13.6875 21 11 20 C9.58711853 17.38948072 8.864695 14.86714656 8 12 C7.67 14.97 7.34 17.94 7 21 C7.66 21 8.32 21 9 21 C9 22.32 9 23.64 9 25 C5.37 25 1.74 25 -2 25 C-2 23.68 -2 22.36 -2 21 C-1.01 21 -0.02 21 1 21 C1.33 15.72 1.66 10.44 2 5 C1.01 4.67 0.02 4.34 -1 4 C-0.67 2.68 -0.34 1.36 0 0 Z " fill="#0CA8EC" transform="translate(709,41)"/>
<path d="M0 0 C3.375 -0.125 3.375 -0.125 7 0 C7.66 0.66 8.32 1.32 9 2 C9.66 1.34 10.32 0.68 11 0 C14.2578125 -0.1953125 14.2578125 -0.1953125 18.125 -0.125 C20.04699219 -0.09792969 20.04699219 -0.09792969 22.0078125 -0.0703125 C23.48894531 -0.03550781 23.48894531 -0.03550781 25 0 C24.93489583 2.01822917 24.86979167 4.03645833 24.8046875 6.0546875 C24.81668311 8.23863645 24.81668311 8.23863645 27 10 C27.62457273 6.56484998 28 3.50935186 28 0 C30.64 0 33.28 0 36 0 C36.495 1.98 36.495 1.98 37 4 C36.34 4.33 35.68 4.66 35 5 C33.69105128 8.30977033 32.51991115 11.63716919 31.38671875 15.00976562 C29.91153069 19.1869173 28.64784023 22.23605952 25 25 C18.78571429 26.39285714 18.78571429 26.39285714 16 25 C16.33 23.68 16.66 22.36 17 21 C18.65 20.67 20.3 20.34 22 20 C21.32584613 14.7415998 19.75734451 9.97361654 18 5 C13.34533298 6.08234138 13.34533298 6.08234138 9 8 C8.10169161 11.05272465 8.10169161 11.05272465 8 14 C8.99 14 9.98 14 11 14 C11 15.32 11 16.64 11 18 C7.37 18 3.74 18 0 18 C0 16.68 0 15.36 0 14 C0.66 14 1.32 14 2 14 C1.2812193 6.95792295 1.2812193 6.95792295 0 0 Z " fill="#10A9EC" transform="translate(907,48)"/>
<path d="M0 0 C0.86625 0.020625 1.7325 0.04125 2.625 0.0625 C3.615 0.0625 4.605 0.0625 5.625 0.0625 C8.29166667 0.0625 10.95833333 0.0625 13.625 0.0625 C13.65005615 0.64217529 13.6751123 1.22185059 13.70092773 1.8190918 C13.81746234 4.46292107 13.93992682 7.10644409 14.0625 9.75 C14.10181641 10.66201172 14.14113281 11.57402344 14.18164062 12.51367188 C14.22353516 13.39990234 14.26542969 14.28613281 14.30859375 15.19921875 C14.34525146 16.01092529 14.38190918 16.82263184 14.41967773 17.65893555 C14.63537431 20.18394485 15.08399452 22.58850697 15.625 25.0625 C8.625 25.0625 1.625 25.0625 -5.375 25.0625 C-5.375 23.7425 -5.375 22.4225 -5.375 21.0625 C-4.715 21.0625 -4.055 21.0625 -3.375 21.0625 C-4.0937807 14.02042295 -4.0937807 14.02042295 -5.375 7.0625 C-4.715 6.7325 -4.055 6.4025 -3.375 6.0625 C-3.4059375 4.8559375 -3.4059375 4.8559375 -3.4375 3.625 C-3.35609865 0.28754446 -3.32668712 0.0875444 0 0 Z " fill="#E0F4F9" transform="translate(789.375,40.9375)"/>
<path d="M0 0 C15.01813947 -0.85981715 15.01813947 -0.85981715 18.9375 2.125 C21 5 21 5 21.5625 8 C20.9445923 11.29550775 19.99298985 13.31712904 18 16 C14.78548731 17.60725635 11.56387464 17.05748185 8 17 C8 18.32 8 19.64 8 21 C8.99 21 9.98 21 11 21 C11 22.32 11 23.64 11 25 C7.04 25 3.08 25 -1 25 C-1 23.68 -1 22.36 -1 21 C-0.01 21 0.98 21 2 21 C2 15.72 2 10.44 2 5 C1.01 4.67 0.02 4.34 -1 4 C-0.67 2.68 -0.34 1.36 0 0 Z " fill="#0CA8EC" transform="translate(827,41)"/>
<path d="M0 0 C2.33294775 -0.04241723 4.66702567 -0.04092937 7 0 C8 1 8 1 8.0625 4.5625 C8.041875 5.696875 8.02125 6.83125 8 8 C8.66 7.67 9.32 7.34 10 7 C13.97357645 6.47018981 15.54170381 6.68118526 18.875 9 C21.25746902 12.36348567 21.69886454 14.05035561 21.41796875 18.06640625 C20.72601984 21.26747832 19.44754681 22.87449882 17 25 C13.24134877 26.09627328 10.7010395 26.07449534 7 25 C5.35 25 3.7 25 2 25 C2 18.07 2 11.14 2 4 C1.34 4 0.68 4 0 4 C0 2.68 0 1.36 0 0 Z " fill="#0AA7EC" transform="translate(761,41)"/>
<path d="M0 0 C2.59954609 0.59661714 3.69521393 1.18284166 5.5078125 3.109375 C7.68542195 7.10165899 8.1958278 9.07529088 7.3828125 13.546875 C4.89345295 17.12532935 2.67101366 18.79018917 -1.5546875 19.609375 C-5.89812187 19.92197066 -8.31566249 18.36525001 -11.6171875 15.546875 C-13.23546667 12.31031666 -13.17910941 9.04550786 -12.6171875 5.546875 C-9.37636119 0.3615529 -5.78251789 -0.31070245 0 0 Z " fill="#0EA9EC" transform="translate(752.6171875,47.453125)"/>
<path d="M0 0 C3.33333333 0 6.66666667 0 10 0 C11.7325 -0.0928125 11.7325 -0.0928125 13.5 -0.1875 C17 0 17 0 18.70703125 1.15625 C20.51297298 3.73149017 20.29725284 5.57783627 20.1875 8.6875 C20.16042969 9.68136719 20.13335938 10.67523438 20.10546875 11.69921875 C20.07066406 12.45847656 20.03585937 13.21773437 20 14 C20.66 14 21.32 14 22 14 C22 15.32 22 16.64 22 18 C19.36 18 16.72 18 14 18 C13.67 14.04 13.34 10.08 13 6 C12.01 6 11.02 6 10 6 C9.34 8.64 8.68 11.28 8 14 C8.66 14 9.32 14 10 14 C10 15.32 10 16.64 10 18 C6.7 18 3.4 18 0 18 C0 16.68 0 15.36 0 14 C0.66 14 1.32 14 2 14 C2 10.7 2 7.4 2 4 C1.34 4 0.68 4 0 4 C0 2.68 0 1.36 0 0 Z " fill="#0BA7EC" transform="translate(869,48)"/>
<path d="M0 0 C2.5 1.375 2.5 1.375 4 4 C4.31607666 7.36094848 4.2311397 10.6356333 4 14 C4.66 14 5.32 14 6 14 C6 15.32 6 16.64 6 18 C5.41992188 17.98839844 4.83984375 17.97679688 4.2421875 17.96484375 C0.54622897 17.92215116 -2.68677559 17.92908127 -6.3125 18.75 C-9 19 -9 19 -11.4375 17.4375 C-13 15 -13 15 -12.9375 11.875 C-12 9 -12 9 -9 7 C-6.66800612 6.92094936 -4.33167378 6.91201231 -2 7 C-2.33 6.34 -2.66 5.68 -3 5 C-5.64 5 -8.28 5 -11 5 C-11 3.68 -11 2.36 -11 1 C-7.27932162 -0.24022613 -3.86573161 -0.52113485 0 0 Z " fill="#1BADED" transform="translate(861,48)"/>
<path d="M0 0 C3.30932995 0.26324216 4.15731635 0.80220984 7 2.875 C9 5.6875 9 5.6875 9 10.6875 C5.04 10.6875 1.08 10.6875 -3 10.6875 C-0.27105698 14.08672928 -0.27105698 14.08672928 3.6875 13.875 C4.780625 13.813125 5.87375 13.75125 7 13.6875 C7.33 15.0075 7.66 16.3275 8 17.6875 C3.67437961 19.9158499 0.69542622 19.8826994 -4 18.6875 C-7.24268686 16.04215019 -8.80645745 14.10681207 -9.375 9.9375 C-8.72703849 4.32183358 -5.81632916 0.38555212 0 0 Z " fill="#16ACED" transform="translate(816,47.3125)"/>
<path d="M0 0 C1.65 0 3.3 0 5 0 C5.33 1.65 5.66 3.3 6 5 C7.32 5.33 8.64 5.66 10 6 C9.67 7.32 9.34 8.64 9 10 C8.01 10 7.02 10 6 10 C6 12.64 6 15.28 6 18 C7.32 18.33 8.64 18.66 10 19 C10 20.32 10 21.64 10 23 C3.54327375 23.36547507 3.54327375 23.36547507 1.28125 21.84375 C-0.50895567 19.26760037 -0.2969848 17.4145692 -0.1875 14.3125 C-0.16042969 13.31863281 -0.13335938 12.32476562 -0.10546875 11.30078125 C-0.07066406 10.54152344 -0.03585937 9.78226563 0 9 C-0.99 9 -1.98 9 -3 9 C-2.67 7.68 -2.34 6.36 -2 5 C-1.34 5 -0.68 5 0 5 C0 3.35 0 1.7 0 0 Z " fill="#14ABED" transform="translate(895,43)"/>
<path d="M0 0 C2.64 0 5.28 0 8 0 C8.02505615 0.57967529 8.0501123 1.15935059 8.07592773 1.7565918 C8.19246234 4.40042107 8.31492682 7.04394409 8.4375 9.6875 C8.47681641 10.59951172 8.51613281 11.51152344 8.55664062 12.45117188 C8.61948242 13.78051758 8.61948242 13.78051758 8.68359375 15.13671875 C8.72025146 15.94842529 8.75690918 16.76013184 8.79467773 17.59643555 C9.01037431 20.12144485 9.45899452 22.52600697 10 25 C8.02 25 6.04 25 4 25 C1.28513066 21.02389214 1.77559247 16.86098023 1.875 12.25 C1.88402344 11.45722656 1.89304687 10.66445313 1.90234375 9.84765625 C1.92582988 7.89830719 1.96169863 5.94911425 2 4 C1.34 4 0.68 4 0 4 C0 2.68 0 1.36 0 0 Z " fill="#0DA8EC" transform="translate(795,41)"/>
<path d="M0 0 C2.64 0 5.28 0 8 0 C8 4.62 8 9.24 8 14 C8.66 14 9.32 14 10 14 C10 15.32 10 16.64 10 18 C6.7 18 3.4 18 0 18 C0 16.68 0 15.36 0 14 C0.66 14 1.32 14 2 14 C1.2812193 6.95792295 1.2812193 6.95792295 0 0 Z " fill="#0FA9EC" transform="translate(784,48)"/>
<path d="M0 0 C1.98 0 3.96 0 6 0 C6 0.66 6 1.32 6 2 C4.68 2 3.36 2 2 2 C2 2.66 2 3.32 2 4 C5.3 3.67 8.6 3.34 12 3 C12.33 4.65 12.66 6.3 13 8 C10.625 8.625 10.625 8.625 8 9 C7.34 8.34 6.68 7.68 6 7 C3.93125966 6.3574765 3.93125966 6.3574765 2 6 C2 6.99 2 7.98 2 9 C1.34 9 0.68 9 0 9 C0 6.03 0 3.06 0 0 Z " fill="#63C6F0" transform="translate(709,73)"/>
<path d="M0 0 C4.55555556 0.55555556 4.55555556 0.55555556 6 2 C6.125 4.5 6.125 4.5 6 7 C5 8 5 8 2 8.125 C-1 8 -1 8 -2 7 C-2.1875 4.5625 -2.1875 4.5625 -2 2 C-1.34 1.34 -0.68 0.68 0 0 Z " fill="#EDF8F9" transform="translate(748,53)"/>
<path d="M0 0 C4.70588235 0.70588235 4.70588235 0.70588235 6 2 C6.1875 4.4375 6.1875 4.4375 6 7 C5.34 7.66 4.68 8.32 4 9 C0.46428571 8.46428571 0.46428571 8.46428571 -1 7 C-1.125 4 -1.125 4 -1 1 C-0.67 0.67 -0.34 0.34 0 0 Z " fill="#E2F4F8" transform="translate(770,53)"/>
<path d="M0 0 C2.31 0.33 4.62 0.66 7 1 C7 3.64 7 6.28 7 9 C5 9 5 9 3.375 7.5 C2.92125 7.005 2.4675 6.51 2 6 C2 6.99 2 7.98 2 9 C1.34 9 0.68 9 0 9 C0 6.03 0 3.06 0 0 Z " fill="#49BDEF" transform="translate(740,73)"/>
<path d="M0 0 C2.375 -0.125 2.375 -0.125 5 0 C5.66 0.66 6.32 1.32 7 2 C6.625 4.125 6.625 4.125 6 6 C4.68 6 3.36 6 2 6 C2 6.99 2 7.98 2 9 C1.34 9 0.68 9 0 9 C0 6.03 0 3.06 0 0 Z " fill="#51C0EF" transform="translate(866,73)"/>
<path d="M0 0 C3.3 0.33 6.6 0.66 10 1 C10 2.98 10 4.96 10 7 C9.34 7 8.68 7 8 7 C8 5.35 8 3.7 8 2 C7.34 2 6.68 2 6 2 C6 3.65 6 5.3 6 7 C5.34 7 4.68 7 4 7 C4 5.35 4 3.7 4 2 C3.34 2 2.68 2 2 2 C2 3.65 2 5.3 2 7 C1.34 7 0.68 7 0 7 C0 4.69 0 2.38 0 0 Z " fill="#30B4ED" transform="translate(823,75)"/>
<path d="M0 0 C1.65 0 3.3 0 5 0 C5.33 1.65 5.66 3.3 6 5 C4.68 5.33 3.36 5.66 2 6 C2 6.99 2 7.98 2 9 C1.34 9 0.68 9 0 9 C0 6.03 0 3.06 0 0 Z " fill="#50BFEF" transform="translate(902,76)"/>
<path d="M0 0 C1.66611905 -0.042721 3.33382885 -0.04063832 5 0 C6 1 6 1 6.125 3.5 C6 6 6 6 5 7 C3.33382885 7.04063832 1.66611905 7.042721 0 7 C0 4.69 0 2.38 0 0 Z " fill="#E4F5F9" transform="translate(835,46)"/>
<path d="M0 0 C1.98 0 3.96 0 6 0 C6 1.65 6 3.3 6 5 C4.68 5.33 3.36 5.66 2 6 C2 6.66 2 7.32 2 8 C1.34 8 0.68 8 0 8 C0 5.36 0 2.72 0 0 Z " fill="#49BDEF" transform="translate(881,76)"/>
<path d="M0 0 C0.33 0 0.66 0 1 0 C1 2.64 1 5.28 1 8 C-0.65 8 -2.3 8 -4 8 C-4.33 6.35 -4.66 4.7 -5 3 C-3.35 2.67 -1.7 2.34 0 2 C0 1.34 0 0.68 0 0 Z " fill="#46BCEF" transform="translate(735,74)"/>
<path d="M0 0 C0.99 0.495 0.99 0.495 2 1 C1.67 1.66 1.34 2.32 1 3 C1.66 3 2.32 3 3 3 C3 2.34 3 1.68 3 1 C3.66 1 4.32 1 5 1 C5.33 3.31 5.66 5.62 6 8 C3.92446352 8.5534764 2.15634036 9 0 9 C0 6.03 0 3.06 0 0 Z " fill="#36B6EE" transform="translate(849,73)"/>
<path d="M0 0 C1.2065625 0.0309375 1.2065625 0.0309375 2.4375 0.0625 C2.4375 1.7125 2.4375 3.3625 2.4375 5.0625 C0.7875 5.3925 -0.8625 5.7225 -2.5625 6.0625 C-2.94468767 4.40635343 -3.27645102 2.73792976 -3.5625 1.0625 C-2.5625 0.0625 -2.5625 0.0625 0 0 Z " fill="#59C3F0" transform="translate(808.5625,75.9375)"/>
<path d="M0 0 C0.99 0 1.98 0 3 0 C4.0257259 4.41062136 4.03684712 6.92630576 2 11 C0.4375 9.4375 0.4375 9.4375 -1 7 C-0.6875 3.25 -0.6875 3.25 0 0 Z " fill="#C9ECF8" transform="translate(932,49)"/>
<path d="M0 0 C0.66 0 1.32 0 2 0 C2 1.65 2 3.3 2 5 C2.66 5 3.32 5 4 5 C4 3.35 4 1.7 4 0 C4.66 0 5.32 0 6 0 C6 2.31 6 4.62 6 7 C4.02 7 2.04 7 0 7 C0 4.69 0 2.38 0 0 Z " fill="#48BCEF" transform="translate(769,75)"/>
<path d="M0 0 C0.66 0 1.32 0 2 0 C2 1.65 2 3.3 2 5 C2.66 5 3.32 5 4 5 C4 3.35 4 1.7 4 0 C4.66 0 5.32 0 6 0 C6 2.31 6 4.62 6 7 C4.33388095 7.042721 2.66617115 7.04063832 1 7 C0 6 0 6 -0.0625 2.9375 C-0.041875 1.968125 -0.02125 0.99875 0 0 Z " fill="#3AB8EE" transform="translate(894,75)"/>
<path d="M0 0 C0.66 0 1.32 0 2 0 C2 1.65 2 3.3 2 5 C2.66 5 3.32 5 4 5 C4 3.35 4 1.7 4 0 C4.66 0 5.32 0 6 0 C6 2.31 6 4.62 6 7 C4.33388095 7.042721 2.66617115 7.04063832 1 7 C0 6 0 6 -0.0625 2.9375 C-0.041875 1.968125 -0.02125 0.99875 0 0 Z " fill="#3AB8EE" transform="translate(834,75)"/>
<path d="M0 0 C3.63 0 7.26 0 11 0 C10.67 0.99 10.34 1.98 10 3 C3.375 4.25 3.375 4.25 0 2 C0 1.34 0 0.68 0 0 Z " fill="#C0E8F7" transform="translate(813,58)"/>
<path d="M0 0 C0.66 0 1.32 0 2 0 C1.57742724 1.4835001 1.13643678 2.96176424 0.6875 4.4375 C0.44386719 5.26121094 0.20023438 6.08492188 -0.05078125 6.93359375 C-0.36402344 7.61550781 -0.67726563 8.29742187 -1 9 C-1.99 9.33 -2.98 9.66 -4 10 C-4 7.03 -4 4.06 -4 1 C-3.01 1.33 -2.02 1.66 -1 2 C-0.67 1.34 -0.34 0.68 0 0 Z " fill="#38B7EE" transform="translate(861,75)"/>
<path d="M0 0 C1.98 0 3.96 0 6 0 C6 0.66 6 1.32 6 2 C4.68 2 3.36 2 2 2 C2 2.66 2 3.32 2 4 C2.99 4.33 3.98 4.66 5 5 C4.01 5 3.02 5 2 5 C2 6.32 2 7.64 2 9 C1.34 9 0.68 9 0 9 C0 6.03 0 3.06 0 0 Z " fill="#28B1ED" transform="translate(709,73)"/>
<path d="M0 0 C2.97 0.495 2.97 0.495 6 1 C5.67 2.32 5.34 3.64 5 5 C3.02 5 1.04 5 -1 5 C-0.67 3.35 -0.34 1.7 0 0 Z " fill="#ECF7F8" transform="translate(799,75)"/>
<path d="M0 0 C1.2065625 0.0309375 1.2065625 0.0309375 2.4375 0.0625 C2.4375 1.7125 2.4375 3.3625 2.4375 5.0625 C0.7875 5.0625 -0.8625 5.0625 -2.5625 5.0625 C-3.125 3.125 -3.125 3.125 -3.5625 1.0625 C-2.5625 0.0625 -2.5625 0.0625 0 0 Z " fill="#23B1EF" transform="translate(789.5625,40.9375)"/>
<path d="M0 0 C2.97 0.495 2.97 0.495 6 1 C6 2.98 6 4.96 6 7 C5.67 7 5.34 7 5 7 C5 5.35 5 3.7 5 2 C4.01 2.495 4.01 2.495 3 3 C2.34786708 5.02463255 2.34786708 5.02463255 2 7 C1.34 7 0.68 7 0 7 C0 4.69 0 2.38 0 0 Z " fill="#35B6EE" transform="translate(841,75)"/>
<path d="M0 0 C2.0625 0.4375 2.0625 0.4375 4 1 C3.67 1.66 3.34 2.32 3 3 C2.34 3 1.68 3 1 3 C1.33 3.66 1.66 4.32 2 5 C2.66 5 3.32 5 4 5 C4 5.66 4 6.32 4 7 C2.35 6.67 0.7 6.34 -1 6 C-1.042721 4.33388095 -1.04063832 2.66617115 -1 1 C-0.67 0.67 -0.34 0.34 0 0 Z " fill="#33B5ED" transform="translate(763,75)"/>
<path d="M0 0 C1.32 0.33 2.64 0.66 4 1 C4 2.65 4 4.3 4 6 C3.01 6.33 2.02 6.66 1 7 C0 2.25 0 2.25 0 0 Z " fill="#D2EEF7" transform="translate(854,75)"/>
<path d="M0 0 C0.33 1.32 0.66 2.64 1 4 C-0.65 4.33 -2.3 4.66 -4 5 C-4 3.68 -4 2.36 -4 1 C-2.68 0.67 -1.36 0.34 0 0 Z " fill="#D0EDF7" transform="translate(768,76)"/>
<path d="M0 0 C0.33 0 0.66 0 1 0 C1.25 3.3125 1.25 3.3125 1 7 C-0.32 7.99 -1.64 8.98 -3 10 C-2.01 6.7 -1.02 3.4 0 0 Z " fill="#B8E6F7" transform="translate(729,51)"/>
<path d="M0 0 C0.33 0 0.66 0 1 0 C2.25 7.625 2.25 7.625 0 11 C0 10.01 0 9.02 0 8 C-0.99 8 -1.98 8 -3 8 C-2.67 6.68 -2.34 5.36 -2 4 C-2 4.99 -2 5.98 -2 7 C-1.34 7 -0.68 7 0 7 C0 4.69 0 2.38 0 0 Z " fill="#C3EAF8" transform="translate(739,54)"/>
<path d="M0 0 C0.66 0 1.32 0 2 0 C2.33 2.31 2.66 4.62 3 7 C2.01 7 1.02 7 0 7 C0 4.69 0 2.38 0 0 Z " fill="#1BADEC" transform="translate(852,74)"/>
<path d="M0 0 C0.763125 0.20625 1.52625 0.4125 2.3125 0.625 C2.3125 1.285 2.3125 1.945 2.3125 2.625 C-0.3275 2.295 -2.9675 1.965 -5.6875 1.625 C-2.6875 -0.375 -2.6875 -0.375 0 0 Z " fill="#B7E5F7" transform="translate(856.6875,52.375)"/>
</svg>
