<?xml version="1.0" encoding="UTF-8"?>
<svg version="1.1" xmlns="http://www.w3.org/2000/svg" width="4500" height="2700">
<path d="M0 0 C1.78844777 -0.00299721 3.57689489 -0.00640103 5.36534119 -0.01017761 C10.19619204 -0.0189651 15.02702514 -0.02135352 19.85788321 -0.0219934 C22.88413216 -0.02270694 25.91037668 -0.02484702 28.93662453 -0.02749062 C39.51732288 -0.03672701 50.09800869 -0.04082769 60.67871094 -0.04003906 C70.50398507 -0.03943889 80.3292042 -0.04998323 90.15446442 -0.06578273 C98.62111087 -0.0789069 107.08773945 -0.08422091 115.55439597 -0.08358365 C120.59728008 -0.08333008 125.64011525 -0.08610306 130.68298912 -0.0967617 C135.4314034 -0.10652507 140.17972279 -0.1064661 144.92814064 -0.09924507 C146.65815496 -0.09820935 148.38817546 -0.10050088 150.11817932 -0.10660553 C170.54060391 -0.17392885 190.05275957 0.89329508 206.11450195 15.14526367 C218.55714763 27.76346696 223.4431935 45.13588944 228.86450195 61.52026367 C229.60031461 63.71764882 230.3372391 65.91466193 231.07519531 68.11132812 C232.63093839 72.74537017 234.18175539 77.38101885 235.72924805 82.01782227 C239.27322079 92.62394765 242.87678681 103.20984917 246.47570801 113.79742432 C248.08520372 118.53407812 249.69187093 123.27168942 251.2986145 128.00927734 C256.21583874 142.50711976 261.14750837 157.0000166 266.08401489 171.49130249 C272.01462726 188.90185269 277.92557564 206.31903886 283.83276367 223.73754883 C288.92853622 238.76280988 294.03100017 253.78575248 299.14691162 268.8041687 C300.11264051 271.63979799 301.07778401 274.47562582 302.04272461 277.31152344 C302.69424301 279.22615953 303.34577306 281.14079165 303.99731445 283.05541992 C304.32341705 284.01372208 304.64951965 284.97202423 304.98550415 285.95936584 C306.81799316 291.34256214 308.65354005 296.72470013 310.49243164 302.10571289 C336.61539539 378.55212937 336.61539539 378.55212937 343.51708984 410.78564453 C343.88549403 413.08689831 343.88549403 413.08689831 345.11450195 414.14526367 C345.26371094 413.44071045 345.41291992 412.73615723 345.56665039 412.01025391 C352.85251652 378.12772864 363.84071372 345.45264283 375.15386963 312.7371521 C378.88452349 301.93809803 382.54638003 291.11574616 386.21194458 280.29446411 C388.24436701 274.29500222 390.27912661 268.29633311 392.3137207 262.29760742 C392.9177195 260.51657875 392.9177195 260.51657875 393.53392029 258.6995697 C397.59655871 246.7211316 401.66702071 234.74535837 405.73950195 222.77026367 C406.26071121 221.23757339 406.26071121 221.23757339 406.79244995 219.67391968 C409.58005494 211.47667461 412.36813486 203.2795911 415.15625 195.08251953 C417.60089644 187.89517882 420.04533315 180.70776682 422.48950195 173.52026367 C422.83675323 172.49913483 423.18400452 171.47800598 423.54177856 170.42593384 C428.45346567 155.9817419 433.35858507 141.53533258 438.25854492 127.0871582 C439.86185115 122.35986667 441.46639034 117.6329965 443.07202148 112.90649414 C446.56773721 102.6142307 450.05969453 92.32088192 453.51890564 82.01628113 C454.9572284 77.73397632 456.40086803 73.45347377 457.84518433 69.17318726 C458.51147549 67.19394283 459.17525881 65.21385194 459.83621216 63.2328186 C475.00978251 17.76330476 475.00978251 17.76330476 495.3215332 6.42651367 C510.19922467 -0.39849724 526.01538296 -0.00542505 542.02172852 0 C543.8004717 -0.00299798 545.57921423 -0.00640197 547.35795593 -0.01017761 C552.15775685 -0.01895645 556.95753989 -0.02135312 561.75734806 -0.0219934 C564.76467382 -0.02270734 567.77199512 -0.02484815 570.77931976 -0.02749062 C581.29518417 -0.03672357 591.81103597 -0.04082805 602.3269043 -0.04003906 C612.09028337 -0.03943872 621.85360712 -0.04998734 631.61697221 -0.06578273 C640.03268384 -0.07890702 648.44837749 -0.08422092 656.86409926 -0.08358365 C661.87566946 -0.08333012 666.88719041 -0.086101 671.89875031 -0.0967617 C676.61680933 -0.10652551 681.33477285 -0.10646581 686.05283546 -0.09924507 C687.77156274 -0.09820947 689.49029624 -0.10050019 691.20901299 -0.10660553 C710.07329548 -0.1692078 729.79918352 0.02265145 744.11450195 14.14526367 C751.55082475 22.77670977 756.17832922 33.45074689 756.27563477 44.92871094 C756.28524231 45.85059708 756.29484985 46.77248322 756.30474854 47.7223053 C756.30899841 48.70879562 756.31324829 49.69528595 756.31762695 50.71166992 C756.32332703 51.74154526 756.3290271 52.77142059 756.3348999 53.83250427 C756.34433483 56.01202371 756.35087789 58.19155731 756.35473633 60.37109375 C756.36439649 63.67172888 756.39541598 66.97172886 756.42700195 70.2722168 C756.51371875 87.27887268 755.55955257 102.23340468 743.48950195 115.45776367 C730.27509771 127.69425185 712.83642408 128.58968959 695.80200195 128.83276367 C694.17502296 128.86602693 692.54806872 128.90052447 690.92114258 128.9362793 C686.98573523 129.02013332 683.05037392 129.0874161 679.11450195 129.14526367 C679.19067686 130.05344939 679.26685177 130.96163511 679.34533501 131.89734161 C683.85933637 185.71621916 688.36901144 239.53545773 692.87306368 293.35516887 C693.413798 299.81645311 693.95456849 306.27773433 694.49536133 312.73901367 C694.60302346 314.02534553 694.71068559 315.3116774 694.82161021 316.63698901 C696.56525816 337.46880917 698.31183647 358.30038266 700.05949664 379.13186656 C701.85250883 400.50471263 703.64237446 421.87782052 705.42931557 443.25117505 C706.53217167 456.44108796 707.63748554 469.63079019 708.74593782 482.82023402 C709.50566831 491.86306284 710.26234402 500.90614403 711.01661444 509.94942991 C711.45196356 515.16793521 711.88866213 520.38631835 712.32898712 525.60440636 C712.73225156 530.38366177 713.13167024 535.16322263 713.52806115 539.9430529 C713.67196522 541.67012427 713.81726781 543.39707982 713.96412826 545.12390231 C714.67391018 553.47840924 715.29824707 561.75122088 715.11450195 570.14526367 C716.4288623 570.12955322 716.4288623 570.12955322 717.76977539 570.11352539 C721.07986176 570.07905441 724.3897522 570.05417847 727.69995117 570.03540039 C729.12153164 570.02545927 730.54309231 570.0119016 731.96459961 569.99438477 C748.50734957 569.79591846 765.49864224 571.12886166 778.11450195 583.14526367 C788.33996424 594.25259334 791.42924051 606.3113318 791.4152832 621.10229492 C791.42171089 622.63861824 791.42171089 622.63861824 791.42826843 624.20597839 C791.43398146 626.36159531 791.43453448 628.51723149 791.43017578 630.67285156 C791.42702097 633.93808545 791.45049618 637.20240739 791.47583008 640.4675293 C791.52711461 656.9670247 790.74998035 672.32425569 778.73950195 685.02026367 C767.24187844 695.493099 752.90480779 698.30106922 737.71789551 698.28570557 C736.32822437 698.29016225 736.32822437 698.29016225 734.91047907 698.29470897 C731.81636807 698.30335742 728.72229594 698.30490096 725.62817383 698.30639648 C723.4052014 698.31102747 721.18222976 698.31605251 718.95925903 698.32144165 C712.92580125 698.33454256 706.89235459 698.34100637 700.85888481 698.34545231 C697.08490221 698.34838739 693.31092261 698.35249307 689.53694153 698.35695648 C679.06937572 698.36906175 668.60181169 698.37944442 658.1342392 698.38283157 C657.46514311 698.38305114 656.79604702 698.38327071 656.1066753 698.38349693 C655.43605575 698.3837152 654.76543619 698.38393348 654.07449484 698.38415837 C652.71576023 698.38460182 651.35702562 698.38504839 649.99829102 698.38549805 C649.32432401 698.38571948 648.65035701 698.38594091 647.95596677 698.38616905 C637.05101765 698.39011165 626.14613557 698.40755101 615.24121231 698.43085757 C604.02102408 698.45464248 592.80086819 698.46677937 581.58065081 698.46819949 C575.29078329 698.46924465 569.00101037 698.47509066 562.71116638 698.4930191 C556.78825848 698.50957335 550.86551551 698.5116197 544.94259262 698.5028801 C542.77838065 698.50211359 540.61415954 698.50640095 538.44997025 698.51633835 C519.1031787 698.59990612 501.28507478 697.86522134 486.4465332 683.86791992 C477.37753221 673.27982329 474.80093691 660.73559388 474.8137207 647.18823242 C474.80729301 645.6519091 474.80729301 645.6519091 474.80073547 644.08454895 C474.79502245 641.92893204 474.79446942 639.77329586 474.79882812 637.61767578 C474.80198294 634.35244189 474.77850773 631.08811995 474.75317383 627.82299805 C474.69911317 610.18463323 476.15042044 595.81171432 488.60668945 582.28979492 C501.16038665 571.55462395 516.81443156 569.95991623 532.61450195 570.08276367 C534.27739258 570.08953125 534.27739258 570.08953125 535.97387695 570.09643555 C538.68747594 570.10813209 541.40095956 570.12452281 544.11450195 570.14526367 C543.95719355 569.57094561 543.79988514 568.99662755 543.63780981 568.40490592 C543.13426729 566.23061034 542.89245102 564.21495708 542.74157619 561.99098778 C542.68385082 561.16594321 542.62612544 560.34089864 542.56665081 559.49085271 C542.50730848 558.58954362 542.44796615 557.68823453 542.38682556 556.75961304 C542.3206343 555.79760943 542.25444304 554.83560582 542.18624598 553.84445059 C541.96471976 550.61080389 541.74846312 547.37682669 541.53222656 544.14282227 C541.37472017 541.82615319 541.21693231 539.50950324 541.05888367 537.19287109 C540.62944745 530.88083047 540.20502499 524.56846282 539.78224254 518.25597334 C539.51693194 514.29498861 539.25090824 510.33405233 538.9847126 506.37312698 C538.24486163 495.36034783 537.50678138 484.34745226 536.77394772 473.33420372 C536.58368425 470.47516179 536.39341633 467.61612015 536.203125 464.75708008 C536.15584067 464.04663035 536.10855633 463.33618062 536.05983914 462.60420211 C535.30003005 451.19288247 534.52837591 439.78239814 533.75147992 428.37223034 C532.94982767 416.5956121 532.15906488 404.8182999 531.3783589 393.04027426 C530.94149577 386.45339241 530.50007988 379.8668756 530.04707146 373.28107834 C528.38993784 349.13812425 526.79409925 325.04065715 526.80810547 300.83129883 C526.80770323 300.0064281 526.80730098 299.18155736 526.80688655 298.33169055 C526.87781801 258.01362617 526.87781801 258.01362617 531.11450195 243.14526367 C530.12450195 243.14526367 529.13450195 243.14526367 528.11450195 243.14526367 C527.94821289 244.97250977 527.94821289 244.97250977 527.77856445 246.83666992 C524.07257196 279.95171437 512.42005151 312.01258822 501.11450195 343.14526367 C500.75424927 344.13820435 500.39399658 345.13114502 500.02282715 346.1541748 C496.34990979 356.27614826 492.66942838 366.39535965 488.97973633 376.51123047 C482.89544562 393.19903814 476.88853573 409.91323809 470.92700195 426.64526367 C463.04225444 448.76808945 455.11929745 470.87620401 447.08703613 492.94595337 C445.09975997 498.4120562 443.13361834 503.88518742 441.18487549 509.36514282 C439.94272615 512.85161307 438.68900216 516.33385217 437.43304443 519.81536865 C436.85902628 521.41478564 436.28996486 523.01599298 435.72662354 524.61920166 C429.68001703 541.81274878 421.8194106 557.33823003 404.82543945 565.93041992 C396.54238341 569.64227933 388.94374483 571.29313408 379.85864258 571.30639648 C379.03998718 571.31136139 378.22133179 571.31632629 377.37786865 571.32144165 C374.67548775 571.33601681 371.97316567 571.34285971 369.27075195 571.34838867 C367.87876839 571.35262974 367.87876839 571.35262974 366.45866394 571.35695648 C361.54185706 571.3719353 356.62507939 571.3811713 351.70825195 571.38549805 C346.65943942 571.39096169 341.61089943 571.41494876 336.56217194 571.44347 C332.65506242 571.46221738 328.74801676 571.46730851 324.84086609 571.46883392 C322.98156759 571.47183686 321.12226957 571.47978435 319.26301575 571.4930191 C300.26541557 571.61852971 284.71887661 569.21191683 270.39575195 555.61401367 C258.10719667 542.31544014 253.1537982 523.00625936 247.25952148 506.30541992 C245.27970796 500.69709004 243.28734037 495.09322934 241.29447174 489.48952866 C240.83467815 488.19654567 240.37503849 486.90350794 239.91555023 485.61041641 C235.05350943 471.92920045 230.09286474 458.28455815 225.11450195 444.64526367 C217.46450507 423.67354887 209.91712436 402.66688734 202.43212891 381.63574219 C198.43331291 370.40524013 194.41298498 359.18365821 190.32543945 347.98510742 C189.74825417 346.4011467 189.74825417 346.4011467 189.15940857 344.78518677 C187.36571795 339.86341264 185.56681094 334.94370505 183.75634766 330.02807617 C177.22962594 312.20584987 171.50751986 294.17659499 167.36450195 275.64526367 C166.9487793 273.8431543 166.9487793 273.8431543 166.5246582 272.00463867 C161.11450195 248.3320301 161.11450195 248.3320301 161.11450195 243.14526367 C160.12450195 243.14526367 159.13450195 243.14526367 158.11450195 243.14526367 C158.24607445 243.73762182 158.37764694 244.32997997 158.51320648 244.94028836 C159.88102244 251.38266857 160.69677542 257.74723316 161.21801758 264.30900574 C161.30179909 265.35092392 161.3855806 266.39284211 161.47190094 267.46633357 C162.29941283 278.48724197 162.48795637 289.47732642 162.45825195 300.52539062 C162.45740097 301.60164723 162.45654999 302.67790384 162.45567322 303.78677428 C162.39872535 329.98692747 160.7107668 356.05703437 158.88363647 382.18319488 C158.46984527 388.14870753 158.07236575 394.11529432 157.67445087 400.08188156 C156.8890658 411.85091516 156.08889562 423.61888998 155.27856445 435.38623047 C154.49435824 446.77468411 153.71765325 458.16361113 152.95043945 469.55322266 C152.90264752 470.26267669 152.85485559 470.97213072 152.80561543 471.70308336 C152.56575282 475.26441834 152.32603141 478.82576282 152.08638 482.38711202 C150.11761503 511.64132666 148.12423455 540.89383484 146.11450195 570.14526367 C146.76509079 570.13904495 147.41567963 570.13282623 148.08598328 570.12641907 C151.07854816 570.101495 154.07109108 570.08621047 157.0637207 570.07104492 C158.59845032 570.05612 158.59845032 570.05612 160.16418457 570.04089355 C176.85817294 569.97759565 190.60406106 573.09599371 202.9230957 584.83666992 C214.9984886 597.55780575 215.30160402 615.06102125 215.29980469 631.63647461 C215.30198378 633.87657907 215.32017398 636.11618384 215.33911133 638.35620117 C215.40718271 655.37769204 214.01849145 672.26149264 201.4934082 684.99291992 C190.04321611 695.35261753 176.80739006 698.30093987 161.67993164 698.28570557 C160.74940066 698.28867669 159.81886969 698.29164781 158.8601408 698.29470897 C155.75221031 698.30335783 152.64431851 698.30490099 149.53637695 698.30639648 C147.30355243 698.31102744 145.0707287 698.31605247 142.83790588 698.32144165 C136.77758945 698.33454283 130.71728409 698.34100642 124.65695572 698.34545231 C120.86622215 698.34838734 117.07549158 698.35249301 113.28475952 698.35695648 C102.77087057 698.36906178 92.25698338 698.37944445 81.74308777 698.38283157 C81.07102407 698.38305114 80.39896037 698.38327071 79.70653111 698.38349693 C78.69613936 698.38382434 78.69613936 698.38382434 77.66533566 698.38415837 C76.30057208 698.38460183 74.9358085 698.38504839 73.57104492 698.38549805 C72.89408731 698.38571948 72.21712969 698.38594091 71.51965821 698.38616905 C60.56621028 698.39011169 49.61282909 698.40755115 38.6594069 698.43085757 C27.38949813 698.45464197 16.11962156 698.46677934 4.84968376 698.46819949 C-1.46812925 698.46924468 -7.7858481 698.47509136 -14.1036377 698.4930191 C-20.05281021 698.50957257 -26.00181851 698.51162007 -31.95100594 698.5028801 C-34.12489323 698.50211355 -36.29878962 698.5064015 -38.47265434 698.51633835 C-57.54596015 698.59835403 -75.40670611 697.9541299 -90.1081543 684.09448242 C-102.01812578 671.03277743 -102.5349936 653.58072885 -102.35205078 636.85351562 C-102.32292857 633.95083855 -102.33152475 631.04997986 -102.34448242 628.1472168 C-102.32585867 611.52586855 -100.79272055 595.68617393 -88.88549805 582.95776367 C-75.16212374 570.5209557 -57.81858732 569.97319659 -40.32299805 570.08276367 C-38.91870277 570.08779001 -37.51440575 570.09235091 -36.11010742 570.09643555 C-32.70185664 570.10814775 -29.29370828 570.12543419 -25.88549805 570.14526367 C-25.83004303 569.0556738 -25.774588 567.96608392 -25.71745253 566.84347618 C-25.14451858 555.89813986 -24.36058169 544.98407931 -23.4432373 534.06277466 C-23.29851121 532.31769149 -23.1540001 530.57259049 -23.00968218 528.82747352 C-22.61703044 524.08701736 -22.22133656 519.34681957 -21.82508683 514.60666299 C-21.39657764 509.47407861 -20.97093709 504.34125618 -20.54490662 499.20846558 C-19.71196861 489.1789571 -18.8763476 479.14967395 -18.03970516 469.12047388 C-17.36004437 460.97264575 -16.68129625 452.82474208 -16.00318909 444.67678452 C-15.90647566 443.5147265 -15.80976223 442.35266849 -15.71011809 441.1553966 C-15.51362922 438.79446723 -15.31714149 436.43353777 -15.12065488 434.07260822 C-13.28177957 411.97870446 -11.43974338 389.88506509 -9.59669906 367.79150878 C-7.90977454 347.56832079 -6.22664965 327.34481868 -4.54532605 307.12116434 C-2.81776327 286.34169667 -1.08776655 265.562433 0.64493036 244.78339279 C1.61725564 233.12248299 2.58862659 221.46149561 3.55747986 209.80029678 C4.38126168 199.88555786 5.20735117 189.97101455 6.03645647 180.05671932 C6.4595137 174.99712007 6.88149275 169.93743691 7.30061531 164.87751007 C7.68390825 160.25048747 8.07022974 155.6237283 8.45901734 150.99716423 C8.59946183 149.31940758 8.73877746 147.64155599 8.87687868 145.96360482 C9.06409075 143.69095991 9.2553398 141.41869026 9.44763947 139.14647102 C9.55303936 137.8818869 9.65843926 136.61730278 9.7670331 135.31439793 C10.04142204 132.81179837 10.40833404 130.55260231 11.11450195 128.14526367 C9.63409424 128.16882935 9.63409424 128.16882935 8.1237793 128.19287109 C4.39258283 128.24798524 0.66142067 128.2819035 -3.07006836 128.31005859 C-4.67201832 128.32496269 -6.27392885 128.34529314 -7.87573242 128.37158203 C-25.35599724 128.65087198 -41.58408983 126.96342333 -54.8503418 114.35229492 C-66.95851587 101.22154953 -67.53702476 83.76644647 -67.35205078 66.85351562 C-67.32292857 63.95083855 -67.33152475 61.04997986 -67.34448242 58.1472168 C-67.32613496 41.291471 -65.70883276 26.29843848 -53.76049805 13.33276367 C-38.78695305 -0.75701391 -19.2028696 -0.0064572 0 0 Z " fill="#00AEEF" transform="translate(711.885498046875,461.854736328125)"/>
<path d="M0 0 C1.41953084 -0.00302352 2.83906005 -0.00691401 4.25858641 -0.01159257 C8.14650789 -0.02185819 12.034337 -0.01969425 15.92226601 -0.01541197 C20.12183242 -0.01294164 24.32137676 -0.02196357 28.52093506 -0.02944946 C36.74959609 -0.04219722 44.9782245 -0.04398945 53.20689374 -0.0416492 C59.90933075 -0.03986329 66.61175789 -0.04162158 73.31419373 -0.04587364 C74.74744771 -0.04676643 74.74744771 -0.04676643 76.20965633 -0.04767724 C78.15129666 -0.0488891 80.09293698 -0.05010324 82.03457731 -0.05131962 C100.25099329 -0.0621988 118.46739077 -0.0600329 136.68380779 -0.05393478 C153.28067766 -0.04878475 169.87748849 -0.05996955 186.4743467 -0.07903299 C203.56054753 -0.0985058 220.64672059 -0.10664973 237.73293257 -0.10290974 C247.30692451 -0.10100943 256.88086645 -0.10336821 266.45484924 -0.11762428 C274.62093224 -0.1296612 282.78693461 -0.13080886 290.95301896 -0.11883412 C295.10483752 -0.11302566 299.25650959 -0.11161572 303.40831757 -0.12383652 C370.58109191 -0.30758296 432.44398527 12.04630489 481.66687012 60.57319641 C488.42115782 67.35502103 494.39504593 74.54268722 500.04187012 82.26069641 C500.78565918 83.25971985 501.52944824 84.25874329 502.29577637 85.28804016 C530.7097027 124.78288946 546.08294546 174.71926916 547.04187012 223.26069641 C547.06233398 224.11985657 547.08279785 224.97901672 547.10388184 225.86421204 C547.91769665 265.11564407 541.93472115 303.80415443 527.04187012 340.26069641 C526.74200195 341.00190735 526.44213379 341.74311829 526.13317871 342.50679016 C505.66705573 392.46534314 467.44898899 433.52655271 417.84069824 455.11470032 C380.28485189 470.4921552 338.42165561 472.44866266 298.38035965 472.36209035 C294.94778904 472.3557577 291.51521715 472.35524529 288.0826416 472.35406494 C281.60912736 472.35098042 275.13563038 472.34280663 268.66212368 472.33271545 C260.55433416 472.32035619 252.44654173 472.3149488 244.33874512 472.30952454 C229.90644006 472.29983892 215.47417259 472.27979799 201.04187012 472.26069641 C201.04187012 504.60069641 201.04187012 536.94069641 201.04187012 570.26069641 C213.91187012 570.26069641 226.78187012 570.26069641 240.04187012 570.26069641 C255.05453395 574.87997759 265.75783279 578.83397343 273.35437012 592.88569641 C278.87448555 605.18703582 279.52987583 617.32708785 279.4329834 630.5827179 C279.41691195 633.19140567 279.43291185 635.79853991 279.45202637 638.40718079 C279.47462048 655.3828873 277.81187381 671.64299862 265.71765137 684.70600891 C254.87386624 694.7662105 241.37373259 697.41443768 227.03747559 697.40113831 C225.53164649 697.40559499 225.53164649 697.40559499 223.99539661 697.41014171 C220.63327515 697.41880953 217.27118937 697.42033535 213.90905762 697.42182922 C211.49742049 697.42645883 209.0857841 697.43148369 206.67414856 697.43687439 C200.12212074 697.44998857 193.57010032 697.45647882 187.01806259 697.46088505 C182.92163718 697.46365258 178.82521411 697.46789093 174.72879028 697.47238922 C163.37254485 697.48458001 152.01630128 697.49487875 140.66004944 697.49826431 C139.57064836 697.49859366 139.57064836 697.49859366 138.45923918 697.49892966 C137.3673185 697.49925708 137.3673185 697.49925708 136.25333881 697.49959111 C134.77838961 697.50003457 133.30344041 697.50048113 131.82849121 697.50093079 C131.09687472 697.50115222 130.36525822 697.50137365 129.61147153 697.50160179 C117.77137266 697.50554512 105.9313355 697.52298579 94.09126043 697.54629031 C81.91624683 697.57005924 69.74126412 697.58246873 57.56622696 697.58363223 C50.73814786 697.58454604 43.91014913 697.59022353 37.08209229 697.60845184 C30.6536216 697.62555359 24.22526233 697.62706418 17.79677391 697.61831284 C15.44508646 697.61754502 13.09339067 697.62185118 10.74172401 697.63177109 C-7.93997473 697.70591507 -25.22414473 697.51846276 -39.77062988 684.13569641 C-49.78519903 673.47502603 -52.26285937 661.01383748 -52.29406738 646.90132141 C-52.30405258 645.30196747 -52.30405258 645.30196747 -52.3142395 643.67030334 C-52.32431585 641.42473563 -52.32905809 639.17913827 -52.32873535 636.93354797 C-52.33309961 633.53427189 -52.3694502 630.1363052 -52.40734863 626.73725891 C-52.49241712 610.41587578 -51.42751051 595.76579054 -39.95812988 583.04194641 C-21.98613964 565.84018432 0.94514762 570.26069641 25.04187012 570.26069641 C25.04187012 424.07069641 25.04187012 277.88069641 25.04187012 127.26069641 C12.83187012 127.26069641 0.62187012 127.26069641 -11.95812988 127.26069641 C-28.07334269 123.23189321 -37.89650179 119.17363733 -46.45031738 105.07710266 C-50.08980578 98.27899092 -52.04447701 91.02598892 -52.13513184 83.30952454 C-52.14796707 82.35082458 -52.16080231 81.39212463 -52.17402649 80.40437317 C-52.18141342 79.37727234 -52.18880035 78.35017151 -52.19641113 77.29194641 C-52.20448288 76.22005066 -52.21255463 75.14815491 -52.22087097 74.04377747 C-52.23468686 71.77430322 -52.24542015 69.50480842 -52.2532959 67.23530579 C-52.26478075 64.93315976 -52.28517654 62.63103962 -52.31481934 60.32905579 C-52.54013421 42.81743257 -52.35838982 26.79848478 -39.95812988 13.04194641 C-28.50158756 2.07639876 -15.24667467 -0.04402266 0 0 Z M201.04187012 137.26069641 C201.04187012 202.60069641 201.04187012 267.94069641 201.04187012 335.26069641 C274.80261338 340.72629799 274.80261338 340.72629799 344.04187012 314.26069641 C344.67222168 313.74249329 345.30257324 313.22429016 345.95202637 312.69038391 C356.92146634 302.74542467 363.48519422 287.81655533 367.72937012 273.94819641 C368.03342773 272.97209412 368.03342773 272.97209412 368.34362793 271.97627258 C371.85010881 259.88945054 372.42169752 247.51000993 372.35437012 235.01069641 C372.35221497 234.28736115 372.35005981 233.56402588 372.34783936 232.81877136 C372.22051923 206.13931808 366.78102482 180.4360637 348.04187012 160.26069641 C310.81771755 124.4885498 243.38052531 137.26069641 201.04187012 137.26069641 Z " fill="#00AEEF" transform="translate(676.9581298828125,1335.7393035888672)"/>
<path d="M0 0 C1.43114993 -0.00243735 2.86229814 -0.00616572 4.29344177 -0.01106262 C8.12591633 -0.02034304 11.95812973 -0.01115826 15.79058361 0.00226951 C19.83013556 0.01371976 23.86967717 0.00946637 27.90924072 0.00752258 C34.68383979 0.00664425 41.4583379 0.01762622 48.23291016 0.03613281 C56.03560609 0.05732759 63.83815476 0.06080022 71.64087367 0.05457085 C79.19180772 0.04885412 86.74269058 0.05454778 94.29361725 0.0657444 C97.48787647 0.07035641 100.68210404 0.07127917 103.87636566 0.06915855 C107.642395 0.067259 111.40827683 0.0755059 115.17427254 0.09121895 C117.19476011 0.09740347 119.21527015 0.09398088 121.23576355 0.09014893 C136.60298087 0.17864592 152.28416363 2.32757977 163.87988281 13.37231445 C173.27357104 23.57613596 177.22911275 35.15238065 177.12039185 48.89552307 C177.1221007 49.70358916 177.12380955 50.51165524 177.12557018 51.34420818 C177.12883831 54.02497539 177.11790598 56.70548671 177.10693359 59.38623047 C177.1063689 61.31856785 177.10668718 63.25090566 177.1078186 65.1832428 C177.10839084 70.4098538 177.09665735 75.63637242 177.08267069 80.86296201 C177.07014189 86.33221543 177.06899113 91.80147113 177.06661987 97.27073669 C177.06041142 107.61900297 177.04400919 117.96722683 177.02392089 128.31547445 C177.00154214 140.10021721 176.99056349 151.88496204 176.98053002 163.66972077 C176.95964241 187.90394215 176.92447877 212.13812592 176.87988281 236.37231445 C177.63034882 235.61455215 178.38081482 234.85678986 179.15402222 234.07606506 C180.15093654 233.07324945 181.14794038 232.07052282 182.14501953 231.06787109 C182.63818161 230.56943947 183.13134369 230.07100784 183.63945007 229.55747223 C187.22106951 225.96086032 190.8629584 222.73268092 195.00488281 219.80981445 C195.62758057 219.36347656 196.25027832 218.91713867 196.8918457 218.45727539 C209.08936192 209.87075647 221.96045174 202.74052515 235.87988281 197.37231445 C236.56066895 197.10966797 237.24145508 196.84702148 237.94287109 196.57641602 C291.74207211 176.30933633 354.90361857 180.65468692 407.06738281 203.62231445 C427.13055807 212.7745925 445.52074178 225.56666662 461.35400391 240.89770508 C462.41045803 241.91866235 463.47377698 242.9325459 464.54248047 243.94067383 C511.01461329 287.80554574 532.99991472 352.92625565 537.87988281 415.37231445 C538.04617188 417.29430664 538.04617188 417.29430664 538.21582031 419.25512695 C543.69608969 493.75716738 527.83853744 573.87425675 478.02661133 631.69311523 C476.65314556 633.26089057 475.26893876 634.81834117 473.87988281 636.37231445 C473.38987793 636.9240332 472.89987305 637.47575195 472.39501953 638.04418945 C462.23180511 649.43901167 451.22146574 659.37215132 438.87988281 668.37231445 C438.32768066 668.77562988 437.77547852 669.17894531 437.20654297 669.59448242 C402.885591 694.31154536 358.85019816 709.34261696 316.45410156 709.57543945 C315.59239349 709.58245377 314.73068542 709.58946808 313.84286499 709.59669495 C311.08431697 709.61407038 308.32598351 709.62054506 305.56738281 709.62231445 C304.62547089 709.6229892 303.68355896 709.62366394 302.71310425 709.62435913 C289.23679301 709.60899799 276.07627119 709.38181282 262.87988281 706.37231445 C262.08227539 706.19539063 261.28466797 706.0184668 260.46289062 705.83618164 C232.80121584 699.53310817 209.61190001 687.90554154 188.87988281 668.37231445 C188.20441406 667.76129883 187.52894531 667.1502832 186.83300781 666.52075195 C179.20126167 659.34691058 173.1305804 650.39535787 167.87988281 641.37231445 C167.73292969 643.20342773 167.73292969 643.20342773 167.58300781 645.0715332 C166.38854304 658.70787633 164.7786789 671.40503308 155.87988281 682.37231445 C155.3784375 682.99750977 154.87699219 683.62270508 154.36035156 684.2668457 C145.14698093 694.55623043 131.24532205 697.72308859 117.96841431 698.64346313 C113.88972194 698.748324 109.82252892 698.76427754 105.74316406 698.7355957 C104.24635316 698.73507481 102.74954156 698.73560134 101.25273132 698.73710632 C98.14421118 698.73701753 95.03595539 698.72677766 91.92749023 698.70849609 C87.97745701 698.68575255 84.02780623 698.68528587 80.07772541 698.69201374 C76.99674684 698.69538088 73.9158528 698.68867339 70.83489037 698.67888451 C69.37949251 698.67508385 67.92408517 698.67386249 66.46868324 698.67547035 C49.4156192 698.67862378 32.61015358 696.93121619 19.87988281 684.37231445 C10.7435654 673.76766031 7.71401113 662.00310471 7.75683498 648.29435158 C7.75568114 647.38583696 7.7545273 646.47732235 7.75333849 645.54127699 C7.75068462 642.48686041 7.7551839 639.43249618 7.7596283 636.37808228 C7.75919234 634.17026042 7.75831699 631.96243862 7.75703913 629.75461709 C7.7547989 623.6797262 7.75880905 617.60485287 7.76381719 611.52996421 C7.76768568 605.65415885 7.76685709 599.77835545 7.76613535 593.90254914 C7.7648215 581.88280083 7.76816266 569.86305802 7.77415276 557.84331131 C7.78006888 545.94149371 7.78391852 534.0396784 7.78500557 522.13785934 C7.78507431 521.3979626 7.78514305 520.65806586 7.78521387 519.895748 C7.7855522 516.13821777 7.78585359 512.38068754 7.78614075 508.62315731 C7.7882414 482.00552454 7.79497945 455.38789476 7.80444336 428.77026367 C7.81362706 402.91088883 7.82071103 377.05151481 7.82495117 351.19213867 C7.8250827 350.39510197 7.82521422 349.59806527 7.82534974 348.77687594 C7.82666825 340.77273811 7.82794407 332.76860027 7.8291886 324.76446242 C7.83172484 308.45897222 7.83454609 292.15348207 7.83753967 275.84799194 C7.83774561 274.72343093 7.83774561 274.72343093 7.8379557 273.5761515 C7.84715705 223.50820455 7.86302313 173.44025935 7.87988281 123.37231445 C6.70184082 123.39588013 6.70184082 123.39588013 5.5 123.41992188 C1.87670346 123.48300748 -1.74647692 123.52153656 -5.37011719 123.55981445 C-7.2225 123.59751953 -7.2225 123.59751953 -9.11230469 123.63598633 C-22.67584193 123.74306689 -34.0747823 120.89362271 -45.30761719 113.18481445 C-56.25730477 102.23512687 -60.23657611 89.63218174 -60.35839844 74.49731445 C-60.36647018 73.53639893 -60.37454193 72.5754834 -60.38285828 71.58544922 C-60.39666802 69.55136907 -60.40740404 67.51726606 -60.4152832 65.4831543 C-60.42675977 63.42351386 -60.44714231 61.36390214 -60.47680664 59.30444336 C-60.71708858 42.60283537 -60.01662829 27.16160103 -48.08496094 14.15356445 C-34.64997254 1.45311686 -17.74168954 -0.10446368 0 0 Z M210.87988281 348.37231445 C210.13996094 348.96657227 209.40003906 349.56083008 208.63769531 350.1730957 C186.79049664 368.42949182 176.57661469 397.98761232 173.22363281 425.52075195 C171.17060158 448.52403375 171.70514276 471.00162286 177.87988281 493.37231445 C178.05890137 494.02103516 178.23791992 494.66975586 178.42236328 495.33813477 C186.14130615 522.37164922 202.25762934 545.49016226 226.87988281 559.37231445 C247.60157233 570.62782826 273.27662012 572.53894817 295.87988281 566.37231445 C320.81515696 558.46250311 340.57299664 541.68428177 353.19238281 518.87231445 C359.89092802 504.97903551 364.52812589 490.61667621 366.87988281 475.37231445 C366.98155762 474.71593994 367.08323242 474.05956543 367.18798828 473.38330078 C368.18954456 465.81628421 368.12260275 458.17968046 368.12988281 450.55981445 C368.13088989 449.82821106 368.13189697 449.09660767 368.13293457 448.34283447 C368.1219075 436.47349023 367.44596047 424.98949845 364.87988281 413.37231445 C364.73534668 412.70683594 364.59081055 412.04135742 364.44189453 411.35571289 C359.98150664 391.5284737 352.17143587 373.83391699 338.87988281 358.37231445 C338.35136719 357.69942383 337.82285156 357.0265332 337.27832031 356.33325195 C323.40483907 339.17934164 301.41367032 329.82872731 279.87988281 327.37231445 C254.49329305 325.92221973 230.64032876 331.76362422 210.87988281 348.37231445 Z " fill="#00AEEF" transform="translate(2155.1201171875,461.627685546875)"/>
<path d="M0 0 C1.95124837 -0.00543035 3.90249264 -0.0125581 5.85372925 -0.02124023 C11.11823084 -0.03936791 16.38241644 -0.03244988 21.64692307 -0.01972389 C27.17681429 -0.00954125 32.70667988 -0.01900411 38.23657227 -0.02526855 C47.52006854 -0.03252969 56.8034372 -0.02299758 66.08691406 -0.00390625 C76.79396448 0.01785946 87.50071014 0.010807 98.20775318 -0.01121187 C107.42855072 -0.02940965 116.64925693 -0.03190283 125.87006664 -0.0214572 C131.36501747 -0.0152463 136.85982541 -0.01432012 142.35476685 -0.02760315 C147.52272818 -0.03922491 152.69029958 -0.03102106 157.85821915 -0.00802612 C159.74590536 -0.00277267 161.63362483 -0.00419456 163.52129745 -0.01307678 C179.12458108 -0.0796831 193.4496963 1.57434662 205.58984375 12.51757812 C215.35741458 22.72250287 218.67383603 35.12114417 218.70703125 48.90429688 C218.71368805 49.8831636 218.72034485 50.86203033 218.72720337 51.87055969 C218.73728367 53.93378841 218.74202183 55.99704942 218.74169922 58.06030273 C218.74605701 61.17878466 218.78238441 64.29583173 218.8203125 67.4140625 C218.91516407 83.99152985 217.04604693 97.69474914 205.52734375 110.58007812 C197.44264668 118.26716714 186.23702188 122.66098421 175.125 122.56054688 C174.23240479 122.55434326 173.33980957 122.54813965 172.42016602 122.54174805 C171.40587524 122.52978394 171.40587524 122.52978394 170.37109375 122.51757812 C170.72187988 123.53964355 171.07266602 124.56170898 171.43408203 125.61474609 C183.25950596 160.08691047 194.87208132 194.62441245 206.10528564 229.29437256 C210.21298998 241.97116174 214.40222641 254.61836497 218.64379883 267.25097656 C243.90109221 342.48857764 243.90109221 342.48857764 243.37109375 373.51757812 C244.36109375 373.51757812 245.35109375 373.51757812 246.37109375 373.51757812 C246.48195313 372.29941406 246.5928125 371.08125 246.70703125 369.82617188 C247.39728202 363.65840842 248.68994287 357.64239623 249.99609375 351.58007812 C250.21910156 350.50306641 250.44210937 349.42605469 250.671875 348.31640625 C255.14924513 327.38647761 261.33205852 306.93089727 267.98825073 286.60580444 C269.87824352 280.83353128 271.75007216 275.0553806 273.62290382 269.27752113 C274.26996339 267.28187033 274.91775982 265.28645971 275.56559753 263.2910614 C279.89249664 249.95402107 284.10493718 236.58141489 288.30859375 223.20507812 C295.52118614 200.27051015 302.86596829 177.3804686 310.27479362 154.50867844 C310.90100958 152.57526441 311.52684629 150.641728 312.15258789 148.7081604 C312.91451175 146.35453956 313.67737681 144.00122309 314.44140625 141.64828491 C316.49862975 135.29415972 318.48442947 128.92449101 320.37109375 122.51757812 C319.72696533 122.48237061 319.08283691 122.44716309 318.41918945 122.41088867 C305.42737897 121.60071203 294.1051443 116.95257074 285.26953125 107.19726562 C277.5459585 96.97585659 275.23431999 85.17866314 275.16796875 72.63867188 C275.16226868 71.79015152 275.1565686 70.94163116 275.1506958 70.06739807 C275.14127998 68.27468091 275.13472546 66.48194671 275.13085938 64.68920898 C275.12121062 61.98779839 275.09017843 59.28716811 275.05859375 56.5859375 C274.95608548 40.03247406 276.77686151 25.42214354 288.49609375 12.70507812 C301.0769886 0.88666175 315.75393923 0.21671398 332.01708984 0.24291992 C333.80350456 0.23856762 335.58991741 0.23338275 337.37632751 0.22743225 C342.20904483 0.21408669 347.04168373 0.21345863 351.87441587 0.21599555 C355.91746603 0.21706829 359.96050052 0.21217415 364.00354731 0.20739013 C373.5463222 0.19631029 383.08905773 0.19584895 392.63183594 0.2019043 C402.45720074 0.20794335 412.28242232 0.19563128 422.10776269 0.17433423 C430.56155855 0.15668782 439.01530894 0.15072166 447.46912253 0.15397197 C452.51022021 0.15578013 457.5512157 0.15319537 462.5922966 0.13925743 C467.33496812 0.12663419 472.07741721 0.12866555 476.82008553 0.14166832 C478.55381027 0.14402388 480.28755088 0.14133626 482.0212574 0.1330452 C497.66708521 0.06365722 511.68894022 2.01288646 523.62109375 13.01757812 C535.96267551 26.05773998 536.72850201 41.77700763 536.68676758 58.70263672 C536.68360901 61.37964692 536.707122 64.05554772 536.73242188 66.73242188 C536.7942058 83.33263527 534.38356029 97.94768891 522.60546875 110.47851562 C513.64537495 118.65538445 502.08929553 122.71228364 490.05859375 122.58007812 C488.98996094 122.57105469 487.92132812 122.56203125 486.8203125 122.55273438 C486.01207031 122.54113281 485.20382812 122.52953125 484.37109375 122.51757812 C484.20855103 123.52038818 484.20855103 123.52038818 484.04272461 124.54345703 C483.21864827 128.19263842 481.94997394 131.61444018 480.625 135.10351562 C480.20180733 136.23122375 480.20180733 136.23122375 479.77006531 137.38171387 C478.82854162 139.88684875 477.8811996 142.38973817 476.93359375 144.89257812 C476.25925879 146.68173506 475.58510926 148.47096189 474.91113281 150.26025391 C469.11273573 165.63349207 463.23536778 180.97661736 457.34790039 196.31591797 C451.8255835 210.70513511 446.33933697 225.10773114 440.87109375 239.51757812 C434.36322248 256.66488618 427.82370525 273.79970855 421.25634766 290.92431641 C415.43283292 306.11132924 409.64275636 321.3107883 403.87109375 336.51757812 C397.36295525 353.66478528 390.82370563 370.79970755 384.25634766 387.92431641 C378.43283268 403.11132987 372.64291691 418.31084885 366.87109375 433.51757812 C359.97536375 451.68386578 353.05415267 469.84014778 346.09228516 487.98120117 C345.3531603 489.90737789 344.61406528 491.83356605 343.875 493.75976562 C343.50894653 494.71375748 343.14289307 495.66774933 342.76574707 496.65065002 C340.41468525 502.78254894 338.07586001 508.91899217 335.74494934 515.05857849 C334.1352063 519.29778501 332.52181622 523.53559965 330.90823364 527.77334595 C330.14917232 529.76987597 329.39183253 531.76706158 328.63644409 533.76498413 C322.24981806 550.65419042 315.37352233 567.19210923 306.99609375 583.20507812 C306.44083008 584.26815186 305.88556641 585.33122559 305.31347656 586.42651367 C300.84336826 594.86156439 295.96775818 602.79154305 290.37109375 610.51757812 C289.28441406 612.04125 289.28441406 612.04125 288.17578125 613.59570312 C274.63870274 632.13034108 258.93013801 648.96169071 240.37109375 662.51757812 C239.34886719 663.27296875 238.32664062 664.02835938 237.2734375 664.80664062 C203.02932249 689.31001496 162.97320716 702.04597951 121.37109375 706.51757812 C120.05298706 706.66114746 120.05298706 706.66114746 118.70825195 706.80761719 C109.41989199 707.70330627 100.13205221 707.7609514 90.80859375 707.76757812 C89.95038025 707.76825287 89.09216675 707.76892761 88.20794678 707.7696228 C73.0850444 707.75084858 58.32901173 706.91036977 43.37109375 704.51757812 C42.35547363 704.35660645 41.33985352 704.19563477 40.29345703 704.02978516 C27.48211915 701.91185555 15.00413581 698.74354205 2.55859375 695.08007812 C1.32520264 694.72091309 0.09181152 694.36174805 -1.17895508 693.99169922 C-15.50641208 689.62621853 -30.03630267 683.38287074 -37.66796875 669.66210938 C-44.56246401 654.27561385 -41.79040818 638.56605293 -36.10083008 623.26196289 C-34.70579067 619.66626154 -33.23336914 616.10493961 -31.73022461 612.55322266 C-30.8159301 610.39145231 -29.91942606 608.22295102 -29.02539062 606.05273438 C-14.68655608 571.50758965 -14.68655608 571.50758965 0.37109375 564.51757812 C15.5400393 558.29897673 33.56312544 563.54696835 48.734375 567.04882812 C77.6633309 573.6592816 112.61838879 572.71272188 138.4453125 556.59960938 C147.94089986 549.902176 154.71324649 542.71290685 160.37109375 532.51757812 C160.96220947 531.48826172 161.5533252 530.45894531 162.16235352 529.3984375 C163.8393275 525.38636276 162.97783519 522.9257504 161.37503052 519.01156616 C160.83747635 517.80797958 160.83747635 517.80797958 160.2890625 516.58007812 C159.92908173 515.72008209 159.56910095 514.86008606 159.19821167 513.97402954 C158.00792672 511.1448782 156.78333471 508.3319634 155.55859375 505.51757812 C154.71609023 503.53087661 153.87619856 501.54306561 153.03881836 499.55419922 C151.32369285 495.48739157 149.59674619 491.42593415 147.86035156 487.36816406 C144.61904365 479.77593646 141.50149424 472.134556 138.38967896 464.48858643 C136.762195 460.49512345 135.12342944 456.50630325 133.484375 452.51757812 C133.15298019 451.71091705 132.82158539 450.90425598 132.48014832 450.07315063 C127.97901994 439.1230506 123.44783577 428.18534608 118.92263794 417.24517822 C112.27055121 401.15880292 105.67998529 385.04790885 99.11193848 368.92706299 C93.07281622 354.10671629 86.99137228 339.30458638 80.87109375 324.51757812 C74.26509791 308.55602116 67.70514676 292.5763255 61.18359375 276.58007812 C60.55301559 275.03349014 60.55301559 275.03349014 59.90969849 273.45565796 C59.06896663 271.39359363 58.22824288 269.33152599 57.38752747 267.26945496 C56.97733871 266.26336685 56.56714996 265.25727875 56.14453125 264.22070312 C55.73808884 263.22375931 55.33164642 262.22681549 54.91288757 261.19966125 C51.0551012 251.7389029 47.18629675 242.28268982 43.30859375 232.83007812 C42.98958099 232.05241089 42.67056824 231.27474365 42.34188843 230.47351074 C36.52165709 216.28978145 30.66514147 202.12109603 24.80645752 187.95321655 C15.93580508 166.49873731 7.14537016 145.0116216 -1.62890625 123.51757812 C-2.78720947 123.45989258 -3.9455127 123.40220703 -5.13891602 123.34277344 C-6.67856112 123.26065903 -8.21819259 123.17828871 -9.7578125 123.09570312 C-10.51888306 123.05848145 -11.27995361 123.02125977 -12.06408691 122.98291016 C-24.39240162 122.30556671 -36.72101572 118.42546866 -45.62890625 109.51757812 C-54.68708373 98.54822473 -57.76212338 87.14941133 -57.83203125 73.16601562 C-57.83773132 72.27073151 -57.8434314 71.37544739 -57.8493042 70.45303345 C-57.85872203 68.56196257 -57.86527534 66.67087553 -57.86914062 64.77978516 C-57.87880487 61.92255073 -57.90984192 59.06604908 -57.94140625 56.20898438 C-58.03237078 40.63294716 -56.59911002 25.18215547 -45.46875 13.17382812 C-32.1105562 1.14861757 -17.06363534 -0.08029097 0 0 Z " fill="#00AEEF" transform="translate(3353.62890625,1530.482421875)"/>
<path d="M0 0 C0.67885254 0.32226562 1.35770508 0.64453125 2.05712891 0.9765625 C11.59572148 5.57415011 19.91780423 11.17723531 28 18 C28.51159668 18.42651855 29.02319336 18.85303711 29.55029297 19.29248047 C41.80742898 29.62144031 51.1580348 42.04615264 59 56 C59.32564941 56.57347168 59.65129883 57.14694336 59.98681641 57.73779297 C78.76231141 91.28834839 83.54488355 131.14767115 83.34057617 168.97314453 C83.33972663 171.2331084 83.34021139 173.4930731 83.34190369 175.7530365 C83.34275231 181.79476814 83.32531361 187.83631521 83.30418181 193.87800455 C83.28522265 200.22667369 83.28364961 206.57534867 83.28010559 212.92404175 C83.27188862 223.54965719 83.25324594 234.17520108 83.22631836 244.80078125 C83.19865027 255.73013993 83.17747971 266.65948041 83.16479492 277.58886719 C83.16400675 278.26605836 83.16321858 278.94324954 83.16240653 279.64096166 C83.15849054 283.03927737 83.15469962 286.43759321 83.15097082 289.83590913 C83.1200268 317.89065214 83.06709848 345.94532189 83 374 C84.29687744 373.99202393 85.59375488 373.98404785 86.92993164 373.97583008 C88.65250583 373.96937849 90.37508075 373.96312256 92.09765625 373.95703125 C93.37606384 373.9483905 93.37606384 373.9483905 94.68029785 373.9395752 C109.64624889 373.89993506 122.81193605 376.90650179 133.8125 387.625 C145.68046244 400.51021636 147.18716797 416.09692342 147.18530273 432.96801758 C147.18747716 435.1644261 147.20563948 437.36032143 147.22460938 439.55664062 C147.29315645 456.25888505 145.25378802 472.55474654 133 485 C123.69178874 493.14468485 112.05625054 497.10693002 99.75366211 497.14044189 C97.86572685 497.14900711 97.86572685 497.14900711 95.93965149 497.15774536 C94.55221568 497.15899059 93.16477975 497.16011572 91.77734375 497.16113281 C90.3100319 497.16576444 88.84272125 497.17078956 87.37541199 497.17617798 C83.39355767 497.18927561 79.4117202 497.19574243 75.42984772 497.20018864 C72.93734005 497.20312519 70.44483692 497.20723121 67.95233154 497.21169281 C60.14030479 497.22536425 52.32828849 497.23503118 44.51625061 497.2388947 C35.52454385 497.24336694 26.53298975 497.26087742 17.54132938 497.2898953 C10.57547481 497.31158785 3.60966294 497.3216031 -3.35622501 497.32293582 C-7.50879355 497.32397895 -11.66121852 497.32978052 -15.81375122 497.34775543 C-19.72739268 497.36436639 -23.6407847 497.36632928 -27.55444908 497.35761642 C-28.98095053 497.35685281 -30.40746611 497.36109817 -31.83393288 497.37107468 C-47.27285104 497.47260788 -61.41656138 495.10694018 -73.25 484.5 C-83.28101291 473.74658904 -86.31239749 460.22641566 -86.26501465 445.9961853 C-86.26939592 444.92102114 -86.27377719 443.84585698 -86.27829123 442.73811209 C-86.29056542 439.15267635 -86.28880619 435.56738784 -86.28710938 431.98193359 C-86.29313666 429.40398951 -86.30006168 426.82604738 -86.30781555 424.24810791 C-86.32323305 418.70379828 -86.33167217 413.15951397 -86.33552551 407.61518478 C-86.3412923 399.58280331 -86.359911 391.55048956 -86.38196605 383.51813813 C-86.41764918 370.46278678 -86.44597498 357.40743159 -86.46826172 344.35205078 C-86.46959671 343.57155265 -86.4709317 342.79105452 -86.47230715 341.98690493 C-86.48173059 336.44960361 -86.49089236 330.91230186 -86.5 325.375 C-86.51039189 319.06005827 -86.52091175 312.74511678 -86.53173828 306.43017578 C-86.53306902 305.65245451 -86.53439977 304.87473323 -86.53577083 304.07344465 C-86.55825734 291.07227516 -86.58848006 278.07113446 -86.62413073 265.06999457 C-86.64570665 257.06578032 -86.66039133 249.06161089 -86.66596949 241.05736919 C-86.67074738 234.91220216 -86.68557976 228.7670964 -86.70396996 222.62195587 C-86.70981827 220.11266513 -86.71232396 217.60336389 -86.71113014 215.09406662 C-86.32035398 181.26247016 -86.32035398 181.26247016 -101.03515625 151.71484375 C-114.22015357 139.27397326 -130.18107204 137.29699778 -147.6171875 137.71484375 C-171.69709199 138.72415578 -192.33123533 149.10931391 -209 166 C-209.72703125 166.72832031 -210.4540625 167.45664063 -211.203125 168.20703125 C-242.98442849 201.927745 -248.97544409 252.21297746 -249.31640625 296.265625 C-249.33701066 298.51292269 -249.35800796 300.7602168 -249.37937927 303.00750732 C-249.43424016 308.88622116 -249.48380622 314.76496785 -249.53222656 320.64373779 C-249.58270645 326.65705241 -249.63825343 332.67032006 -249.69335938 338.68359375 C-249.80049997 350.45568892 -249.90204051 362.2278251 -250 374 C-248.7219751 373.98622314 -247.4439502 373.97244629 -246.12719727 373.95825195 C-244.41943567 373.94710545 -242.71167183 373.93630007 -241.00390625 373.92578125 C-240.16525024 373.9158313 -239.32659424 373.90588135 -238.46252441 373.89562988 C-222.78901513 373.82347173 -209.6807391 377.69305262 -198.19140625 388.625 C-183.78473701 404.23864509 -185.37738813 428.27526489 -186 448 C-186.84372026 463.0811217 -190.83308127 476.68187004 -202.3203125 487.10546875 C-212.15473961 494.52081652 -223.55058552 497.14992184 -235.66256714 497.14717102 C-236.53421953 497.15084771 -237.40587193 497.1545244 -238.30393803 497.1583125 C-241.224604 497.16932488 -244.14523436 497.17318909 -247.06591797 497.17700195 C-249.16051852 497.18326864 -251.25511796 497.18991563 -253.34971619 497.19691467 C-260.23053211 497.21793984 -267.1113482 497.22831829 -273.9921875 497.23828125 C-276.36460507 497.24232993 -278.73702252 497.24644688 -281.10943985 497.25063133 C-292.26070436 497.26968267 -303.41196227 497.28391164 -314.56323993 497.2922433 C-327.41383285 497.30200413 -340.26425299 497.32829384 -353.11478508 497.36874419 C-363.05983779 497.39896852 -373.00484117 497.41371832 -382.94993889 497.41702431 C-388.88328797 497.41936833 -394.81645246 497.42824377 -400.74975204 497.45348549 C-406.33943788 497.4768806 -411.92881911 497.48095358 -417.51854134 497.47072411 C-419.56020309 497.47023135 -421.60188042 497.47647425 -423.64349556 497.49028015 C-440.97489176 497.60083615 -456.52281664 496.29891739 -470.0546875 484.15625 C-485.41165375 468.07427676 -483.59266996 444.30153949 -483.13183594 423.71679688 C-482.646258 410.02709598 -479.3541968 397.44564724 -469.875 387.125 C-455.3524196 373.76422603 -438.04226416 374 -419 374 C-419 289.19 -419 204.38 -419 117 C-428.57 117 -438.14 117 -448 117 C-461.63053472 113.59236632 -472.46373604 109.41541319 -480.25 97.375 C-491.00607484 78.09026637 -490.98288668 49.09335968 -486 28 C-482.33787314 16.37792946 -476.41232926 7.50374973 -466 1 C-458.24562341 -2.81799458 -451.38063299 -5.11348973 -442.71569824 -5.14717102 C-441.44866058 -5.15432632 -440.18162292 -5.16148163 -438.87619019 -5.16885376 C-437.47930933 -5.17169372 -436.08242821 -5.17440549 -434.68554688 -5.17700195 C-433.20838259 -5.18327147 -431.73121986 -5.1899187 -430.25405884 -5.19691467 C-425.40896696 -5.21790686 -420.56387495 -5.22831543 -415.71875 -5.23828125 C-414.04588302 -5.24233121 -412.37301619 -5.2464482 -410.70014954 -5.25063133 C-402.83579993 -5.26967571 -394.97145964 -5.28390594 -387.10709143 -5.2922433 C-378.05477983 -5.30200045 -369.00271374 -5.32828318 -359.95048857 -5.36874419 C-352.93792636 -5.39900307 -345.92543412 -5.41372157 -338.91280794 -5.41702431 C-334.73224252 -5.41936447 -330.55193958 -5.42818849 -326.3714447 -5.45348549 C-322.43148725 -5.47694181 -318.49196182 -5.48092988 -314.55195236 -5.47072411 C-313.11576771 -5.4702328 -311.6795605 -5.47643188 -310.24344254 -5.49028015 C-295.9958433 -5.61984044 -282.6191686 -2.76939142 -271.78125 7 C-261.84237291 17.38390144 -258.65494949 29.84697087 -258.8046875 43.84375 C-258.8075174 44.85344849 -258.81034729 45.86314697 -258.81326294 46.90344238 C-258.8243847 50.10241967 -258.84947437 53.3011085 -258.875 56.5 C-258.88504015 58.67968343 -258.89416418 60.85937129 -258.90234375 63.0390625 C-258.92429775 68.35947205 -258.95769482 73.67971541 -259 79 C-258.34 79 -257.68 79 -257 79 C-256.7421875 78.29875 -256.484375 77.5975 -256.21875 76.875 C-240.91003171 40.76212608 -202.96107942 12.16153261 -167.81274414 -2.59472656 C-154.86837271 -7.79577654 -141.67901948 -11.33309125 -128 -14 C-127.09975098 -14.17789062 -126.19950195 -14.35578125 -125.27197266 -14.5390625 C-84.31779248 -22.21083608 -37.61526256 -18.06222001 0 0 Z " fill="#00AEEF" transform="translate(2286,1536)"/>
<path d="M0 0 C1.46055817 -0.00101212 1.46055817 -0.00101212 2.95062256 -0.00204468 C67.88178196 0.06913864 132.69872793 18.02028781 185.0625 57.25 C185.6714209 57.70197754 186.2803418 58.15395508 186.90771484 58.61962891 C196.5809749 65.84095878 205.37881154 73.877834 214.0625 82.25 C215.36380859 83.48943359 215.36380859 83.48943359 216.69140625 84.75390625 C222.30348458 90.2098224 227.21885132 96.10923862 232.0625 102.25 C232.84367187 103.21421875 233.62484375 104.1784375 234.4296875 105.171875 C264.20579604 142.65362186 281.27833694 188.81124628 286.0625 236.25 C286.17464844 237.27867187 286.28679688 238.30734375 286.40234375 239.3671875 C292.46184346 305.93867751 274.08387135 373.03087468 232.0625 425.25 C229.04232875 428.78816574 225.88420224 432.18295212 222.66015625 435.53515625 C220.53280335 437.75847996 218.53302451 440.01511884 216.5625 442.375 C176.73772177 488.14950414 113.04049844 512.03851613 55.0625 522.25 C54.04607422 522.43079102 53.02964844 522.61158203 51.98242188 522.79785156 C19.1556532 528.29082051 -18.17112021 527.95987642 -50.9375 522.25 C-52.11747559 522.05132324 -53.29745117 521.85264648 -54.51318359 521.64794922 C-72.43993127 518.5563321 -89.71928701 514.09961902 -106.9375 508.25 C-107.69095703 507.99782715 -108.44441406 507.7456543 -109.22070312 507.48583984 C-139.80829489 497.12199249 -168.16058773 480.88510007 -192.9375 460.25 C-193.46311523 459.81461914 -193.98873047 459.37923828 -194.53027344 458.93066406 C-206.88690743 448.66048966 -217.9778822 437.89177476 -227.9375 425.25 C-228.59105469 424.46367188 -229.24460937 423.67734375 -229.91796875 422.8671875 C-239.76045468 410.96190511 -247.64598284 397.82684521 -254.9375 384.25 C-255.27491211 383.63640625 -255.61232422 383.0228125 -255.95996094 382.390625 C-275.44285175 346.80821369 -283.15813989 305.33442284 -283.1875 265.125 C-283.18817474 264.28918396 -283.18884949 263.45336792 -283.18954468 262.59222412 C-283.10686764 197.737885 -260.2841953 134.26756753 -214.9375 87.25 C-214.27153809 86.55680664 -213.60557617 85.86361328 -212.91943359 85.14941406 C-203.98482965 75.89792365 -195.00099586 67.0500858 -184.59667969 59.46044922 C-182.93971168 58.25161352 -181.30171498 57.01998723 -179.6640625 55.78515625 C-137.17468728 24.1679154 -85.34985108 6.5540073 -32.9375 1.25 C-32.08325439 1.1557373 -31.22900879 1.06147461 -30.34887695 0.96435547 C-20.25642431 -0.03267219 -10.13184918 0.00632289 0 0 Z M-69.9375 167.25 C-71.1440625 168.24386719 -71.1440625 168.24386719 -72.375 169.2578125 C-96.8769892 190.0079346 -108.60459219 220.94665175 -111.421875 252.22729492 C-111.90978533 258.25873452 -112.31606419 264.20102755 -111.9375 270.25 C-111.8758667 271.23589111 -111.8758667 271.23589111 -111.81298828 272.24169922 C-109.83950107 300.94868731 -100.32679576 327.68747319 -80.9375 349.25 C-80.25300781 350.01699219 -79.56851562 350.78398438 -78.86328125 351.57421875 C-59.53713919 372.04349675 -31.35993481 383.35956931 -3.5 384.53515625 C7.9678425 384.81493284 18.91770102 383.98146105 30.0625 381.25 C30.71347656 381.0943457 31.36445312 380.93869141 32.03515625 380.77832031 C47.80379767 376.85183455 63.01441556 369.18132795 75.0625 358.25 C76.31740234 357.18845703 76.31740234 357.18845703 77.59765625 356.10546875 C95.40532867 340.7688459 106.1174809 319.70896105 112.0625 297.25 C112.38476562 296.03828125 112.70703125 294.8265625 113.0390625 293.578125 C117.30371395 274.04841277 117.09376693 250.58386042 112.0625 231.25 C111.89621094 230.57050293 111.72992187 229.89100586 111.55859375 229.19091797 C106.15784508 207.35289071 95.60860356 189.39403062 80.0625 173.25 C79.41796875 172.53070312 78.7734375 171.81140625 78.109375 171.0703125 C60.08672227 151.55883194 31.79797846 142.46353839 5.95703125 140.9609375 C-21.30994576 140.35925897 -49.41315126 148.93486935 -69.9375 167.25 Z " fill="#00AEEF" transform="translate(1800.9375,645.75)"/>
<path d="M0 0 C0.78246094 0.73089844 1.56492187 1.46179687 2.37109375 2.21484375 C4.21459807 3.923045 6.10123209 5.49437919 8.0625 7.0625 C12.87698365 11.16665 16.6229971 16.22049796 20.5 21.1875 C21.24507812 22.11691406 21.99015625 23.04632812 22.7578125 24.00390625 C28.9425655 31.92340704 33.87078984 40.2988944 38.5 49.1875 C38.81710937 49.79432617 39.13421875 50.40115234 39.4609375 51.02636719 C59.9700464 90.92710148 60.97418129 134.83022498 60.80418181 178.62306452 C60.7851925 184.3551337 60.78364731 190.08720964 60.78010559 195.81930542 C60.77084955 206.6309789 60.74632476 217.44255937 60.71605712 228.25419223 C60.68231029 240.58102874 60.66597655 252.90787011 60.65097082 265.23474145 C60.61976806 290.55237883 60.56713551 315.86993416 60.5 341.1875 C62.15051865 341.17594376 62.15051865 341.17594376 63.8343811 341.16415405 C65.29144212 341.15792322 66.74850395 341.15188048 68.20556641 341.14599609 C68.9292189 341.14043198 69.6528714 341.13486786 70.39845276 341.12913513 C84.28535923 341.08708208 96.42504224 345.457933 106.75 354.8125 C119.17665519 367.94350002 119.67868046 385.34447235 119.6875 402.375 C119.69974609 403.60025391 119.71199219 404.82550781 119.72460938 406.08789062 C119.75130062 422.96565643 118.08959268 438.44733388 105.87890625 451 C93.96029777 461.95963998 80.17463501 464.33316481 64.47460938 464.34863281 C63.26727142 464.35359772 62.05993347 464.35856262 60.81600952 464.36367798 C57.51386105 464.37575284 54.21177564 464.38323663 50.90961266 464.38768864 C48.84005339 464.39063025 46.77049952 464.3947372 44.70094299 464.39919281 C38.20720558 464.41285689 31.71348069 464.4225272 25.2197299 464.4263947 C17.75902323 464.43086404 10.2985008 464.44836395 2.83785009 464.4773953 C-2.95098054 464.49912765 -8.7397598 464.5091052 -14.52863073 464.51043582 C-17.97532095 464.51147622 -21.42183775 464.51721765 -24.8684845 464.53525543 C-28.72561282 464.55245348 -32.58230123 464.55040162 -36.43945312 464.54394531 C-37.55788605 464.5531601 -38.67631897 464.56237488 -39.8286438 464.5718689 C-54.66260037 464.49471552 -68.75829155 461.18979647 -79.94140625 450.9453125 C-91.06958728 438.39473239 -92.69193968 422.56834237 -93.125 406.5 C-93.16367188 405.30955078 -93.20234375 404.11910156 -93.2421875 402.89257812 C-93.33540995 399.99102947 -93.42121348 397.08947034 -93.5 394.1875 C-93.89106934 394.9199292 -94.28213867 395.6523584 -94.68505859 396.40698242 C-112.98249999 430.37227596 -143.99670367 455.14815425 -180.5 467.1875 C-193.27066101 471.01348579 -206.20826494 473.99880825 -219.5 475.1875 C-220.64082031 475.29707031 -221.78164062 475.40664062 -222.95703125 475.51953125 C-266.95386886 479.22296876 -313.88059388 470.47148047 -349.5 443.1875 C-350.41652344 442.49269531 -351.33304688 441.79789063 -352.27734375 441.08203125 C-383.07593266 416.82317141 -400.78592727 382.83476971 -406.09423828 344.2043457 C-406.85831038 337.43623335 -406.83398173 330.63291456 -406.81567383 323.82983398 C-406.81251688 321.38805269 -406.83606563 318.94749196 -406.86132812 316.50585938 C-406.96695644 290.35791501 -399.7953849 263.65088126 -384.5 242.1875 C-383.79488281 241.18589844 -383.08976562 240.18429687 -382.36328125 239.15234375 C-344.02724343 187.00265924 -276.69701798 166.81153052 -215.5 157.1875 C-194.86196495 154.15197265 -174.09922453 152.00141708 -153.2265625 152.08984375 C-151.29192642 152.09196617 -151.29192642 152.09196617 -149.31820679 152.09413147 C-145.9416295 152.09789205 -142.56509741 152.10766445 -139.1885376 152.11883545 C-135.72205211 152.12919112 -132.2555591 152.13365894 -128.7890625 152.13867188 C-122.02602347 152.14929476 -115.26301392 152.16629013 -108.5 152.1875 C-108.78889912 148.00972126 -109.09059556 143.83295961 -109.39453125 139.65625 C-109.47578247 138.47901367 -109.55703369 137.30177734 -109.64074707 136.08886719 C-110.75457511 120.99795238 -114.47829753 109.83489396 -125.5 99 C-145.67726563 82.15725719 -174.09260862 82.31811351 -198.90527344 84.48486328 C-223.61176026 87.33089734 -247.03948729 96.01099212 -269.90234375 105.40234375 C-270.78889648 105.76400635 -271.67544922 106.12566895 -272.58886719 106.49829102 C-274.25605053 107.18104677 -275.91982545 107.87222074 -277.57910156 108.57397461 C-290.68937534 113.96816153 -304.03546259 115.1156654 -317.56640625 110.4375 C-331.34081277 104.56824556 -339.04417498 91.36715443 -345.59472656 78.62084961 C-346.74706766 76.38070046 -347.92224603 74.15377998 -349.1015625 71.92773438 C-358.29087039 54.42555512 -365.82469642 37.04892844 -360.48046875 17.15234375 C-355.97286603 3.52178414 -346.45658589 -4.36285286 -334.00390625 -10.76953125 C-332.02986229 -11.73460833 -330.04904559 -12.68592601 -328.0625 -13.625 C-326.98629395 -14.13635498 -325.91008789 -14.64770996 -324.80126953 -15.17456055 C-239.41874764 -54.93306926 -124.38477087 -67.05104117 0 0 Z M-224.7265625 277.5 C-234.2681195 288.64968458 -237.3895457 300.77685973 -236.5 315.1875 C-234.78381945 326.25483759 -230.25916714 337.16671291 -221.0546875 344.00390625 C-207.91800762 352.76779158 -194.80945225 354.78956036 -179.3125 352.125 C-155.22150429 346.84745936 -135.39232199 331.26694872 -121.8203125 310.953125 C-109.05573816 290.83215293 -106.27087979 270.55776159 -106.5 247.1875 C-146.27316354 246.51513183 -194.91879036 246.54175245 -224.7265625 277.5 Z " fill="#00AEEF" transform="translate(1637.5,1568.8125)"/>
<path d="M0 0 C11.13846717 10.19125894 21.57112506 20.60195566 30.3125 32.9375 C31.47072266 34.51917969 31.47072266 34.51917969 32.65234375 36.1328125 C55.71402179 68.4662264 67.66608694 107.00548193 73.3125 145.9375 C73.43109375 146.74123047 73.5496875 147.54496094 73.671875 148.37304688 C75.27128477 159.73076031 75.5344367 171.1099894 75.625 182.5625 C75.63462769 183.2518161 75.64425537 183.9411322 75.6541748 184.65133667 C75.83420619 199.66134158 72.49958703 212.98437694 62.05859375 224.3203125 C49.25267247 236.1808302 34.68797047 240.27311397 17.63192749 240.17800903 C16.49632279 240.17971788 15.36071809 240.18142673 14.19070113 240.18318737 C10.4075049 240.18646642 6.62448832 240.1755046 2.84130859 240.16455078 C0.1206552 240.16287053 -2.59999476 240.16421596 -5.32064819 240.16543579 C-11.1667426 240.16648139 -17.01279215 240.16023886 -22.85887527 240.14896011 C-31.31118662 240.13266388 -39.76347641 240.1274929 -48.21580176 240.12498413 C-61.93115225 240.12061348 -75.64647887 240.10732152 -89.36181641 240.08837891 C-102.68017457 240.07000377 -115.99852624 240.05585527 -129.31689453 240.04736328 C-130.54956985 240.04657511 -130.54956985 240.04657511 -131.8071477 240.04577102 C-135.93004498 240.04316083 -140.0529423 240.04063344 -144.17583966 240.03814721 C-178.34641028 240.01743434 -212.51695256 239.98222602 -246.6875 239.9375 C-245.29435066 244.25259952 -243.88491317 248.56221367 -242.47265625 252.87109375 C-241.88611267 254.68885315 -241.88611267 254.68885315 -241.28771973 256.54333496 C-236.50572729 271.07143653 -229.63173373 284.35354188 -218.45703125 295.078125 C-216.6875 296.9375 -216.6875 296.9375 -216.6875 298.9375 C-216.09839844 299.20304687 -215.50929688 299.46859375 -214.90234375 299.7421875 C-212.62937646 300.96886826 -211.10956649 302.2816234 -209.25 304.0625 C-184.21901129 326.28153602 -148.92657259 331.74058012 -116.6875 329.9375 C-87.00971075 327.32478266 -59.10089208 318.08139941 -31.90673828 306.31347656 C-19.18565209 300.86066171 -3.43179321 297.51790441 10.0625 302.5625 C12.2890625 303.68359375 12.2890625 303.68359375 14.3125 304.9375 C15.00085937 305.36160156 15.68921875 305.78570313 16.3984375 306.22265625 C26.49274797 313.16491191 32.32072552 322.85322634 37.96435547 333.43701172 C39.47942042 336.24709778 41.03674655 339.03153516 42.59765625 341.81640625 C52.92285383 360.3539344 62.85329479 378.95225246 56.6875 400.75 C50.90825 417.34268989 38.21597887 425.26914942 23.3125 432.9375 C22.53890137 433.33727051 21.76530273 433.73704102 20.96826172 434.14892578 C-24.33532663 457.27349297 -77.58144786 470.91936956 -128.50390625 471.140625 C-129.59076218 471.14763931 -130.6776181 471.15465363 -131.79740906 471.16188049 C-135.28164873 471.17927395 -138.76571852 471.18573179 -142.25 471.1875 C-143.43968384 471.18817474 -144.62936768 471.18884949 -145.85510254 471.18954468 C-162.98371194 471.17408773 -179.77123801 470.88734153 -196.6875 467.9375 C-197.7094043 467.76589355 -198.73130859 467.59428711 -199.78417969 467.41748047 C-250.76282565 458.6494041 -299.22009566 438.13569306 -337.1171875 402.35546875 C-339.3183647 400.28475646 -341.56337099 398.31948793 -343.875 396.375 C-348.57801674 392.28289059 -352.61998193 387.65011692 -356.6875 382.9375 C-357.46996094 382.04289062 -358.25242187 381.14828125 -359.05859375 380.2265625 C-406.28908182 325.06135243 -425.14243994 252.8495248 -419.67163086 181.3371582 C-414.85380043 124.66123201 -394.22941593 67.19104637 -354.30078125 25.66796875 C-352.08977372 23.3578129 -349.99851451 21.00501155 -347.9375 18.5625 C-345.17325673 15.38163633 -342.22546951 12.60480733 -339.00390625 9.890625 C-337.32055 8.47126897 -335.66506139 7.01865649 -334.02734375 5.546875 C-264.09309645 -56.70471691 -148.86937592 -71.653765 0 0 Z M-218.6875 95.9375 C-229.56908306 108.01849078 -242.6875 129.13054984 -242.6875 145.9375 C-195.4975 145.9375 -148.3075 145.9375 -99.6875 145.9375 C-101.33672868 122.84829841 -107.37494098 102.2305766 -125.3828125 86.59765625 C-154.81770076 64.08122463 -193.14294134 71.60440415 -218.6875 95.9375 Z " fill="#00AEEF" transform="translate(3807.6875,700.0625)"/>
<path d="M0 0 C0.74585358 -0.0065712 1.49170715 -0.0131424 2.26016235 -0.01991272 C4.70998265 -0.03949604 7.15974189 -0.05127866 9.60961914 -0.0612793 C10.45480165 -0.06535482 11.29998417 -0.06943035 12.17077827 -0.07362938 C16.6501452 -0.09443298 21.12948207 -0.10875565 25.60888672 -0.11816406 C30.19111139 -0.12917805 34.77284375 -0.16353605 39.35489559 -0.20333576 C42.9164152 -0.22972955 46.47782186 -0.23787615 50.03943062 -0.24144554 C51.72601179 -0.24625802 53.4125898 -0.25771527 55.09907341 -0.27648354 C69.46494452 -0.42634026 84.03012261 0.70023396 96.20727539 9.17700195 C97.23852539 9.87825195 98.26977539 10.57950195 99.33227539 11.30200195 C108.85955034 19.79715545 113.08233923 32.83761703 114.20727539 45.17700195 C114.33393597 48.26540919 114.33431616 51.34807179 114.32080078 54.4387207 C114.32094681 55.32746384 114.32109283 56.21620697 114.32124329 57.13188171 C114.3205517 60.04278075 114.3127949 62.95361422 114.30493164 65.86450195 C114.30306478 67.89331019 114.30164214 69.92211888 114.30064392 71.95092773 C114.29683987 77.27078513 114.28702774 82.59061489 114.27593994 87.91046143 C114.26568029 93.34696072 114.26113657 98.78346451 114.25610352 104.2199707 C114.24540346 114.87232654 114.22835257 125.52466194 114.20727539 136.17700195 C115.00303986 136.16811951 115.79880432 136.15923706 116.61868286 136.15008545 C124.17838593 136.06939006 131.73787536 136.00876189 139.29789925 135.96975327 C143.18308252 135.9490232 147.06790509 135.92097882 150.95288086 135.87524414 C154.71361627 135.83125739 158.4740084 135.80775577 162.23498154 135.79749298 C163.65808378 135.79019496 165.08117075 135.77594887 166.50412369 135.75408173 C179.94317677 135.55608123 192.53813856 137.36429493 203.20727539 146.17700195 C203.83118164 146.67844727 204.45508789 147.17989258 205.09790039 147.6965332 C214.20587218 155.834308 218.37765623 168.38305093 219.38726807 180.30187988 C219.645164 185.03901421 219.67818811 189.77097944 219.65332031 194.51416016 C219.64482132 196.97619739 219.67366307 199.43589577 219.70532227 201.89770508 C219.77773931 218.18155855 217.3411415 233.589272 205.89477539 245.98950195 C194.39090929 256.66629272 179.6077468 258.79890208 164.50024414 258.56762695 C163.03909591 258.56014341 161.57793747 258.55446051 160.11677551 258.55047607 C156.31740374 258.53538538 152.51866815 258.49625294 148.71954346 258.45166016 C144.82426554 258.41034397 140.92888231 258.39238843 137.03344727 258.37231445 C129.42443691 258.32973726 121.81594612 258.26169478 114.20727539 258.17700195 C114.24452749 282.28253361 114.30451354 306.38791738 114.39117813 330.49332428 C114.43089919 341.68720219 114.46332682 352.8810105 114.47827148 364.07495117 C114.49132402 373.83752196 114.51838021 383.59993916 114.56188846 393.36242342 C114.58442247 398.52622188 114.60019093 403.68983149 114.59915924 408.85368347 C114.59840784 413.72603336 114.61654943 418.59796705 114.64844322 423.47020912 C114.65687819 425.2469575 114.65873636 427.02375292 114.65307808 428.80051231 C114.59989522 448.08745644 117.99855702 464.39581711 131.20727539 479.17700195 C131.20727539 479.83700195 131.20727539 480.49700195 131.20727539 481.17700195 C131.79766602 481.45157227 132.38805664 481.72614258 132.99633789 482.0090332 C135.11656713 483.12908363 136.73932716 484.34261031 138.58227539 485.86450195 C149.67943053 494.22816667 161.94048655 497.88403903 175.20727539 501.17700195 C210.76938483 510.07634403 210.76938483 510.07634403 220.20727539 524.17700195 C227.48021871 537.71807405 226.52562973 553.53974454 226.46801758 568.43359375 C226.45728801 571.73561926 226.46796477 575.03710222 226.48071289 578.33911133 C226.47939127 580.47387813 226.47682883 582.6086446 226.47290039 584.7434082 C226.47694885 585.71250626 226.48099731 586.68160431 226.48516846 587.68006897 C226.3908248 601.71941555 224.12336936 616.01393923 213.99633789 626.44262695 C213.40594727 627.0149707 212.81555664 627.58731445 212.20727539 628.17700195 C211.72000977 628.7080957 211.23274414 629.23918945 210.73071289 629.78637695 C196.64621147 643.79865017 171.97510338 643.58992452 153.62576294 643.54714966 C116.50709745 643.25584205 78.94603042 635.8710384 45.20727539 620.17700195 C44.16434326 619.69577881 44.16434326 619.69577881 43.1003418 619.20483398 C28.80704911 612.53733972 15.14534533 604.54373619 3.20727539 594.17700195 C2.40161133 593.4809082 1.59594727 592.78481445 0.76586914 592.06762695 C-1.7924743 589.80955856 -4.29953776 587.50676345 -6.79272461 585.17700195 C-7.67959961 584.35586914 -8.56647461 583.53473633 -9.48022461 582.6887207 C-31.62466959 561.45647587 -45.86459296 532.14081188 -52.04272461 502.30200195 C-52.26931763 501.22752808 -52.26931763 501.22752808 -52.50048828 500.13134766 C-55.65670776 483.65954912 -56.08365302 466.97668691 -56.01977539 450.26196289 C-56.01920952 448.15066534 -56.01953125 446.03936739 -56.0206604 443.92807007 C-56.02122807 438.26411026 -56.00956989 432.60023727 -55.99551249 426.93629742 C-55.98290624 420.99198041 -55.9818269 415.04766083 -55.97946167 409.10333252 C-55.97327571 397.877118 -55.95690442 386.65094301 -55.93676269 375.4247458 C-55.91431328 362.63130241 -55.90338764 349.83785701 -55.89337182 337.04439878 C-55.87253526 310.7552447 -55.8374161 284.46612555 -55.79272461 258.17700195 C-57.04566315 258.18976669 -57.04566315 258.18976669 -58.32391357 258.20278931 C-61.45916049 258.23068509 -64.59434357 258.25095617 -67.72967529 258.26626587 C-69.73950429 258.27833862 -71.74927583 258.29899963 -73.7590332 258.31982422 C-86.77307502 258.37299284 -97.48752523 256.70970704 -107.79272461 248.17700195 C-108.41663086 247.66395508 -109.04053711 247.1509082 -109.68334961 246.62231445 C-118.69520623 238.43327953 -123.03733421 226.92479229 -123.96557617 214.94647217 C-124.20551823 209.90468978 -124.22037959 204.86705877 -124.18383789 199.82055664 C-124.16774918 197.18103368 -124.18376842 194.54304132 -124.20288086 191.90356445 C-124.22422097 175.51859012 -122.20370824 160.88271608 -110.66772461 148.36450195 C-98.08592783 136.54523832 -83.49836156 135.87339786 -67.23022461 136.05200195 C-65.63322501 136.06205107 -64.03621929 136.07117351 -62.43920898 136.0793457 C-58.55689455 136.10120804 -54.67487817 136.13563135 -50.79272461 136.17700195 C-50.80271736 134.45384514 -50.80271736 134.45384514 -50.81291199 132.69587708 C-50.87395202 121.82472598 -50.91880663 110.95361006 -50.94816113 100.08232594 C-50.9637603 94.4944267 -50.98489274 88.90666675 -51.01904297 83.31884766 C-51.05184244 77.91772292 -51.06962076 72.51673146 -51.07735634 67.11551476 C-51.0828631 65.063625 -51.09361557 63.01174184 -51.10991478 60.95990944 C-51.24432703 43.32436903 -50.47551561 26.58864569 -37.72631836 12.98950195 C-27.23184462 3.15225789 -14.08947799 0.0550334 0 0 Z " fill="#00AEEF" transform="translate(2581.792724609375,1394.822998046875)"/>
<path d="M0 0 C8.73480308 7.63853224 12.43521447 18.4490169 13.9296875 29.6875 C14.32785918 35.96268315 14.26041478 42.26187434 14.265625 48.546875 C14.27206574 50.38234558 14.27879501 52.21781517 14.28579712 54.05328369 C14.29772458 57.88938778 14.30148265 61.72540213 14.30029297 65.56152344 C14.30009008 70.44094391 14.32738147 75.31978002 14.36183739 80.19906235 C14.38423881 83.98783941 14.38812648 87.77647879 14.38707352 91.56531525 C14.38941001 93.36238873 14.39812136 95.15946716 14.41373825 96.9564743 C14.54393813 113.48522415 12.50367733 127.76387284 1.15625 140.7109375 C-9.51763722 151.02452473 -23.73282227 153.79118568 -38.0078125 154.125 C-64.97176618 155.15441498 -90.35931931 161.60236487 -111.0703125 179.6875 C-111.7303125 180.20441406 -112.3903125 180.72132813 -113.0703125 181.25390625 C-139.76783139 202.73033777 -152.29067948 242.65811719 -155.87052345 275.38402939 C-157.04468202 286.8295052 -157.41179105 298.1723053 -157.484375 309.671875 C-157.50315288 311.59385954 -157.52273079 313.51583642 -157.5430603 315.43780518 C-157.59369009 320.42205209 -157.63367881 325.40632554 -157.67120361 330.39068604 C-157.71168502 335.506614 -157.76257241 340.6224383 -157.8125 345.73828125 C-157.90843673 355.72128061 -157.99309585 365.70433948 -158.0703125 375.6875 C-157.38681229 375.68160858 -156.70331207 375.67571716 -155.99909973 375.66964722 C-152.8626932 375.64607107 -149.7263054 375.63156604 -146.58984375 375.6171875 C-145.51480591 375.60776123 -144.43976807 375.59833496 -143.33215332 375.58862305 C-127.50256362 375.53427771 -113.75864419 378.63344757 -101.8515625 389.7109375 C-92.52439914 400.06081614 -89.93470453 412.53389748 -89.8671875 426.0390625 C-89.86148743 426.93434662 -89.85578735 427.82963074 -89.84991455 428.75204468 C-89.84049672 430.64311555 -89.83394341 432.5342026 -89.83007812 434.42529297 C-89.82041388 437.2825274 -89.78937683 440.13902904 -89.7578125 442.99609375 C-89.66318849 459.10770268 -91.34204358 473.43493075 -102.5703125 485.9375 C-113.15645391 495.79356269 -126.6057303 499.00728954 -140.67582703 498.95492554 C-141.58850352 498.95945665 -142.50118001 498.96398776 -143.44151336 498.96865618 C-146.47107153 498.98122124 -149.50044811 498.97968494 -152.5300293 498.97802734 C-154.71403736 498.98401756 -156.89804331 498.99082424 -159.08204651 498.99838257 C-164.99550744 499.01600032 -170.90891044 499.02073619 -176.82239509 499.02201414 C-180.52286167 499.02343878 -184.22331367 499.02771433 -187.92377663 499.03300858 C-201.51745889 499.05244931 -215.11109571 499.05954092 -228.70479087 499.05785771 C-240.05973452 499.05699509 -251.414506 499.07975084 -262.76940793 499.1095928 C-273.11371598 499.13580345 -283.4579655 499.14647074 -293.80230647 499.14519465 C-299.97031119 499.1446864 -306.13815611 499.150294 -312.30612755 499.17155075 C-318.11175411 499.19101365 -323.91706977 499.19100263 -329.72270775 499.17651749 C-331.84338336 499.17443821 -333.96407885 499.17907716 -336.08472061 499.1912384 C-353.64461573 499.28535033 -369.39889997 498.16070668 -383.125 485.84375 C-395.17989265 473.21974225 -396.25745019 456.14766019 -396.25561523 439.64404297 C-396.25779357 437.45650522 -396.27597547 435.26947966 -396.29492188 433.08203125 C-396.36324262 416.42758062 -394.53175867 401.29593066 -382.44921875 388.875 C-366.72677222 374.4175779 -348.99077848 375.6875 -328.0703125 375.6875 C-328.0703125 290.8775 -328.0703125 206.0675 -328.0703125 118.6875 C-336.9803125 118.6875 -345.8903125 118.6875 -355.0703125 118.6875 C-369.22289229 115.14935505 -380.49157747 111.39148708 -388.3828125 98.75 C-395.21629765 86.45343051 -396.42737997 74.04513981 -396.38598633 60.15527344 C-396.38283693 57.95456828 -396.40633295 55.75522666 -396.43164062 53.5546875 C-396.50812534 36.46764454 -393.93149255 20.90495289 -381.796875 8.01953125 C-370.30377579 -1.81052638 -357.06843661 -3.61576322 -342.4753418 -3.5871582 C-341.00434105 -3.59151133 -339.53334257 -3.59669647 -338.06234741 -3.60264587 C-334.08491092 -3.61598409 -330.10756975 -3.61662023 -326.13011527 -3.61408257 C-322.80040315 -3.61300911 -319.47071003 -3.61790592 -316.141002 -3.622688 C-308.279615 -3.63376577 -300.41827579 -3.63423066 -292.55688477 -3.62817383 C-284.46915466 -3.62213801 -276.38159869 -3.63443902 -268.29389828 -3.6557439 C-261.33055414 -3.67340692 -254.36726519 -3.67935378 -247.40389949 -3.67610615 C-243.25368658 -3.67430027 -239.10359784 -3.67685939 -234.95340538 -3.69082069 C-231.04710175 -3.70347084 -227.1410678 -3.70138769 -223.23476791 -3.68840981 C-221.80904229 -3.68605984 -220.38329725 -3.68872139 -218.95759392 -3.69703293 C-204.69297727 -3.77413279 -190.59223459 -1.15668486 -179.73046875 8.83203125 C-170.53524329 19.10904794 -167.02692719 30.60518455 -166.86499023 44.16162109 C-166.85509064 44.88426147 -166.84519104 45.60690186 -166.83499146 46.35144043 C-166.80360327 48.72124036 -166.77870956 51.09106029 -166.75390625 53.4609375 C-166.73331709 55.11146543 -166.71232012 56.76198832 -166.69093323 58.4125061 C-166.6359151 62.74265443 -166.58641704 67.07284873 -166.53808594 71.40307617 C-166.48772238 75.8273525 -166.43211408 80.2515626 -166.37695312 84.67578125 C-166.26961958 93.34629806 -166.16812024 102.01687052 -166.0703125 110.6875 C-165.79291229 110.0098912 -165.51551208 109.33228241 -165.22970581 108.63414001 C-163.94919733 105.51338471 -162.66214371 102.39536791 -161.375 99.27734375 C-160.93889404 98.21173218 -160.50278809 97.14612061 -160.0534668 96.04821777 C-143.34589106 55.67028844 -110.84754659 16.27865068 -69.99609375 -1.09765625 C-66.07551052 -2.68052387 -62.10403593 -4.0486702 -58.0703125 -5.3125 C-56.99007812 -5.6528125 -55.90984375 -5.993125 -54.796875 -6.34375 C-37.20833815 -10.94317368 -15.14602183 -11.09598669 0 0 Z " fill="#00AEEF" transform="translate(3258.0703125,1534.3125)"/>
<path d="M0 0 C1.43114993 -0.00243735 2.86229814 -0.00616572 4.29344177 -0.01106262 C8.12591633 -0.02034304 11.95812973 -0.01115826 15.79058361 0.00226951 C19.83013556 0.01371976 23.86967717 0.00946637 27.90924072 0.00752258 C34.68383979 0.00664425 41.4583379 0.01762622 48.23291016 0.03613281 C56.03560609 0.05732759 63.83815476 0.06080022 71.64087367 0.05457085 C79.19180772 0.04885412 86.74269058 0.05454778 94.29361725 0.0657444 C97.48787647 0.07035641 100.68210404 0.07127917 103.87636566 0.06915855 C107.642395 0.067259 111.40827683 0.0755059 115.17427254 0.09121895 C117.19476011 0.09740347 119.21527015 0.09398088 121.23576355 0.09014893 C137.31342308 0.18273723 152.97906127 2.63169628 164.87988281 14.37231445 C173.80575932 24.73270683 177.04090003 36.27191447 177.01296139 49.75244808 C177.01520441 50.58555705 177.01744744 51.41866602 177.01975843 52.27702072 C177.02608677 55.07506968 177.02533485 57.87307194 177.02464294 60.67112732 C177.0277771 62.69501775 177.031352 64.71890753 177.03533036 66.74279648 C177.0450299 72.30985647 177.04857911 77.87690621 177.05117333 83.44397342 C177.05506697 89.44626092 177.06470447 95.44853934 177.07373047 101.45082092 C177.08867303 111.85541513 177.10022066 122.26000951 177.10967827 132.66460991 C177.12410232 148.41862201 177.14686396 164.17261612 177.17134338 179.92661538 C177.18113373 186.2508842 177.19065474 192.57515342 177.20017338 198.89942265 C177.20123214 199.60207268 177.20229091 200.30472272 177.20338176 201.02866518 C177.22853325 217.75445897 177.25102752 234.48025607 177.27270508 251.20605469 C177.27365552 251.93785859 177.27460595 252.66966249 177.27558519 253.42364227 C177.29772646 270.48894909 177.31860117 287.55425689 177.33728027 304.61956787 C177.33808402 305.35302449 177.33888778 306.08648111 177.33971588 306.84216369 C177.34376655 310.54043363 177.34780814 314.23870357 177.35184915 317.93697352 C177.35264814 318.66786485 177.35344713 319.39875617 177.35427033 320.15179572 C177.35588264 321.62702315 177.35749347 323.10225058 177.3591028 324.57747802 C177.38575767 348.97309825 177.41913828 373.36870215 177.45988094 397.76430305 C177.46563052 401.21261509 177.4712892 404.66092728 177.47688484 408.10923958 C177.47798665 408.78785927 177.47908845 409.46647896 177.48022364 410.16566288 C177.49770146 421.06931126 177.50788748 431.97295479 177.51513729 442.87661427 C177.5225449 453.84522745 177.53712793 464.81381508 177.55856305 475.78241026 C177.56993395 481.72037642 177.57808986 487.65830111 177.5775547 493.59627914 C177.57712518 499.03895749 177.5859024 504.48154268 177.6018045 509.92419709 C177.60593921 511.88658233 177.6067687 513.84897812 177.6038404 515.81136554 C177.47183749 543.87794236 177.47183749 543.87794236 189.87988281 568.37231445 C194.56408 573.04456216 200.25294637 573.99692716 206.50488281 575.24731445 C218.02287498 577.56228634 228.66047887 581.32623076 236.26269531 590.8371582 C241.05917549 598.35627809 243.97000401 606.50049875 244.04101562 615.43115234 C244.05062317 616.41310074 244.06023071 617.39504913 244.07012939 618.40675354 C244.07650421 619.98492104 244.07650421 619.98492104 244.08300781 621.5949707 C244.08870789 622.69143417 244.09440796 623.78789764 244.10028076 624.91758728 C244.10971804 627.23834269 244.11625968 629.55911142 244.12011719 631.87988281 C244.12978109 635.39778663 244.16080015 638.91509554 244.19238281 642.43286133 C244.19891776 644.69522768 244.2041663 646.95759818 244.20800781 649.2199707 C244.22035461 650.25791275 244.23270142 651.2958548 244.24542236 652.36524963 C244.20494344 665.90742066 240.54743137 679.74434457 231.06738281 689.80981445 C213.61364203 705.74583864 189.46514991 704.11159154 167.45507812 703.23608398 C129.36399034 701.25696211 87.88240192 693.07636303 58.87988281 666.37231445 C58.36329102 665.89810059 57.84669922 665.42388672 57.31445312 664.93530273 C25.34463275 635.25175141 13.73169683 593.48999316 8.87988281 551.37231445 C8.79666718 550.66941794 8.71345154 549.96652142 8.62771422 549.24232501 C7.7130667 540.56988917 7.74321065 531.92582955 7.7596283 523.21858215 C7.75919166 521.48904663 7.75831506 519.75951118 7.75703913 518.02997607 C7.75481228 513.30036411 7.7587906 508.57077496 7.76381719 503.8411659 C7.76814757 498.7322454 7.76667343 493.62332612 7.76591492 488.5144043 C7.76539132 479.67046111 7.76852096 470.82652532 7.77415276 461.982584 C7.78229001 449.19582908 7.78488526 436.40907772 7.78614075 423.6223205 C7.78832777 402.87516476 7.79497837 382.12801297 7.80444336 361.38085938 C7.81362652 341.23046895 7.82070294 321.0800796 7.82495117 300.9296875 C7.8252139 299.6870003 7.82547662 298.4443131 7.8257473 297.16396872 C7.82705237 290.92958799 7.82831607 284.69520726 7.82955921 278.46082652 C7.83992092 226.76465311 7.85752973 175.06848397 7.87988281 123.37231445 C6.70184082 123.39588013 6.70184082 123.39588013 5.5 123.41992188 C1.87670346 123.48300748 -1.74647692 123.52153656 -5.37011719 123.55981445 C-7.2225 123.59751953 -7.2225 123.59751953 -9.11230469 123.63598633 C-22.98926994 123.74554132 -36.95999568 120.94805798 -47.46386719 111.2121582 C-63.19783476 93.73409517 -61.78107234 70.36724092 -61.12011719 48.37231445 C-60.28550662 33.47496458 -55.85414783 21.3611978 -44.80761719 11.12231445 C-31.95131157 0.89956924 -15.83093839 -0.09321311 0 0 Z " fill="#00AEEF" transform="translate(3105.1201171875,461.627685546875)"/>
<path d="M0 0 C1.41967534 -0.00243747 2.83934895 -0.00616595 4.25901794 -0.01106262 C8.06056967 -0.02034226 11.86185808 -0.0111585 15.66338897 0.00226951 C19.67177648 0.01372284 23.68015364 0.00946609 27.68855286 0.00752258 C34.41187763 0.00664424 41.13510068 0.01762548 47.85839844 0.03613281 C55.59859073 0.05731921 63.33863454 0.06080199 71.07884997 0.05457085 C78.57211565 0.04885064 86.06532979 0.05455237 93.55858803 0.0657444 C96.72690103 0.0703527 99.89518213 0.07128081 103.06349754 0.06915855 C106.80080318 0.0672566 110.5379605 0.07552378 114.27523232 0.09121895 C116.27763563 0.09739221 118.28006155 0.0939846 120.2824707 0.09014893 C136.73001256 0.18541241 152.78242752 2.35496424 164.98754883 14.37231445 C173.01356631 23.54490586 177.11508682 35.12697001 177.11059666 47.28184223 C177.11258771 48.47266857 177.11457875 49.66349492 177.11663014 50.89040691 C177.1137173 52.19487417 177.11080445 53.49934144 177.10780334 54.84333801 C177.10823946 56.24596081 177.1091151 57.64858353 177.11039251 59.05120581 C177.11262963 62.905053 177.10862686 66.75887243 177.10361445 70.61271608 C177.09929893 74.76876791 177.10075716 78.92481815 177.10151672 83.08087158 C177.10204126 90.28137903 177.0989018 97.48187742 177.09327888 104.68238258 C177.08515437 115.09312458 177.08254769 125.50386219 177.08129089 135.91460701 C177.07910187 152.80505299 177.07244584 169.69549414 177.06298828 186.5859375 C177.05381029 202.99414038 177.04673135 219.40234195 177.04248047 235.81054688 C177.04221775 236.82182476 177.04195502 237.83310264 177.04168434 238.87502531 C177.04037931 243.94827228 177.0391156 249.02151927 177.03787243 254.09476626 C177.02750449 296.18728568 177.00989024 338.27979979 176.98754883 380.37231445 C177.87353508 380.35954971 177.87353508 380.35954971 178.77742004 380.3465271 C181.49977719 380.31237689 184.22208902 380.2914917 186.94458008 380.27075195 C187.87338989 380.25713623 188.80219971 380.24352051 189.75915527 380.22949219 C204.52709411 380.14538125 217.30147308 384.0011761 228.30004883 394.12231445 C240.02002685 406.5747911 240.50302714 422.52050092 240.43359375 438.65917969 C240.42509696 441.66777325 240.45389205 444.67445498 240.4855957 447.68286133 C240.5390385 462.23726622 239.65457949 475.6688875 229.98754883 487.37231445 C229.48610352 487.9962207 228.9846582 488.62012695 228.46801758 489.26293945 C220.32992112 498.37127126 207.72899483 502.60155108 195.78779721 503.54636335 C189.64978587 503.82709763 183.50761506 503.78102269 177.36474609 503.76049805 C175.3067497 503.76457021 173.2487555 503.76991568 171.19076538 503.77642822 C165.63493208 503.79003181 160.07926707 503.78483179 154.52343106 503.77529097 C148.68838144 503.76765714 142.85334552 503.77475037 137.01829529 503.77944946 C127.22115512 503.78489664 117.42408295 503.77774312 107.62695312 503.76342773 C96.32807638 503.74710784 85.02936212 503.7523892 73.73048931 503.76890695 C64.00098779 503.78255688 54.27153495 503.78442423 44.54202694 503.77659094 C38.74357788 503.77193309 32.94520499 503.77123726 27.14676094 503.78120041 C21.69241295 503.7899188 16.23827273 503.78375974 10.78394699 503.76651764 C8.79186153 503.7625785 6.79975834 503.76364225 4.80768013 503.77030563 C-12.6458559 503.82326733 -26.41651131 502.17727398 -41.26245117 492.18481445 C-54.43408271 478.71382765 -56.19974592 462.2450616 -56.19775391 444.32885742 C-56.19993225 442.14131968 -56.21811414 439.95429411 -56.23706055 437.7668457 C-56.30560015 421.11667711 -54.27559276 404.75857995 -42.01245117 392.37231445 C-26.67262919 379.81388876 -11.75875809 380.37231445 7.98754883 380.37231445 C7.98754883 295.56231445 7.98754883 210.75231445 7.98754883 123.37231445 C-1.25245117 123.37231445 -10.49245117 123.37231445 -20.01245117 123.37231445 C-34.01513286 119.87164403 -45.24573168 116.11310426 -53.26245117 103.74731445 C-60.64945284 90.52317251 -61.19233368 76.88500588 -61.19995117 62.12231445 C-61.21832031 60.27186523 -61.21832031 60.27186523 -61.23706055 58.3840332 C-61.26478717 40.8053563 -58.88018061 25.62451546 -46.35620117 12.6574707 C-33.72700914 0.95163941 -16.39757928 -0.09736868 0 0 Z " fill="#00AEEF" transform="translate(2805.012451171875,656.627685546875)"/>
<path d="M0 0 C1.54400665 -0.00322247 3.088013 -0.00658724 4.63201904 -0.01008606 C7.85608629 -0.01604253 11.08012687 -0.01792958 14.30419922 -0.01733398 C18.39650665 -0.0172326 22.48863968 -0.03087592 26.58090591 -0.04810619 C29.76746374 -0.05933007 32.95398078 -0.06125003 36.14055634 -0.06072426 C37.64734243 -0.06188914 39.15413011 -0.06622485 40.6608963 -0.07405663 C58.52632675 -0.15822614 76.56421429 0.92846405 89.984375 14.16796875 C99.799702 25.56075902 102.12822208 37.8852633 102.1875 52.48828125 C102.19320007 53.58332977 102.19890015 54.6783783 102.20477295 55.80661011 C102.21420095 58.12138917 102.22074817 60.43618152 102.22460938 62.75097656 C102.23428413 66.26000956 102.26531664 69.76844878 102.296875 73.27734375 C102.30340909 75.5351528 102.30865797 77.79296601 102.3125 80.05078125 C102.3310202 81.60298874 102.3310202 81.60298874 102.34991455 83.18655396 C102.30644198 97.683488 98.11198665 110.58198939 88.07421875 121.19921875 C78.08125138 130.61315436 64.52128772 133.30750341 51.15991211 133.32910156 C50.41084595 133.33406647 49.66177979 133.33903137 48.89001465 133.34414673 C46.43057304 133.35865801 43.97119601 133.36555341 41.51171875 133.37109375 C40.66403994 133.37392113 39.81636112 133.3767485 38.94299507 133.37966156 C34.45296039 133.39461287 29.96295748 133.40386673 25.47290039 133.40820312 C20.87263353 133.41366783 16.27266562 133.43766509 11.67249203 133.46617508 C8.10247495 133.48495347 4.53252754 133.49001517 0.96246529 133.491539 C-0.73133406 133.49453418 -2.42513312 133.5024543 -4.11888313 133.51572418 C-20.7219903 133.63647283 -37.75385006 132.37508266 -50.453125 120.29296875 C-63.67064844 105.73453714 -63.66602677 89.08363358 -63.53710938 70.32739258 C-63.51565218 66.61017765 -63.53699467 62.89489088 -63.5625 59.17773438 C-63.55985674 56.77733955 -63.55473179 54.37694592 -63.546875 51.9765625 C-63.55497192 50.88452011 -63.56306885 49.79247772 -63.57141113 48.66734314 C-63.41866341 35.88686062 -59.67648947 23.55736527 -51.015625 13.94921875 C-36.75153631 0.29644815 -18.57574129 0.00920074 0 0 Z " fill="#00AEEF" transform="translate(2878.015625,461.83203125)"/>
</svg>
