<?xml version="1.0" encoding="UTF-8"?>
<svg version="1.1" xmlns="http://www.w3.org/2000/svg" width="4500" height="2700">
<path d="M0 0 C1.0946759 -0.00571014 2.18935181 -0.01142029 3.31719971 -0.01730347 C5.10408958 -0.01898026 5.10408958 -0.01898026 6.92707825 -0.02069092 C8.1894632 -0.02565582 9.45184814 -0.03062073 10.75248718 -0.03573608 C14.20936336 -0.0488215 17.66622015 -0.05529773 21.12311721 -0.05974674 C23.28661275 -0.06268432 25.45010307 -0.06679045 27.61359596 -0.07125092 C34.39351824 -0.08491703 41.1734285 -0.09458745 47.9533636 -0.09845281 C55.75936971 -0.1029285 63.56520029 -0.12045732 71.37115306 -0.1494534 C77.41807285 -0.17112947 83.46494348 -0.18116027 89.51190168 -0.18249393 C93.11720722 -0.18353792 96.72234756 -0.18935843 100.32761192 -0.20731354 C104.35566586 -0.22698464 108.38335642 -0.22248177 112.41145325 -0.21600342 C113.59259201 -0.2252182 114.77373077 -0.23443298 115.99066162 -0.243927 C127.9149165 -0.18403388 137.72857678 2.52873777 146.39900208 11.00372314 C155.94912144 22.12458582 159.5758593 38.93745903 164.14900208 52.63262939 C164.77909092 54.50850784 165.40959409 56.38424717 166.04048157 58.25985718 C167.69589501 63.18452831 169.34637377 68.11083807 170.99555969 73.03759766 C173.59315983 80.79462502 176.1985486 88.54904334 178.80301285 96.30376816 C179.4517255 98.23547097 180.10028187 100.16722627 180.74868393 102.09903336 C187.05795491 120.89491195 193.45470497 139.66026072 199.87641907 158.41796875 C203.53917458 169.11774067 207.19305632 179.82053098 210.83165359 190.52854347 C211.97115176 193.88162147 213.11275027 197.23395519 214.25886536 200.58477783 C219.0699545 214.65520724 223.78211597 228.73953845 228.03181458 242.99200439 C228.51779617 244.61530167 228.51779617 244.61530167 229.01359558 246.27139282 C230.8416255 252.51281191 232.34420654 258.73848529 233.49275208 265.14044189 C233.62670883 264.53895828 233.76066559 263.93747467 233.89868164 263.31776428 C237.74444628 246.16600509 243.13438473 229.67888698 248.80000305 213.06922913 C251.08446051 206.36632543 253.32824919 199.65040467 255.55915833 192.92950439 C255.9090834 191.87547424 256.25900848 190.82144409 256.61953735 189.73547363 C257.33794186 187.57139598 258.05633058 185.40731308 258.77470398 183.2432251 C264.73439491 165.30341892 270.76319714 147.38877069 276.89582825 129.50738525 C280.96729555 117.63182881 284.99814733 105.74283289 289.01367188 93.8482666 C292.6344602 83.12392605 296.26875734 72.40422201 299.91275024 61.68774414 C302.0270323 55.46764224 304.13153346 49.24460144 306.21368408 43.01367188 C307.18570266 40.11584302 308.17230303 37.22319254 309.1650238 34.33239746 C309.77176985 32.55123239 310.35975086 30.7637073 310.9466095 28.97589111 C314.43515071 18.92721533 319.80388357 10.25587789 328.82868958 4.35919189 C337.33216557 0.46903865 345.21804301 -0.29575594 354.4947052 -0.2477417 C355.75782028 -0.25299866 357.02093536 -0.25825562 358.32232666 -0.26367188 C361.75833633 -0.27724252 365.19407301 -0.27208978 368.6300869 -0.26253462 C372.24353592 -0.25488437 375.85696317 -0.26199841 379.47041321 -0.26669312 C385.53600719 -0.27213517 391.60149123 -0.26499998 397.66706848 -0.25067139 C404.65743399 -0.2343478 411.64753691 -0.23963741 418.63789606 -0.2561506 C424.66370452 -0.26980989 430.6894344 -0.27166353 436.71525335 -0.2638346 C440.30369203 -0.25918238 443.8920077 -0.25846504 447.48043823 -0.26844406 C451.48404734 -0.27880204 455.48721109 -0.26440423 459.49079895 -0.2477417 C460.66408249 -0.25381439 461.83736603 -0.25988708 463.04620361 -0.2661438 C473.70360426 -0.18429908 482.59546416 1.61251488 490.49275208 9.14044189 C498.65085003 18.35722432 498.67299941 29.23989037 498.68025208 40.95294189 C498.69249817 41.9822583 498.70474426 43.01157471 498.71736145 44.07208252 C498.73730487 54.58226534 497.83181693 65.19027925 490.54743958 73.30841064 C481.59077708 81.8749746 472.99816431 82.58840043 460.93025208 82.32794189 C459.13104309 82.30763916 459.13104309 82.30763916 457.29548645 82.28692627 C454.36076329 82.2518499 451.42700325 82.20269616 448.49275208 82.14044189 C448.56575303 83.00440962 448.56575303 83.00440962 448.64022875 83.88583124 C451.52592703 118.03939442 454.40726081 152.1933228 457.28294429 186.34773066 C457.62840185 190.45067484 457.97389579 194.55361595 458.31941223 198.65655518 C458.38819637 199.47336052 458.45698051 200.29016586 458.52784902 201.13172288 C459.64099659 214.34921089 460.75709001 227.56644856 461.87427646 240.78359573 C463.0209443 254.35031288 464.16443635 267.91729502 465.30499411 281.48452723 C466.00861253 289.85305784 466.7146934 298.22137312 467.42394722 306.58942802 C467.91037896 312.33136306 468.39371966 318.07355311 468.87465727 323.81595092 C469.15202722 327.12666231 469.43119075 330.43719601 469.7131176 333.74752426 C470.01913877 337.34330263 470.31999015 340.93947828 470.61958313 344.53579712 C470.70907494 345.57278854 470.79856675 346.60977996 470.89077044 347.67819536 C471.39811229 353.84826264 471.59953743 359.95009799 471.49275208 366.14044189 C472.55792053 366.1156073 472.55792053 366.1156073 473.64460754 366.090271 C476.55219738 366.02666571 479.45971123 365.99036154 482.36775208 365.95294189 C483.88755676 365.91523682 483.88755676 365.91523682 485.43806458 365.87677002 C495.77151991 365.77740987 504.55459806 367.62461349 512.30525208 374.82403564 C520.73023255 383.54740084 521.00762169 393.8102797 520.938797 405.38970947 C520.9302782 407.57125113 520.95915056 409.75017228 520.99079895 411.93145752 C521.04839598 423.22649232 519.48993164 433.02176205 511.42634583 441.48419189 C505.35137154 446.68780623 498.92446039 448.25842627 491.08073425 448.28761292 C490.43917094 448.2912896 489.79760762 448.29496629 489.136603 448.29875439 C486.98887239 448.30975883 484.84119021 448.31362957 482.69343567 448.31744385 C481.15243884 448.32371105 479.61144351 448.33035808 478.07044983 448.33735657 C473.01070706 448.35837235 467.95096409 448.36875799 462.89118958 448.37872314 C461.14674997 448.38277191 459.40231053 448.38688886 457.65787125 448.39107323 C449.4598143 448.41012101 441.26176632 448.42435179 433.0636915 448.4326852 C423.6140211 448.44245044 414.16458539 448.46875301 404.71499765 448.50918609 C397.40271733 448.53939542 390.09050409 448.55415871 382.7781626 448.55746621 C378.4149182 448.55981158 374.05192462 448.56870467 369.68874741 448.59392738 C365.57973774 448.61729707 361.47114247 448.62140589 357.36208344 448.611166 C355.86013786 448.61067265 354.35817127 448.61693345 352.85628891 448.63072205 C343.19088672 448.71444029 335.04866301 447.98425943 326.90681458 442.35137939 C317.21246155 432.40302585 316.31395747 421.24452341 316.30525208 407.89044189 C316.29300598 406.91719971 316.28075989 405.94395752 316.2681427 404.94122314 C316.24546322 393.55612348 317.55374731 383.42996007 324.91853333 374.39044189 C331.82957746 367.53084474 341.45935534 365.96964579 350.829422 365.87237549 C354.38815156 365.89834393 357.93676731 365.99676574 361.49275208 366.14044189 C361.33806237 365.6040166 361.18337267 365.0675913 361.0239954 364.5149107 C360.39734786 361.71401897 360.18836486 359.01348112 359.99285889 356.14894104 C359.90734268 354.9205954 359.82182648 353.69224976 359.73371887 352.42668152 C359.6428136 351.06735797 359.55199627 349.70802855 359.46125793 348.34869385 C359.36287065 346.91396181 359.26419488 345.47924954 359.16525269 344.04455566 C358.89711297 340.1400569 358.6338582 336.23524396 358.37206721 332.33031487 C358.2073889 329.87563873 358.04185135 327.42102197 357.87605476 324.96642113 C357.35476377 317.24534226 356.83642039 309.52407389 356.32231134 301.80251342 C355.7343328 292.97173413 355.13698605 284.14165901 354.53099531 275.31209785 C354.06022653 268.44413967 353.5982418 261.57562272 353.14241129 254.70665711 C352.87157031 250.62801028 352.59748758 246.5496562 352.31414604 242.47185707 C350.41405153 215.05107406 349.33083124 187.58911534 351.49275208 160.14044189 C351.37383606 160.76982666 351.25492004 161.39921143 351.13240051 162.04766846 C344.53128673 196.07440417 331.74327761 228.30680635 319.8997345 260.77648926 C316.36662087 270.46951469 312.87676081 280.17788539 309.39094543 289.88800049 C306.75828732 297.22127066 304.11268317 304.54985307 301.46636963 311.87820435 C299.65983837 316.88580458 297.86598618 321.897393 296.0965271 326.91821289 C295.41262977 328.85449528 294.72257523 330.7884406 294.02961731 332.72149658 C293.2568484 334.87939405 292.49450224 337.04107879 291.74690247 339.20782471 C288.21931263 348.95723185 282.73414269 358.35896971 273.29353333 363.28887939 C267.48281377 365.99734702 262.38197261 367.25547 255.94319153 367.30157471 C254.85468399 367.31118225 253.76617645 367.32078979 252.64468384 367.33068848 C250.89305183 367.33706329 250.89305183 367.33706329 249.10603333 367.34356689 C247.28775276 367.352117 247.28775276 367.352117 245.43273926 367.36083984 C242.86819834 367.3702791 240.30364535 367.37681955 237.73908997 367.38067627 C233.83709752 367.39036284 229.93563619 367.42138973 226.0337677 367.45294189 C223.53702602 367.45947438 221.04028059 367.46472389 218.54353333 367.46856689 C217.38589981 367.4809137 216.2282663 367.4932605 215.03555298 367.50598145 C203.32556993 367.47415692 193.29535099 364.91147423 184.80915833 356.46466064 C174.90593564 344.45218014 170.85066952 326.29327019 165.74275208 311.89044189 C164.90651588 309.54333448 164.06975529 307.19641384 163.23249817 304.84967041 C161.93947686 301.22519458 160.64679906 297.60060005 159.35575867 293.97541809 C155.34546649 282.71494749 151.30225014 271.46648189 147.24961853 260.22119141 C146.12032892 257.08509791 144.9935953 253.94809666 143.86750793 250.81085205 C140.53095959 241.52203243 137.17313896 232.24328314 133.72322083 222.99591064 C125.91313843 201.99381744 119.77930761 181.18271038 115.49275208 159.14044189 C115.59756645 160.56509545 115.59756645 160.56509545 115.70449829 162.01852989 C116.42497909 172.29606439 116.70053765 182.52906471 116.69197083 192.8303833 C116.69206335 193.64433477 116.69215588 194.45828623 116.69225121 195.29690289 C116.67115208 212.81346487 115.70224144 230.21916047 114.47346115 247.68663359 C114.18382868 251.84448763 113.90917779 256.0033368 113.63264465 260.16207886 C113.11151035 267.9672011 112.57774625 275.77140079 112.03892612 283.57531989 C111.42410553 292.48949242 110.82415183 301.40464843 110.22517586 310.31989741 C108.99706474 328.59451799 107.7511637 346.86788401 106.49275208 365.14044189 C107.6496051 365.19885254 108.80645813 365.25726318 109.99836731 365.31744385 C111.53687219 365.40014655 113.07536439 365.4830855 114.61384583 365.56622314 C115.37386902 365.60396851 116.13389221 365.64171387 116.91694641 365.68060303 C127.90428011 366.28755625 136.15697892 368.68887132 143.98884583 376.66387939 C151.02895987 385.2290033 150.95308183 397.30837687 150.80525208 407.82794189 C150.80847473 408.98616455 150.81169739 410.14438721 150.8150177 411.33770752 C150.74661784 422.28790405 149.50436954 431.3721984 142.49275208 440.14044189 C136.04488712 445.73474333 129.39911605 448.38284907 120.84022522 448.40786743 C120.19695306 448.41239854 119.55368089 448.41692966 118.89091563 448.42159808 C116.749331 448.43419276 114.6080023 448.43262494 112.46638489 448.43096924 C110.9250913 448.43695766 109.38380071 448.44376393 107.84251404 448.45132446 C103.66462908 448.46896168 99.4868261 448.47367893 95.30890751 448.47495604 C92.69530198 448.47637971 90.08171714 448.48065344 87.46811676 448.48595047 C78.34024742 448.50444459 69.21243641 448.51262203 60.08454895 448.51104736 C51.59235983 448.50984676 43.1004252 448.53093462 34.60830045 448.56253469 C27.30446218 448.58873897 20.00070681 448.59941289 12.69682193 448.59813654 C8.34032917 448.59762805 3.98406258 448.60324867 -0.37238312 448.62449265 C-4.47323124 448.64394472 -8.57363912 448.64395232 -12.67450333 448.62945938 C-14.173218 448.62737865 -15.67196074 448.63202804 -17.17062759 448.6441803 C-28.15258043 448.72740861 -37.70702682 447.62588373 -46.04240417 439.83966064 C-53.34596781 431.36752682 -53.85677133 420.58217724 -53.82292175 409.91705322 C-53.81977109 407.84318978 -53.84323618 405.77076935 -53.86857605 403.69708252 C-53.92052193 392.76173778 -52.96053368 382.69028554 -44.94084167 374.55059814 C-36.06509695 366.429391 -26.60364445 365.98173018 -15.13224792 366.07794189 C-13.59890808 366.08470947 -13.59890808 366.08470947 -12.03459167 366.09161377 C-9.5254128 366.1033389 -7.01637198 366.12062921 -4.50724792 366.14044189 C-4.45980721 365.00312496 -4.4123665 363.86580803 -4.3634882 362.69402695 C-3.72604013 348.33923566 -2.58661102 334.04346639 -1.37419128 319.72735596 C-1.15701024 317.13332992 -0.94012523 314.53927909 -0.72351074 311.94520569 C-0.26025862 306.40305669 0.20540361 300.86111466 0.67279243 295.31931305 C1.34852096 287.30719667 2.0204755 279.29476715 2.69156437 271.28226098 C3.7809568 258.27659664 4.87332217 245.27118384 5.96760559 232.26593018 C7.02941053 219.64659664 8.08978519 207.02714424 9.14826965 194.40753174 C9.21372083 193.62720637 9.27917201 192.846881 9.34660656 192.04290941 C9.6750086 188.1275133 10.00338288 184.21211486 10.33174336 180.29671526 C13.04777612 147.91092874 15.76865405 115.52555102 18.49275208 83.14044189 C17.38987854 83.12642334 17.38987854 83.12642334 16.26472473 83.11212158 C12.88176058 83.05790912 9.50010457 82.97436218 6.11775208 82.89044189 C4.38331848 82.86917236 4.38331848 82.86917236 2.61384583 82.84747314 C-7.81995431 82.55273303 -16.10901932 80.31377786 -23.81584167 73.07403564 C-29.49463601 66.5821114 -30.66135668 59.60656342 -30.74552917 51.22637939 C-30.75360092 50.4566983 -30.76167267 49.68701721 -30.76998901 48.89401245 C-30.78379808 47.26507801 -30.7945344 45.63611503 -30.80241394 44.00714111 C-30.81389581 42.35666302 -30.83428723 40.70622093 -30.86393738 39.05596924 C-31.07518414 27.28515776 -30.82898223 16.80496126 -22.34709167 7.67559814 C-15.80796622 2.21938519 -8.3857638 0.02630084 0 0 Z " fill="#00AEEF" transform="translate(191.5072479248047,1059.8595581054688)"/>
<path d="M0 0 C0.88813448 -0.00311998 1.77626896 -0.00623996 2.6913166 -0.00945449 C5.65625851 -0.01740739 8.6209942 -0.01112101 11.5859375 -0.00482178 C13.71711344 -0.00753315 15.84828844 -0.0110949 17.97946167 -0.01544189 C23.76555427 -0.02455957 29.55157552 -0.02102181 35.33766937 -0.01468372 C41.41277759 -0.00961004 47.48787981 -0.01431996 53.56298828 -0.01745605 C63.78191213 -0.02109614 74.0008071 -0.0163001 84.21972656 -0.0067749 C95.98178571 0.00406313 107.74377527 0.00061824 119.50583267 -0.01042771 C129.63534255 -0.01955527 139.76483166 -0.02075793 149.89434433 -0.01555037 C155.92957444 -0.01245454 161.96477207 -0.01195392 168 -0.01862335 C173.69309803 -0.02447442 179.38610822 -0.02026069 185.07919693 -0.00883484 C187.14973938 -0.00622715 189.22028944 -0.0068851 191.2908287 -0.01136017 C236.04939469 -0.09904457 275.97059229 7.18101497 309.2109375 39.12896729 C338.70909886 69.87827415 351.77153684 112.78665098 351.109375 154.84381104 C349.91543702 198.05066498 335.18220626 239.07456984 304.328125 269.88287354 C272.85433615 299.03806038 232.17298108 304.47962795 190.875 304.35162354 C189.07896972 304.34975354 187.28293893 304.34833239 185.48690796 304.34733582 C180.80829405 304.34355638 176.12971225 304.33376635 171.45111084 304.32263184 C165.8115607 304.31049809 160.1719997 304.30599366 154.53244019 304.30017853 C146.00858378 304.29055118 137.4847975 304.27136292 128.9609375 304.25396729 C128.9609375 324.71396729 128.9609375 345.17396729 128.9609375 366.25396729 C136.5509375 366.25396729 144.1409375 366.25396729 151.9609375 366.25396729 C161.53564326 368.26546009 168.57562924 370.91963314 174.26171875 379.13287354 C179.04863436 387.74932163 179.28450651 397.57231944 179.2109375 407.19146729 C179.21867187 408.19886963 179.22640625 409.20627197 179.234375 410.24420166 C179.20594339 421.29698837 178.20340879 431.47381631 170.9609375 440.25396729 C164.34746463 445.96829178 157.68102446 448.49735519 148.92877197 448.52139282 C147.90261044 448.52818949 147.90261044 448.52818949 146.85571837 448.53512347 C144.57594302 448.54772808 142.29640778 448.54614967 140.01660156 448.54449463 C138.37678726 448.55048242 136.73697577 448.55728854 135.09716797 448.56484985 C130.65069752 448.5824933 126.20430408 448.58720458 121.75780201 448.58848143 C118.97668727 448.58990472 116.19559201 448.59417774 113.41448212 448.59947586 C103.70306662 448.6179719 93.99170597 448.62614716 84.28027344 448.62457275 C75.24277501 448.62337204 66.20551566 448.64446172 57.16807771 448.67606008 C49.39715273 448.70225723 41.62630567 448.71293858 33.8553369 448.71166193 C29.2193929 448.71115324 24.58366136 448.71678508 19.94776154 448.73801804 C15.5842736 448.75745803 11.22119952 448.75748576 6.85769653 448.74298477 C5.26222882 448.74090257 3.66673481 448.74556225 2.07131195 448.75770569 C-7.85535348 448.82832773 -16.25394671 448.25635857 -24.625 442.46490479 C-25.21539063 441.85904541 -25.80578125 441.25318604 -26.4140625 440.62896729 C-27.32285156 439.74338135 -27.32285156 439.74338135 -28.25 438.83990479 C-34.50531102 429.79838537 -34.66977692 420.8676063 -34.56054688 410.24078369 C-34.53910172 407.75850747 -34.5604238 405.27912439 -34.5859375 402.79693604 C-34.60565152 391.72251352 -33.65997493 382.18207729 -25.734375 373.71881104 C-14.23996849 363.78700817 1.88652533 366.25396729 15.9609375 366.25396729 C15.9609375 272.53396729 15.9609375 178.81396729 15.9609375 82.25396729 C7.3809375 82.25396729 -1.1990625 82.25396729 -10.0390625 82.25396729 C-26.7204522 76.18800739 -26.7204522 76.18800739 -31.4765625 67.06646729 C-33.84561751 61.85029684 -34.22014451 57.03464051 -34.27734375 51.33990479 C-34.2854155 50.57022369 -34.29348724 49.8005426 -34.30180359 49.00753784 C-34.31561266 47.3786034 -34.32634898 45.74964042 -34.33422852 44.1206665 C-34.34571038 42.47018841 -34.36610181 40.81974632 -34.39575195 39.16949463 C-34.60922284 27.27475382 -34.32399125 16.91006229 -25.73828125 7.71881104 C-18.44048261 1.42760531 -9.30280905 -0.0506189 0 0 Z M128.9609375 88.25396729 C128.9609375 130.49396729 128.9609375 172.73396729 128.9609375 216.25396729 C175.72413235 219.55708649 175.72413235 219.55708649 218.9609375 203.25396729 C219.64671875 202.7035376 220.3325 202.15310791 221.0390625 201.58599854 C231.96151529 191.8099864 237.23143414 175.78615768 238.13793945 161.45587158 C238.59189444 140.13807315 238.04425879 120.10130529 222.8984375 103.37896729 C198.73840058 81.02682429 156.99207742 88.25396729 128.9609375 88.25396729 Z " fill="#00AEEF" transform="translate(2299.0390625,1059.7460327148438)"/>
<path d="M0 0 C2.19516154 -0.00456867 4.39032166 -0.00987627 6.58547974 -0.0158844 C11.17309399 -0.02478843 15.76053392 -0.0224235 20.34814453 -0.01245117 C26.19728946 -0.00096911 32.04582996 -0.02117574 37.89489555 -0.05036831 C42.42481239 -0.06880544 46.95458642 -0.06842283 51.4845314 -0.06273079 C53.63967867 -0.06257847 55.79483618 -0.06854783 57.94994736 -0.08102226 C84.60882531 -0.21360931 84.60882531 -0.21360931 94.5078125 7.12109375 C104.72990535 17.29245661 104.71203699 30.70058288 104.76086903 44.25690651 C104.76003023 47.26116502 104.74951562 50.26529495 104.73828125 53.26953125 C104.73708573 55.39686047 104.73663707 57.52419023 104.7368927 59.65151978 C104.7353345 64.10120982 104.72710254 68.55081867 104.71362305 73.00048828 C104.69673859 78.63888445 104.69280638 84.27719087 104.69356823 89.91560936 C104.69329296 94.31032126 104.68775377 98.70501443 104.68056679 103.09972 C104.67743392 105.1748503 104.67542567 107.24998268 104.67467308 109.3251152 C104.66399738 123.38683943 104.26543814 137.39195615 103.5078125 151.43359375 C103.97872818 150.95578964 104.44964386 150.47798553 104.93482971 149.98570251 C105.55776413 149.35741043 106.18069855 148.72911835 106.82250977 148.08178711 C107.43780045 147.459608 108.05309113 146.83742889 108.68702698 146.19639587 C131.089089 124.50773346 164.55857939 117.89750987 194.49536133 118.07983398 C231.44699812 118.81629827 262.52114176 132.39068657 289.5078125 157.43359375 C290.10207031 157.96210937 290.69632813 158.490625 291.30859375 159.03515625 C301.48015104 168.50271554 309.16940658 181.19824689 315.5078125 193.43359375 C315.84409668 194.08021973 316.18038086 194.7268457 316.52685547 195.39306641 C340.27871318 241.74767832 342.82523074 301.01849579 327.57080078 350.45336914 C319.97519314 373.9404379 308.65052526 394.59174915 291.5078125 412.43359375 C291.06743652 412.90506836 290.62706055 413.37654297 290.17333984 413.86230469 C282.67716454 421.87734569 274.72351672 428.47819861 265.5078125 434.43359375 C263.89326172 435.48160156 263.89326172 435.48160156 262.24609375 436.55078125 C247.36018502 445.60564171 230.58709169 451.26308517 213.5078125 454.43359375 C211.77144531 454.77003906 211.77144531 454.77003906 210 455.11328125 C180.05114029 460.00425834 146.0357666 456.40562398 120.76953125 438.4921875 C111.79187543 431.53075787 104.73463523 423.92949842 98.5078125 414.43359375 C98.36085938 415.47257812 98.21390625 416.5115625 98.0625 417.58203125 C96.59439435 427.0621243 94.97610263 435.74928787 87.328125 442.30078125 C81.51432376 446.39197471 75.93352044 448.66763448 68.75292969 448.72412109 C67.64447693 448.7368808 66.53602417 448.7496405 65.39398193 448.76278687 C63.61728119 448.76612534 63.61728119 448.76612534 61.8046875 448.76953125 C60.57171936 448.77618805 59.33875122 448.78284485 58.06842041 448.78970337 C55.46278369 448.79981455 52.85712116 448.80452087 50.25146484 448.80419922 C46.28569315 448.80856307 42.32104304 448.84487621 38.35546875 448.8828125 C35.81771212 448.88868295 33.27995023 448.89265081 30.7421875 448.89453125 C29.56581726 448.90890228 28.38944702 448.92327332 27.1774292 448.93807983 C18.38705537 448.88983141 9.63313204 447.34948427 2.88671875 441.1796875 C-3.20565354 433.46498378 -5.61877914 425.02877345 -5.61523533 415.35416603 C-5.61722638 414.15089845 -5.61921743 412.94763088 -5.62126881 411.70790064 C-5.61835597 410.39467337 -5.61544313 409.08144611 -5.61244202 407.72842407 C-5.61287825 406.31256382 -5.61375413 404.89670365 -5.61503118 403.4808439 C-5.61726583 399.59505141 -5.61326893 395.70928651 -5.60825312 391.82349753 C-5.60393404 387.6313348 -5.60539608 383.43917361 -5.6061554 379.24700928 C-5.6066797 371.98540503 -5.6035426 364.72380978 -5.59791756 357.46220779 C-5.58978999 346.96315453 -5.58718604 336.46410562 -5.58592957 325.96504955 C-5.58374103 308.93096156 -5.5770863 291.89687836 -5.56762695 274.86279297 C-5.55844772 258.31591821 -5.55136938 241.76904476 -5.54711914 225.22216797 C-5.54685642 224.20219182 -5.54659369 223.18221568 -5.54632301 222.13133116 C-5.54501797 217.01440261 -5.54375426 211.89747404 -5.54251111 206.78054547 C-5.53214466 164.33155825 -5.51453171 121.88257625 -5.4921875 79.43359375 C-6.72630371 79.44664551 -7.96041992 79.45969727 -9.23193359 79.47314453 C-10.86816214 79.48370084 -12.50439277 79.49393791 -14.140625 79.50390625 C-15.35770142 79.51804565 -15.35770142 79.51804565 -16.59936523 79.5324707 C-25.59244962 79.57353502 -32.64908396 77.9434841 -39.73828125 72.171875 C-48.60880408 63.38037687 -49.49623666 52.05897796 -49.6796875 40.18359375 C-49.54305094 27.77450972 -48.70488657 16.88303349 -39.70703125 7.58984375 C-28.64165566 -1.68053251 -13.52238102 -0.0246988 0 0 Z M126.5078125 223.43359375 C125.89292969 223.88347656 125.27804687 224.33335937 124.64453125 224.796875 C111.63657167 235.03595627 104.44071143 253.13292749 101.88671875 269.078125 C98.96269757 294.97229191 100.68169568 321.63403918 116.9453125 343.24609375 C118.11653312 344.65561467 119.30329748 346.05241653 120.5078125 347.43359375 C121.00539063 348.036875 121.50296875 348.64015625 122.015625 349.26171875 C131.94140603 360.3347006 146.84100075 365.5490296 161.34375 366.4296875 C179.0116393 366.45149971 193.42599292 360.01191323 206.2578125 348.12109375 C218.69888333 334.99546639 225.81419927 315.40973654 226.5078125 297.43359375 C226.58515625 295.73589844 226.58515625 295.73589844 226.6640625 294.00390625 C227.23738852 269.8764363 221.85204445 245.63595986 204.8203125 227.68359375 C193.55226788 216.72009088 179.77175521 210.58164281 163.8828125 210.12109375 C149.88608774 210.74202054 137.70767687 215.00661649 126.5078125 223.43359375 Z " fill="#00AEEF" transform="translate(1140.4921875,1059.56640625)"/>
<path d="M0 0 C1.27228455 -0.00671722 2.54456909 -0.01343445 3.85540771 -0.02035522 C7.33497111 -0.03797176 10.81443604 -0.04270883 14.29403973 -0.0439868 C16.47212169 -0.04541172 18.6501789 -0.04968783 20.8282547 -0.05498123 C28.43890461 -0.07346899 36.04948462 -0.08165365 43.66015625 -0.08007812 C50.73454581 -0.07887791 57.8086297 -0.09995969 64.88294196 -0.13156545 C70.9723553 -0.15779342 77.06166922 -0.16844266 83.15113854 -0.16716731 C86.78106206 -0.16665947 90.41071391 -0.17224273 94.04058075 -0.19352341 C98.09497153 -0.21664502 102.14868605 -0.20734528 106.203125 -0.1953125 C107.39204346 -0.20655151 108.58096191 -0.21779053 109.8059082 -0.22937012 C119.3037058 -0.15795875 127.7021577 1.83282595 134.82519531 8.45068359 C142.48079707 17.62571776 142.56333903 27.59511686 142.61035156 38.97802734 C142.64128906 40.82170898 142.64128906 40.82170898 142.67285156 42.70263672 C142.7204051 53.84799716 141.25604382 63.00742962 133.36035156 71.29052734 C127.357769 76.60362407 121.27843888 78.34035687 113.36035156 79.29052734 C113.36035156 82.78251758 113.61992012 84.55687868 114.69873047 87.74389648 C115.14226364 89.06926926 115.14226364 89.06926926 115.59475708 90.42141724 C116.08587479 91.85902908 116.08587479 91.85902908 116.58691406 93.32568359 C117.09603836 94.84039749 117.09603836 94.84039749 117.615448 96.38571167 C118.34971746 98.56853966 119.08664745 100.75047409 119.82592773 102.93161011 C121.78976269 108.7268151 123.73373209 114.52868924 125.68066406 120.32958984 C126.07614441 121.50611618 126.47162476 122.68264252 126.87908936 123.89482117 C132.05362154 139.30269782 137.06872104 154.76192418 142.06524658 170.22825623 C143.70965298 175.30995449 145.38679891 180.37957328 147.08691406 185.44287109 C152.46166704 201.55335405 156.71625933 217.36565064 158.09667969 234.33496094 C158.1592955 236.29156475 158.1592955 236.29156475 159.36035156 237.29052734 C159.58585693 236.2207666 159.58585693 236.2207666 159.81591797 235.12939453 C160.53047425 231.76455277 161.25792582 228.40260952 161.98535156 225.04052734 C162.33919922 223.36023437 162.33919922 223.36023437 162.70019531 221.64599609 C167.30771983 200.49863999 174.60481435 179.9671927 181.19617081 159.37405777 C183.16048726 153.2351551 185.12089396 147.09500152 187.08208275 140.95509911 C187.81012623 138.67601529 188.5383957 136.39700377 189.26667786 134.11799622 C192.07589664 125.32523711 194.87455566 116.52923282 197.65722656 107.72802734 C197.96752304 106.74686447 198.27781952 105.7657016 198.59751892 104.75480652 C199.98964099 100.35118984 201.37954069 95.94688449 202.7668457 91.54174805 C203.24198124 90.03742116 203.71715724 88.53310704 204.19238281 87.02880859 C204.40171448 86.36143677 204.61104614 85.69406494 204.82672119 85.00646973 C205.56026625 82.68789201 206.2708633 80.46950388 207.36035156 78.29052734 C206.73128906 78.26474609 206.10222656 78.23896484 205.45410156 78.21240234 C195.39238429 77.54566204 189.95483004 74.44077804 183.12207031 67.09521484 C177.81461671 58.64565456 177.89555573 49.49845446 177.98535156 39.79052734 C177.97375 38.53626953 177.96214844 37.28201172 177.95019531 35.98974609 C177.98473424 24.99485423 179.35500936 15.36782768 187.36035156 7.29052734 C195.42674938 0.96299373 203.07374342 -0.00822036 213.08203125 0 C214.25678009 -0.00671722 215.43152893 -0.01343445 216.64187622 -0.02035522 C220.52203615 -0.03933886 224.4020231 -0.04325979 228.28222656 -0.04541016 C229.62363002 -0.04825865 230.96503279 -0.05145081 232.30643463 -0.05498123 C239.33353892 -0.07346581 246.36056752 -0.08165408 253.38769531 -0.08007812 C259.91677983 -0.0788781 266.44553304 -0.09995684 272.9745338 -0.13156545 C278.59686089 -0.15780527 284.21908032 -0.16844217 289.8414681 -0.16716731 C293.19200804 -0.16665979 296.54202001 -0.17409171 299.89253998 -0.19352341 C303.63566779 -0.21319771 307.37795129 -0.20733828 311.12109375 -0.1953125 C312.21650482 -0.20655151 313.31191589 -0.21779053 314.44052124 -0.22937012 C323.78544786 -0.1533773 331.93941005 2.09349492 338.89550781 8.59130859 C341.41549749 11.51449662 343.02409313 14.68706266 344.36035156 18.29052734 C344.71871094 19.24443359 345.07707031 20.19833984 345.44628906 21.18115234 C347.05453031 27.00200815 346.68851767 33.11544134 346.67285156 39.10302734 C346.68896484 40.323125 346.70507812 41.54322266 346.72167969 42.80029297 C346.72755265 53.72988464 345.31387612 63.26551043 337.36035156 71.29052734 C329.65697241 77.33329781 321.92834522 78.64358115 312.36035156 79.29052734 C312.20699341 80.52270996 312.20699341 80.52270996 312.05053711 81.77978516 C311.23897839 85.90791192 309.86618424 89.56320148 308.31738281 93.46240234 C308.00166321 94.27181778 307.6859436 95.08123322 307.36065674 95.91517639 C306.66912042 97.68695455 305.97507324 99.45775426 305.27883911 101.22769165 C303.33990587 106.15894123 301.42142948 111.09815164 299.50097656 116.03662109 C299.08876358 117.09543991 298.6765506 118.15425873 298.25184631 119.24516296 C293.22863467 132.16728649 288.32838704 145.13589066 283.42285156 158.10302734 C281.54329885 163.06811954 279.66302558 168.03293838 277.78222656 172.99755859 C277.32231323 174.21156342 276.8623999 175.42556824 276.3885498 176.67636108 C272.01083616 188.22498749 267.59695429 199.75960691 263.17285156 211.29052734 C257.44228703 226.22763524 251.73686005 241.17397016 246.05947876 256.13137817 C237.21275613 279.43842727 228.34908794 302.73878798 219.39257812 326.00390625 C218.08168899 329.4103411 216.77612439 332.81872033 215.4765625 336.22949219 C204.49984842 365.0254146 192.51079864 391.26029979 170.36035156 413.29052734 C169.47863281 414.17224609 168.59691406 415.05396484 167.68847656 415.96240234 C160.55541956 422.75779985 152.73179565 428.16137733 144.36035156 433.29052734 C143.78365723 433.64888672 143.20696289 434.00724609 142.61279297 434.37646484 C127.34687727 443.69809142 108.98875895 449.56427364 91.36035156 452.29052734 C89.44996094 452.59410156 89.44996094 452.59410156 87.50097656 452.90380859 C56.88508042 457.25499748 11.21390666 457.17040442 -15.24511719 438.44677734 C-21.35864059 433.39267215 -24.25628143 428.59924137 -25.51464844 420.72802734 C-26.25101432 408.92864078 -21.77191748 398.59726298 -17.32714844 387.91552734 C-16.8653418 386.79791016 -16.40353516 385.68029297 -15.92773438 384.52880859 C-11.76276451 374.83473239 -6.65109677 365.12207379 3.61035156 360.97802734 C12.69660816 359.31221363 20.81514589 360.82262904 29.73535156 362.79052734 C52.75111875 367.50702033 74.36548114 366.94917579 94.57910156 353.85302734 C99.36550642 350.15825868 103.22420295 344.94098497 105.36035156 339.29052734 C104.89610886 334.52633877 103.36665257 330.36573377 101.54394531 325.98193359 C101.25621246 325.27589493 100.96847961 324.56985626 100.67202759 323.84242249 C99.71984817 321.51016954 98.75889417 319.18164048 97.79785156 316.85302734 C97.12014546 315.19813827 96.44299115 313.54302313 95.76635742 311.88769531 C93.99074379 307.54794746 92.20779749 303.2112502 90.42321777 298.87518311 C88.73374447 294.76675736 87.05111572 290.65553407 85.36816406 286.54443359 C82.37903099 279.24551907 79.38383774 271.94911034 76.38578796 264.65385437 C73.04046346 256.51329669 69.70007019 248.37071951 66.36016846 240.22793579 C65.35826478 237.78544006 64.35616752 235.34302385 63.35400391 232.90063477 C60.38039582 225.65349424 57.40732391 218.40613642 54.43728638 211.15753174 C52.80787253 207.18086721 51.17799479 203.20439294 49.54785156 199.22802734 C49.2213562 198.43160828 48.89486084 197.63518921 48.55847168 196.81463623 C43.88678664 185.42171393 39.19283289 174.03814583 34.48608398 162.65966797 C30.43767974 152.87263275 26.39670636 143.08253776 22.36035156 133.29052734 C21.90825317 132.19387756 21.45615479 131.09722778 20.99035645 129.96734619 C18.18265895 123.15427485 15.38088841 116.3388074 12.58605957 109.52044678 C11.69106522 107.33885256 10.79451835 105.15789456 9.8963623 102.9776001 C8.64830387 99.94692686 7.40595972 96.91397257 6.16503906 93.88037109 C5.79307404 92.98046951 5.42110901 92.08056793 5.03787231 91.15339661 C4.69811371 90.31942856 4.3583551 89.48546051 4.00830078 88.6262207 C3.71253143 87.90558945 3.41676208 87.18495819 3.11203003 86.44248962 C2.28730249 84.0813969 1.79843763 81.75021105 1.36035156 79.29052734 C0.46574219 79.26474609 -0.42886719 79.23896484 -1.35058594 79.21240234 C-11.54211962 78.73433467 -20.41037524 77.27880599 -28.10449219 70.13037109 C-35.76009394 60.95533693 -35.8426359 50.98593783 -35.88964844 39.60302734 C-35.92058594 37.7593457 -35.92058594 37.7593457 -35.95214844 35.87841797 C-35.9990185 24.89324736 -34.63830358 15.36108051 -26.63964844 7.29052734 C-18.28050741 0.73335683 -10.35695169 -0.00784221 0 0 Z " fill="#00AEEF" transform="translate(4015.6396484375,1185.70947265625)"/>
<path d="M0 0 C16.39279581 14.35919633 26.48664685 32.68119801 31.8125 53.625 C32.10483521 54.77367554 32.10483521 54.77367554 32.40307617 55.94555664 C35.402406 68.61306556 36.2975266 81.14570448 36.22705078 94.12670898 C36.22648477 95.61658724 36.22680692 97.10646606 36.22793579 98.59634399 C36.2285029 102.5891806 36.21685419 106.58189377 36.20278788 110.57470202 C36.19017195 114.7666781 36.18910155 118.95865789 36.18673706 123.15065002 C36.18055388 131.06564607 36.16418649 138.98058599 36.14403808 146.89555746 C36.12157985 155.91628199 36.11066085 164.93700939 36.10064721 173.95775497 C36.07981697 192.49270164 36.04470341 211.02759629 36 229.5625 C36.8053418 229.55379883 37.61068359 229.54509766 38.44042969 229.53613281 C39.50680664 229.52936523 40.57318359 229.52259766 41.671875 229.515625 C42.7247168 229.50692383 43.77755859 229.49822266 44.86230469 229.48925781 C53.27208986 229.68556466 61.62903267 231.53383734 67.9453125 237.35546875 C76.80894946 246.94228948 77.19805139 256.67194289 77.25 269.25 C77.2809375 271.09368164 77.2809375 271.09368164 77.3125 272.97460938 C77.35941228 283.96967409 75.99290967 293.47958009 68 301.5625 C60.30712565 307.70741792 52.58769503 308.8625464 43.01660156 308.85302734 C42.0383844 308.85974457 41.06016724 308.86646179 40.05230713 308.87338257 C36.83169414 308.89231547 33.61129012 308.89628455 30.390625 308.8984375 C28.14011552 308.9048692 25.88960687 308.91159783 23.63909912 308.91860962 C18.92506981 308.930571 14.21111372 308.93429166 9.49707031 308.93310547 C3.47725377 308.93290247 -2.5420897 308.96019085 -8.56179428 308.99464989 C-13.21000291 309.01696518 -17.85809859 309.02094157 -22.50635529 309.01988602 C-24.72456745 309.02223552 -26.94278303 309.0310221 -29.16094208 309.04655075 C-56.15800949 309.21784001 -56.15800949 309.21784001 -64.65625 301.3125 C-70.72374552 293.41064537 -73.11822312 285.22314166 -73.13803101 275.43626404 C-73.14085229 274.72992059 -73.14367357 274.02357715 -73.14658034 273.29582936 C-73.1548968 270.93475718 -73.15626207 268.57373209 -73.15771484 266.21264648 C-73.16238539 264.51711394 -73.16752935 262.82158265 -73.17311096 261.12605286 C-73.18437909 257.4762172 -73.19281961 253.82638965 -73.19923019 250.17654228 C-73.20993124 244.39696611 -73.23018316 238.61744804 -73.25234985 232.83790588 C-73.31419869 216.4032763 -73.36822408 199.96864995 -73.40136719 183.53393555 C-73.41975461 174.45588223 -73.44874352 165.3779262 -73.4893719 156.29994446 C-73.51037549 151.50077999 -73.52588969 146.70173778 -73.52817917 141.90252495 C-73.53033808 137.38229811 -73.54633332 132.86232564 -73.57256889 128.34217644 C-73.57971662 126.69113063 -73.58188506 125.04005386 -73.57846642 123.38899612 C-73.55578631 110.34330365 -74.16370266 96.99527123 -83 86.5625 C-92.79239875 78.53539763 -103.75377549 77.72933354 -116 78.5625 C-131.94503362 80.76372854 -145.62672649 88.44929342 -155.625 101.0625 C-172.89796361 125.32399483 -176.94059216 153.19330658 -177.31640625 182.296875 C-177.33704127 183.66978486 -177.3580391 185.0426893 -177.37937927 186.41558838 C-177.43392548 189.98612007 -177.48362488 193.55670244 -177.53222656 197.12731934 C-177.58294222 200.78804909 -177.63836381 204.44870749 -177.69335938 208.109375 C-177.80011261 215.26035452 -177.9017326 222.41139841 -178 229.5625 C-176.7919873 229.54944824 -176.7919873 229.54944824 -175.55957031 229.53613281 C-174.49319336 229.52936523 -173.42681641 229.52259766 -172.328125 229.515625 C-171.2752832 229.50692383 -170.22244141 229.49822266 -169.13769531 229.48925781 C-159.59937053 229.71190778 -150.97574266 232.14222259 -144.25 239.125 C-137.09197588 248.20163606 -136.38254711 257.90406681 -136.5625 269.125 C-136.55541016 270.37474609 -136.54832031 271.62449219 -136.54101562 272.91210938 C-136.61594328 283.88036547 -138.03003081 293.5027789 -146 301.5625 C-154.89552198 308.66806939 -163.75744032 308.86072251 -174.76293945 308.85302734 C-176.1565995 308.85901874 -177.55025625 308.86582568 -178.94390869 308.87338257 C-182.71472442 308.89098787 -186.48544926 308.89573563 -190.25630212 308.89701414 C-192.61647174 308.89843943 -194.97661853 308.90271616 -197.33678246 308.90800858 C-205.58285352 308.9264909 -213.82886008 308.93468146 -222.07495117 308.93310547 C-229.74181445 308.93190462 -237.40839597 308.95300036 -245.07518798 308.9845928 C-251.67417029 309.0108088 -258.27306087 309.02147054 -264.87209481 309.02019465 C-268.80604391 309.01968657 -272.73974242 309.02528392 -276.6736393 309.04655075 C-280.37643947 309.06602331 -284.07875231 309.06599685 -287.78157043 309.05151749 C-289.77393476 309.04845504 -291.76629961 309.06504256 -293.7585907 309.08239746 C-304.30889938 309.00906112 -312.51606686 306.80451005 -320.30859375 299.5 C-325.50882173 293.54315686 -327.15621013 286.92585939 -327.23828125 279.18359375 C-327.25038887 278.09353783 -327.25038887 278.09353783 -327.26274109 276.98146057 C-327.27656694 275.44070812 -327.28729581 273.89992524 -327.29516602 272.35913086 C-327.3066306 270.79881685 -327.32699408 269.23854033 -327.35668945 267.6784668 C-327.55545947 257.22804976 -326.79472919 248.98434939 -321.375 239.8125 C-311.06827861 230.04823763 -300.72146665 229.5625 -287 229.5625 C-287 175.4425 -287 121.3225 -287 65.5625 C-291.29 65.5625 -295.58 65.5625 -300 65.5625 C-309.12351275 64.38527255 -317.31949424 62.24300576 -324 55.5625 C-330.34636358 46.57796783 -331.36602279 36.88536988 -331.25 26.125 C-331.24250732 25.20630127 -331.23501465 24.28760254 -331.22729492 23.34106445 C-331.04818638 12.04922147 -330.08772794 3.16861525 -322.2109375 -5.37890625 C-314.85651383 -12.39637426 -306.90131099 -13.89202862 -296.97314453 -13.84155273 C-296.01414246 -13.84841599 -295.05514038 -13.85527924 -294.06707764 -13.86235046 C-290.92216852 -13.88053149 -287.77776248 -13.87679303 -284.6328125 -13.87109375 C-282.43000122 -13.87565998 -280.22719136 -13.88096687 -278.02438354 -13.88697815 C-273.41642455 -13.89589242 -268.80863902 -13.89350556 -264.20068359 -13.88354492 C-258.3176553 -13.87206257 -252.43522792 -13.89226463 -246.55227852 -13.92146206 C-242.00528202 -13.93987566 -237.45842811 -13.93952121 -232.91140366 -13.93382454 C-230.74343905 -13.93367193 -228.57546441 -13.93966594 -226.40753555 -13.95211601 C-199.80953291 -14.08335048 -199.80953291 -14.08335048 -191.34375 -6.18359375 C-185.38521863 1.55903277 -183.04503192 9.79450903 -182.68359375 19.3984375 C-182.62075195 20.99365234 -182.62075195 20.99365234 -182.55664062 22.62109375 C-182.51732422 23.71550781 -182.47800781 24.80992188 -182.4375 25.9375 C-182.39431641 27.05511719 -182.35113281 28.17273437 -182.30664062 29.32421875 C-182.20102589 32.07020199 -182.0989203 34.81626881 -182 37.5625 C-181.56171875 36.85867188 -181.1234375 36.15484375 -180.671875 35.4296875 C-162.95632377 7.84815856 -137.05438745 -11.08969057 -105 -18.4375 C-70.10919593 -25.97927018 -28.86912893 -22.71735076 0 0 Z " fill="#00AEEF" transform="translate(3349,1199.4375)"/>
<path d="M0 0 C0.92554688 0.70382812 1.85109375 1.40765625 2.8046875 2.1328125 C20.09108905 15.71140618 33.31745139 31.90865713 44 51 C44.60585937 52.0621875 45.21171875 53.124375 45.8359375 54.21875 C66.61702758 92.95996771 68.82049926 140.87183102 56.6875 182.60546875 C53.51769761 192.96477436 49.17513255 202.50147008 44 212 C43.43410156 213.05832031 42.86820313 214.11664062 42.28515625 215.20703125 C20.40386201 254.49039008 -18.82538716 280.17517202 -61.1875 292.6875 C-114.08929756 307.53107126 -172.83893274 301.41535753 -220.98046875 274.921875 C-233.5658418 267.74403415 -244.65764998 259.10829401 -255 249 C-255.92167969 248.14019531 -256.84335937 247.28039063 -257.79296875 246.39453125 C-269.12255825 235.57629134 -277.79652828 222.87226785 -285 209 C-285.33628418 208.35869141 -285.67256836 207.71738281 -286.01904297 207.05664062 C-306.37498156 167.70246344 -308.04029457 120.51306515 -295.24609375 78.52587891 C-281.70185407 36.48939131 -251.81538755 3.40693588 -213 -17 C-147.01608224 -50.16644257 -59.03369557 -46.04930217 0 0 Z M-174.56640625 77.84765625 C-190.59409748 97.99752864 -194.58842556 122.27488183 -191.71875 147.46923828 C-189.52548788 161.44816888 -182.47672874 175.5334796 -173 186 C-172.12988281 187.00740234 -172.12988281 187.00740234 -171.2421875 188.03515625 C-159.15850419 201.15530612 -141.60587426 207.99817443 -124.07421875 209.2890625 C-102.62754233 210.00430104 -83.48249865 202.85881819 -67.75 188.3125 C-51.97526938 171.50390754 -46.09912517 149.52980138 -46.71875 126.9296875 C-47.75334263 104.71181085 -56.26464286 85.58424437 -72.40625 70.21484375 C-87.34568609 57.45782528 -106.31893271 51.58232268 -125.79736328 52.79296875 C-145.14037695 54.61106624 -161.64299801 63.5079841 -174.56640625 77.84765625 Z " fill="#00AEEF" transform="translate(1024,1216)"/>
<path d="M0 0 C0.71771576 -0.00067474 1.43543152 -0.00134949 2.17489624 -0.00204468 C42.66331375 0.05786848 82.71355746 9.09756936 112.5 37.9375 C138.63614142 64.32105389 144.75328301 100.83338681 144.65238953 136.44291687 C144.64190072 138.64285447 144.62953322 140.84277459 144.61668181 143.04269958 C144.59766219 146.85961099 144.59614501 150.676533 144.59260559 154.4934845 C144.58335814 161.68944338 144.55884563 168.88526214 144.52855712 176.08115989 C144.49478278 184.28698674 144.47846979 192.49282102 144.46347082 200.69870031 C144.43228763 217.54921498 144.3796727 234.39958948 144.3125 251.25 C145.2391748 251.24544548 145.2391748 251.24544548 146.18457031 251.24079895 C147.40031738 251.23725655 147.40031738 251.23725655 148.640625 251.23364258 C149.4440332 251.23060623 150.24744141 251.22756989 151.07519531 251.22444153 C160.38853644 251.33083507 169.02659794 254.58544855 175.625 261.25 C182.45551605 270.28759087 182.67787776 280.48837765 182.75 291.375 C182.76015137 292.47110596 182.77030273 293.56721191 182.78076172 294.6965332 C182.67067601 305.01280428 181.19423277 314.25503855 174.4140625 322.3046875 C167.30269919 328.88732491 159.18188553 330.39570984 149.84716797 330.42700195 C148.99457901 330.43357315 148.14199005 330.44014435 147.26356506 330.44691467 C144.44393824 330.46661208 141.62436468 330.47830401 138.8046875 330.48828125 C137.83893925 330.49235678 136.87319099 330.4964323 135.87817764 330.50063133 C130.76383937 330.52147958 125.6495278 330.53578519 120.53515625 330.54516602 C115.26959342 330.55621173 110.00445534 330.5905941 104.73904228 330.63033772 C100.67592621 330.656568 96.61291023 330.66486367 92.54971695 330.66844749 C90.60977443 330.67329896 88.66983594 330.68487156 86.72997665 330.70348549 C73.72559099 330.8204866 62.99283013 330.61335491 53.00390625 321.25 C48.3650757 315.76482392 46.33081697 308.78013024 45.99609375 301.703125 C45.93325195 300.43662109 45.93325195 300.43662109 45.86914062 299.14453125 C45.82982422 298.27183594 45.79050781 297.39914062 45.75 296.5 C45.70681641 295.61183594 45.66363281 294.72367188 45.61914062 293.80859375 C45.51336385 291.62254037 45.41127454 289.43637911 45.3125 287.25 C44.93480469 287.90484375 44.55710937 288.5596875 44.16796875 289.234375 C39.37688145 297.17837923 33.79058427 303.67963533 27.3125 310.25 C26.59320312 310.9821875 25.87390625 311.714375 25.1328125 312.46875 C3.02349721 333.49345737 -27.82264984 339.00869053 -57.20703125 338.33886719 C-80.36471906 337.50920199 -103.71200882 330.13993443 -121.6875 315.25 C-122.53699219 314.55132813 -123.38648437 313.85265625 -124.26171875 313.1328125 C-142.43722432 297.49018749 -152.61542794 276.90457696 -155.6875 253.25 C-157.38485137 227.75600722 -155.07798009 202.37788068 -137.6015625 182.37109375 C-136.96992188 181.67113281 -136.33828125 180.97117187 -135.6875 180.25 C-135.15898437 179.58097656 -134.63046875 178.91195313 -134.0859375 178.22265625 C-109.87149517 148.10370704 -63.92479996 137.0607238 -27.6875 132.25 C-27.03983673 132.16286743 -26.39217346 132.07573486 -25.72488403 131.98596191 C-12.29201991 130.22951128 0.96838906 130.00650758 14.5 130.125 C16.53319864 130.13506614 18.56640219 130.14418547 20.59960938 130.15234375 C25.50403129 130.17403197 30.40820864 130.20835405 35.3125 130.25 C35.18757533 127.70772641 35.0534327 125.16648934 34.9140625 122.625 C34.87998291 121.91214844 34.84590332 121.19929688 34.81079102 120.46484375 C34.29959122 111.45946546 31.82858676 103.66725108 25.49609375 97.03515625 C13.06511066 86.87243841 -3.46048118 85.27732451 -18.91064453 86.64453125 C-34.83614943 88.40121232 -49.87024123 93.3565072 -64.6875 99.25 C-67.10193262 100.19339172 -69.51953253 101.1281629 -71.9375 102.0625 C-72.95328125 102.46082031 -73.9690625 102.85914063 -75.015625 103.26953125 C-82.54114481 106.03108896 -90.95992605 106.7472643 -98.5 103.625 C-99.91914981 102.87593349 -101.31737786 102.08537544 -102.6875 101.25 C-103.27917969 100.90710937 -103.87085937 100.56421875 -104.48046875 100.2109375 C-111.39939821 95.30277244 -114.93182286 86.6020022 -118.6875 79.25 C-119.03409668 78.57598145 -119.38069336 77.90196289 -119.73779297 77.20751953 C-125.14098025 66.57122107 -129.54707566 56.34675757 -126.6875 44.25 C-123.2601145 34.39626668 -117.5129445 29.03024506 -108.32714844 24.375 C-74.54412067 8.11086251 -37.39499128 0.03194441 0 0 Z M-32.6875 205.25 C-33.595 205.848125 -34.5025 206.44625 -35.4375 207.0625 C-40.86151583 212.33584872 -45.33045698 219.10922838 -45.98828125 226.73828125 C-46.0208913 237.38002658 -45.1524659 244.45903898 -37.72265625 252.48828125 C-31.44419723 257.92318531 -23.55100801 259.57170936 -15.46484375 259.46484375 C-0.75494398 258.32694714 12.15697253 250.29434299 21.796875 239.45703125 C31.15080626 227.57628299 36.75836574 214.90473553 36.4375 199.75 C36.42847656 198.92757813 36.41945313 198.10515625 36.41015625 197.2578125 C36.38686865 195.25507917 36.35100959 193.25249846 36.3125 191.25 C12.32513585 190.67712358 -12.213254 191.06939382 -32.6875 205.25 Z " fill="#00AEEF" transform="translate(2809.6875,1177.75)"/>
<path d="M0 0 C12.47467824 11.19704406 21.34857136 24.22808787 29 39 C29.32097656 39.61069336 29.64195312 40.22138672 29.97265625 40.85058594 C42.97631667 65.89215376 51.47707147 101.23964263 45.87890625 129.23046875 C42.81589424 138.88235994 36.89385988 145.27098597 28.04296875 150.05859375 C22.25484934 152.69414268 16.93795153 153.124692 10.64115906 153.12025452 C9.54444239 153.12153615 9.54444239 153.12153615 8.42556983 153.12284368 C5.98119788 153.12448782 3.5368949 153.11899458 1.0925293 153.11352539 C-0.66188048 153.11324326 -2.41629037 153.11340175 -4.17070007 153.1139679 C-8.93059311 153.11425487 -13.69046096 153.10837421 -18.45034814 153.10139394 C-23.42581571 153.09514384 -28.40128386 153.09455529 -33.37675476 153.09336853 C-42.79724112 153.09026011 -52.21771588 153.08205329 -61.63819712 153.07201904 C-72.36362134 153.06084274 -83.08904611 153.05534363 -93.8144747 153.05032361 C-115.87632294 153.03987029 -137.93816074 153.02228028 -160 153 C-159.07552591 155.86683207 -158.14348802 158.73083211 -157.20703125 161.59375 C-156.9486145 162.39780273 -156.69019775 163.20185547 -156.4239502 164.03027344 C-150.95445553 180.67177231 -140.41107066 193.20502068 -125.0390625 201.62109375 C-99.56198153 214.23382149 -71.5272409 212.37898593 -45 204 C-38.2648666 201.65859581 -31.66354159 198.95087919 -25.08691406 196.19970703 C-15.55626285 192.24853209 -6.33220992 189.81337652 3.85546875 192.8515625 C14.82027982 197.72849813 19.90020371 207.78675254 25.25 218 C26.16652344 219.70542969 26.16652344 219.70542969 27.1015625 221.4453125 C33.36334854 233.23059539 37.83906422 244.34258968 34.23828125 257.859375 C27.88805641 272.81879795 11.16330395 279.19275574 -3 285 C-57.99241697 306.04669233 -121.37649859 310.17276248 -176.12011719 286.06640625 C-192.37662467 278.6357409 -206.92248389 269.17843688 -220 257 C-220.53109375 256.50741699 -221.0621875 256.01483398 -221.609375 255.50732422 C-251.12022329 227.83177311 -270.47562239 186.70285543 -272.16113281 146.12036133 C-272.18063239 144.77431976 -272.19441664 143.42818588 -272.203125 142.08203125 C-272.21013931 141.35094147 -272.21715363 140.61985168 -272.22438049 139.86660767 C-272.24180393 137.51517512 -272.2482345 135.16399477 -272.25 132.8125 C-272.25067474 132.00765167 -272.25134949 131.20280334 -272.25204468 130.37356567 C-272.19229312 85.48004234 -257.42235391 43.55755455 -226 11 C-225.21109375 10.14792969 -224.4221875 9.29585937 -223.609375 8.41796875 C-167.96915572 -50.07795715 -59.89612725 -51.80762241 0 0 Z M-144.734375 63.0390625 C-148.56159205 68.10250453 -151.31687051 73.4730233 -153.875 79.25 C-154.17341797 79.92337402 -154.47183594 80.59674805 -154.77929688 81.29052734 C-156.49099589 85.32538895 -157.26363461 88.58180768 -158 93 C-127.64 93 -97.28 93 -66 93 C-68.58239416 74.92324085 -71.92564586 64.45878338 -85.59765625 52.7265625 C-104.04164295 39.47088426 -130.76534839 46.6160177 -144.734375 63.0390625 Z " fill="#00AEEF" transform="translate(2194,1214)"/>
<path d="M0 0 C1.75299911 -0.01925285 1.75299911 -0.01925285 3.54141235 -0.03889465 C4.80182343 -0.04628159 6.0622345 -0.05366852 7.36083984 -0.0612793 C8.66322601 -0.06935104 9.96561218 -0.07742279 11.3074646 -0.08573914 C14.06630318 -0.10074346 16.82511625 -0.11059063 19.58398438 -0.11816406 C23.09415384 -0.12918834 26.60368237 -0.16355013 30.11362648 -0.20333576 C33.48766992 -0.23599886 36.86165067 -0.24029791 40.23583984 -0.2487793 C41.48410553 -0.26628738 42.73237122 -0.28379547 44.01846313 -0.30183411 C53.92471374 -0.27743034 62.32218876 1.55620979 69.73193359 8.4777832 C72.25192328 11.40097123 73.86051891 14.57353727 75.19677734 18.17700195 C75.53974854 19.08401855 75.88271973 19.99103516 76.23608398 20.92553711 C77.9215902 26.93030132 77.4414076 33.24193071 77.39208984 39.4230957 C77.38835429 40.80314427 77.38550988 42.1831955 77.3835144 43.56324768 C77.37592058 47.17507397 77.35630929 50.78673645 77.33410645 54.39849854 C77.3135558 58.09222193 77.30449308 61.7859721 77.29443359 65.47973633 C77.27305882 72.71223245 77.23897504 79.94459414 77.19677734 87.17700195 C79.12541626 87.15343628 79.12541626 87.15343628 81.09301758 87.12939453 C85.8956874 87.07480293 90.69833017 87.04054601 95.5012207 87.01220703 C97.57385888 86.99718674 99.64646563 86.97676448 101.71899414 86.95068359 C104.7103657 86.91400171 107.70131444 86.8972076 110.69287109 86.8840332 C112.06686317 86.86080742 112.06686317 86.86080742 113.46861267 86.83711243 C123.67785837 86.83448432 130.63030892 89.57266259 138.02490234 96.64575195 C146.9045567 106.99470163 145.76088272 122.33252928 145.19677734 135.17700195 C144.30435316 144.81292381 141.70425786 152.74201866 134.19677734 159.17700195 C125.34343509 165.7699164 115.9743499 166.34624432 105.32177734 166.2746582 C104.51184326 166.27324326 103.70190918 166.27182831 102.86743164 166.27037048 C100.3105074 166.26482579 97.75367458 166.25228403 95.19677734 166.23950195 C93.45068487 166.23447979 91.70459101 166.22991814 89.95849609 166.22583008 C85.70455525 166.21487455 81.45068173 166.19764889 77.19677734 166.17700195 C77.23407186 181.46829129 77.29411913 196.75937683 77.38068008 212.05046368 C77.42035815 219.15164721 77.45280727 226.25272173 77.46777344 233.35400391 C77.48084865 239.54910483 77.50796112 245.74396474 77.55139041 251.93892986 C77.57387487 255.21410872 77.58760073 258.48893074 77.58866119 261.7641964 C77.59104428 265.43560719 77.61823391 269.10609368 77.65087891 272.77734375 C77.64333336 274.3763427 77.64333336 274.3763427 77.63563538 276.00764465 C77.80409952 288.34814601 81.19578853 300.30127934 90.16162109 309.10668945 C98.72243158 316.32068165 108.63794848 319.13880587 119.32177734 321.67700195 C130.64440459 324.3872721 139.27951755 327.26630809 146.19677734 337.17700195 C149.34224237 343.18198063 149.3620448 349.8509913 149.39990234 356.50512695 C149.40560242 357.29417419 149.41130249 358.08322144 149.41717529 358.8961792 C149.42658331 360.56024859 149.43314249 362.22433625 149.43701172 363.88842773 C149.44669475 366.40553116 149.47774821 368.92180918 149.50927734 371.4387207 C149.58668545 383.21439299 149.15490456 393.58978379 140.77099609 402.73168945 C128.19268662 414.79966179 108.72295026 412.70144317 92.62480164 412.41400146 C57.94766833 411.51154548 22.96361696 398.64678802 -1.80322266 374.17700195 C-2.52896484 373.52344727 -3.25470703 372.86989258 -4.00244141 372.1965332 C-15.3415136 361.74854723 -23.1546602 346.32240312 -27.55322266 331.73950195 C-27.75206055 331.08425537 -27.95089844 330.42900879 -28.15576172 329.75390625 C-31.35483968 318.45699072 -32.09493828 307.17127071 -32.03027344 295.48242188 C-32.02970765 294.06180326 -32.03002914 292.64118407 -32.03115845 291.2205658 C-32.03172643 287.40735487 -32.02006319 283.59427275 -32.00601053 279.78109145 C-31.99340953 275.77995588 -31.99232536 271.77881654 -31.98995972 267.77766418 C-31.98377224 260.22030158 -31.96739887 252.66299764 -31.94726074 245.10566074 C-31.9248161 236.49368134 -31.91388688 227.88169897 -31.90386987 219.26969755 C-31.88302985 201.57209924 -31.84790769 183.87455533 -31.80322266 166.17700195 C-32.7657193 166.18216827 -33.72821594 166.18733459 -34.71987915 166.19265747 C-36.6127919 166.19868484 -36.6127919 166.19868484 -38.54394531 166.20483398 C-40.42081528 166.21258347 -40.42081528 166.21258347 -42.33560181 166.2204895 C-52.00194548 166.09926356 -60.76926234 164.12169881 -67.80322266 157.17700195 C-68.54572266 156.45512695 -69.28822266 155.73325195 -70.05322266 154.98950195 C-75.68118373 145.94456451 -76.40836536 137.067836 -76.24072266 126.61450195 C-76.2478125 125.36475586 -76.25490234 124.11500977 -76.26220703 122.82739258 C-76.19422961 112.87654444 -75.10496578 103.93720712 -68.68212891 96.0012207 C-62.47260194 89.97242841 -55.71095874 87.0338757 -47.16259766 87.0793457 C-45.55771484 87.08417969 -45.55771484 87.08417969 -43.92041016 87.08911133 C-42.80923828 87.09749023 -41.69806641 87.10586914 -40.55322266 87.11450195 C-38.86326172 87.12126953 -38.86326172 87.12126953 -37.13916016 87.12817383 C-34.36046048 87.13994798 -31.58186856 87.15639356 -28.80322266 87.17700195 C-28.8121051 86.41215988 -28.82098755 85.64731781 -28.83013916 84.85929871 C-28.91069938 77.60770174 -28.97139541 70.35632552 -29.01047134 63.10439587 C-29.03123697 59.37718104 -29.05934877 55.65033976 -29.10498047 51.92333984 C-29.14883736 48.31822924 -29.17244238 44.7134751 -29.18273163 41.10811806 C-29.19005238 39.74114696 -29.20434555 38.37419263 -29.22614288 37.00737572 C-29.4034479 25.41525018 -27.98757732 15.49211502 -19.73681641 6.83325195 C-13.89242551 1.82714743 -7.56847221 0.07255751 0 0 Z " fill="#00AEEF" transform="translate(3517.80322265625,1098.822998046875)"/>
<path d="M0 0 C8.02127872 8.27194368 8.45604606 18.36175403 8.3984375 29.40234375 C8.40130768 30.6296521 8.40417786 31.85696045 8.40713501 33.12145996 C8.40916656 35.7032111 8.40370075 38.28497796 8.39111328 40.86669922 C8.37504779 44.79690279 8.39099427 48.72607805 8.41015625 52.65625 C8.40817366 55.1757835 8.40432966 57.69531636 8.3984375 60.21484375 C8.40451019 61.37866577 8.41058289 62.54248779 8.4168396 63.74157715 C8.3347957 73.35582906 7.0160732 81.92051997 0.80078125 89.5546875 C-7.23572765 97.38200311 -17.5433876 98.5219515 -28.1875 99.24609375 C-48.32829385 100.85779925 -65.63371913 106.46451392 -79.43359375 122.05859375 C-99.59352859 147.62397486 -101.43589858 177.16798505 -101.66955566 208.28540039 C-101.69980379 211.90653354 -101.74617635 215.52746085 -101.79101562 219.1484375 C-101.87606962 226.20170341 -101.94383878 233.25503347 -102 240.30859375 C-101.0517334 240.29989258 -100.1034668 240.29119141 -99.12646484 240.28222656 C-97.25015381 240.2720752 -97.25015381 240.2720752 -95.3359375 240.26171875 C-94.0989209 240.25301758 -92.8619043 240.24431641 -91.58740234 240.23535156 C-81.93959394 240.43232601 -73.53683504 242.90422104 -66.25 249.37109375 C-58.85345299 257.55220829 -58.35081869 267.70511569 -58.47851562 278.26098633 C-58.5000135 280.37241921 -58.47858928 282.48046505 -58.453125 284.59179688 C-58.42923936 295.74148124 -60.31254521 304.36307736 -68.06640625 312.6171875 C-73.97255983 317.78358043 -80.41661043 319.42559401 -88.10830688 319.45576477 C-89.98806213 319.46649773 -89.98806213 319.46649773 -91.90579224 319.47744751 C-93.29217504 319.4802876 -94.67855812 319.48299935 -96.06494141 319.4855957 C-97.52712159 319.49186331 -98.98930018 319.49851037 -100.45147705 319.50550842 C-105.25149432 319.52651987 -110.05151179 319.53690963 -114.8515625 319.546875 C-116.50685009 319.55092396 -118.16213752 319.55504093 -119.81742477 319.55922508 C-127.59687576 319.57827214 -135.3763173 319.59250291 -143.15578711 319.60083705 C-152.1209789 319.61060117 -161.08592325 319.63690106 -170.05102789 319.67733794 C-176.98963837 319.70755474 -183.92817815 319.72231128 -190.86685312 319.72561806 C-195.00653788 319.72796264 -199.14595817 319.73684518 -203.28557205 319.76207924 C-207.18446963 319.78546204 -211.08293051 319.78955262 -214.98188019 319.77931786 C-216.40642378 319.77882482 -217.83098961 319.78507636 -219.25546646 319.7988739 C-230.75194371 319.90392447 -239.75440384 318.27794166 -248.30859375 310.2421875 C-255.46705887 302.05872275 -255.24040958 292.79147019 -255.29516602 282.45703125 C-255.30664083 280.95205245 -255.32702103 279.4471129 -255.35668945 277.94238281 C-255.55922438 267.6549661 -254.80875514 259.42980736 -249.25 250.49609375 C-238.5197497 240.06390596 -226.43901872 240.30859375 -212 240.30859375 C-212 186.18859375 -212 132.06859375 -212 76.30859375 C-217.28 76.30859375 -222.56 76.30859375 -228 76.30859375 C-236.07184199 75.27374221 -243.43194535 72.42105262 -248.89453125 66.125 C-254.88360274 57.48383359 -255.34583659 49.49650595 -255.31567383 39.2512207 C-255.31252335 37.0126836 -255.33597319 34.77548263 -255.36132812 32.53710938 C-255.41472147 21.01755566 -254.34090613 12.85756099 -246.19140625 4.2578125 C-240.90477325 -0.44455803 -234.80839159 -2.79716221 -227.75192261 -2.83857727 C-226.91104599 -2.84573257 -226.07016937 -2.85288788 -225.20381165 -2.86026001 C-224.28947861 -2.86294891 -223.37514557 -2.86563782 -222.43310547 -2.8684082 C-221.46347366 -2.8749794 -220.49384186 -2.8815506 -219.49482727 -2.88832092 C-216.28561319 -2.90803161 -213.07644591 -2.91971282 -209.8671875 -2.9296875 C-208.7690485 -2.93376303 -207.6709095 -2.93783855 -206.53949356 -2.94203758 C-200.72489867 -2.96289077 -194.91032731 -2.97719466 -189.09570312 -2.98657227 C-183.10375381 -2.99762322 -177.11217722 -3.03201049 -171.12035942 -3.07174397 C-166.5013665 -3.0979503 -161.88246175 -3.10626779 -157.26340103 -3.10985374 C-155.05551772 -3.11471081 -152.84763811 -3.12629955 -150.63982773 -3.14489174 C-147.54067635 -3.16936373 -144.44248109 -3.16830299 -141.34326172 -3.16137695 C-139.98998024 -3.18059204 -139.98998024 -3.18059204 -138.60935974 -3.20019531 C-129.8537321 -3.12931889 -121.93335129 -0.43297204 -115.46484375 5.609375 C-108.7779577 13.36616282 -107.70560808 23.01267286 -107.5859375 32.8359375 C-107.55688828 34.31931358 -107.55688828 34.31931358 -107.5272522 35.83265686 C-107.46779378 38.97038326 -107.42120644 42.10814703 -107.375 45.24609375 C-107.33678916 47.38217686 -107.29773564 49.51824508 -107.2578125 51.65429688 C-107.16212028 56.87226294 -107.07697545 62.0903198 -107 67.30859375 C-106.72537933 66.69471298 -106.45075867 66.08083221 -106.16781616 65.448349 C-92.975817 36.04155132 -73.43450426 9.16094186 -42.4375 -3.06640625 C-28.99650335 -7.4942602 -11.60044913 -9.81053608 0 0 Z " fill="#00AEEF" transform="translate(3957,1188.69140625)"/>
<path d="M0 0 C2.19230318 -0.00270046 4.38460518 -0.00658747 6.5769043 -0.01159668 C11.15262348 -0.01746561 15.72802852 -0.00901306 20.30371094 0.00976562 C26.13713088 0.03255322 31.9698144 0.01941612 37.8032074 -0.00452423 C42.32455892 -0.0190528 46.84573895 -0.01434396 51.36709595 -0.00401306 C53.51665334 -0.00136525 55.66622685 -0.00454612 57.81576538 -0.01393127 C86.8130662 -0.11278603 86.8130662 -0.11278603 95.8828125 8.75390625 C100.85845504 14.93947279 103.43236841 20.96390605 103.44557858 28.87980938 C103.44981962 29.9710759 103.45406067 31.06234243 103.45843023 32.18667763 C103.45785103 33.98444318 103.45785103 33.98444318 103.45726013 35.81852722 C103.46078698 37.09218574 103.46431382 38.36584427 103.46794754 39.6780985 C103.47764524 43.21633642 103.48119602 46.75455819 103.48379052 50.29280746 C103.48768501 54.10837505 103.49732283 57.9239284 103.50634766 61.73948669 C103.52129126 68.35501503 103.53283423 74.97054223 103.54229546 81.58608055 C103.55617852 91.16958206 103.57736969 100.75305728 103.60072399 110.3365399 C103.63865692 125.90916815 103.67361227 141.4818012 103.70532227 157.05444336 C103.70722276 157.98677511 103.70912325 158.91910687 103.71108133 159.8796911 C103.73786585 173.08643319 103.7617509 186.29317894 103.78446633 199.49992857 C103.78606363 200.42831884 103.78766094 201.35670911 103.78930664 202.31323242 C103.79090011 203.24048629 103.79249357 204.16774015 103.79413532 205.12309261 C103.8209663 220.62144063 103.85539561 236.1197609 103.89596039 251.61807901 C103.92065161 261.16740448 103.93902495 270.7167002 103.949116 280.26605246 C103.9565458 286.82308842 103.97113008 293.38008441 103.99118023 299.93709382 C104.00249458 303.71231464 104.01071073 307.48747127 104.01017189 311.26271057 C102.4125295 339.88119916 102.4125295 339.88119916 112.625 365.28125 C115.89772819 367.79423772 119.68740828 368.52144673 123.625 369.46875 C131.82667784 371.44443151 138.29599088 374.20001507 143.25 381.28125 C147.75380593 389.75084305 147.62775225 399.15667662 147.5625 408.53125 C147.57023437 409.64242188 147.57796875 410.75359375 147.5859375 411.8984375 C147.55918712 423.26734915 146.28096989 434.26935191 138.81640625 443.3515625 C129.68543609 452.06649325 117.6571244 452.16584897 105.8125 451.96875 C105.05993927 451.96193207 104.30737854 451.95511414 103.53201294 451.9480896 C91.92974581 451.83912714 80.62437794 451.26634471 69.3125 448.53125 C68.59932617 448.36496094 67.88615234 448.19867187 67.15136719 448.02734375 C44.08727504 442.4746867 25.18193939 430.54738538 12.125 410.34375 C-4.84317897 381.49111235 -5.85101335 348.4435497 -5.80102539 315.89111328 C-5.80074295 313.3078003 -5.80090236 310.72448725 -5.8014679 308.14117432 C-5.80198931 302.60401039 -5.79888274 297.06685835 -5.79323006 291.52969742 C-5.78506285 283.52413918 -5.78249451 275.51858662 -5.78124207 267.51302467 C-5.77905971 254.5208869 -5.77242185 241.52875544 -5.76293945 228.53662109 C-5.75374416 215.92464225 -5.74667371 203.31266512 -5.74243164 190.70068359 C-5.74216892 189.92176888 -5.74190619 189.14285417 -5.74163551 188.34033598 C-5.74033036 184.4322982 -5.73906668 180.52426042 -5.73782361 176.61622262 C-5.72747642 144.25456049 -5.70988043 111.89290613 -5.6875 79.53125 C-6.92161621 79.54430176 -8.15573242 79.55735352 -9.42724609 79.57080078 C-11.06347464 79.58135709 -12.69970527 79.59159416 -14.3359375 79.6015625 C-15.55301392 79.6157019 -15.55301392 79.6157019 -16.79467773 79.63012695 C-26.89598947 79.67625166 -34.13069478 77.38672759 -41.6875 70.53125 C-48.82811588 63.39063412 -49.77888152 52.77746245 -49.87817383 43.12475586 C-49.86056383 30.46858612 -49.60479697 19.00256985 -41.26171875 8.78515625 C-30.66751951 -1.75646631 -13.68145934 -0.05973494 0 0 Z " fill="#00AEEF" transform="translate(1750.6875,1059.46875)"/>
<path d="M0 0 C0.88150223 -0.0071553 1.76300446 -0.01431061 2.67121887 -0.02168274 C4.1104924 -0.02571609 4.1104924 -0.02571609 5.57884216 -0.02983093 C7.10403221 -0.03968773 7.10403221 -0.03968773 8.66003418 -0.04974365 C12.02676978 -0.06946071 15.39346074 -0.0811375 18.76023865 -0.09111023 C20.48831914 -0.09722352 20.48831914 -0.09722352 22.25131035 -0.10346031 C28.35234777 -0.12431705 34.45336275 -0.13861894 40.5544281 -0.147995 C46.83997395 -0.15904165 53.12516406 -0.19342299 59.41058445 -0.23316669 C64.25694411 -0.2593824 69.10321977 -0.26769139 73.94964409 -0.27127647 C76.26555209 -0.27613178 78.5814566 -0.2877154 80.897295 -0.30631447 C84.14949872 -0.33080437 87.40079217 -0.32972228 90.65306091 -0.32279968 C91.59840698 -0.33560974 92.54375305 -0.3484198 93.51774597 -0.36161804 C101.69138998 -0.29864233 111.03946656 1.62903459 117.2250824 7.40107727 C124.03370711 16.2483309 125.72735039 25.258278 125.68908691 36.06889343 C125.69036855 37.39965422 125.69036855 37.39965422 125.69167608 38.75729907 C125.69332039 41.72370285 125.68782667 44.69004981 125.68235779 47.65644836 C125.68207566 49.78538512 125.68223414 51.91432197 125.68280029 54.04325867 C125.68308728 59.81958717 125.67720638 65.59589493 125.67022634 71.37221861 C125.66397649 77.41004551 125.6633877 83.44787288 125.66220093 89.48570251 C125.65909243 100.91778153 125.65088551 112.34985099 125.64085144 123.7819258 C125.62967537 136.7975355 125.62417608 149.81314565 125.619156 162.82875896 C125.60870252 189.60156828 125.59111237 216.37436911 125.5688324 243.14717102 C126.70547585 243.1432283 126.70547585 243.1432283 127.86508179 243.13920593 C128.8577858 243.13716156 129.85048981 243.13511719 130.87327576 243.13301086 C132.3502317 243.12906815 132.3502317 243.12906815 133.85702515 243.12504578 C142.84114382 243.1983459 150.56248937 245.3678583 157.5688324 251.14717102 C165.23676285 260.02164953 165.91780848 268.89287796 165.88450623 280.20454407 C165.88135575 282.44308117 165.90480559 284.68028214 165.93016052 286.9186554 C165.98355387 298.43820911 164.90973852 306.59820378 156.76023865 315.19795227 C150.85440129 320.45109459 144.51160208 322.2622727 136.73300171 322.29434204 C135.54017578 322.30149734 134.34734985 322.30865265 133.11837769 322.31602478 C131.81288467 322.31871368 130.50739166 322.32140259 129.16233826 322.32417297 C127.77074515 322.33044104 126.37915371 322.33708814 124.98756409 322.34408569 C120.41961322 322.36509459 115.85166216 322.37548781 111.28367615 322.38545227 C109.70765732 322.38950156 108.13163867 322.39361853 106.55562019 322.39780235 C99.14725281 322.41685017 91.73889533 322.43107984 84.33050817 322.43941432 C75.7977345 322.44917369 67.26522114 322.47546072 58.73253912 322.51591522 C52.12596963 322.54615515 45.5194744 322.56089079 38.91283709 322.56419533 C34.97264675 322.56653761 31.03273461 322.57538948 27.09261894 322.60065651 C23.38002804 322.62407958 19.66789567 322.62811405 15.95524979 322.61789513 C13.95945534 322.61717019 11.96368344 322.63616257 9.96798706 322.65596008 C0.07010791 322.59927934 -9.47927336 321.02690524 -16.9311676 313.98701477 C-24.58055426 304.60456395 -24.65708372 294.5897782 -24.7436676 283.02217102 C-24.77267151 281.75373352 -24.80167542 280.48529602 -24.83155823 279.17842102 C-24.90515182 268.19599191 -23.16088785 258.91791561 -15.34132385 250.79951477 C-6.19818334 242.89041776 4.92736281 243.14717102 16.5688324 243.14717102 C16.5688324 189.02717102 16.5688324 134.90717102 16.5688324 79.14717102 C11.9488324 79.14717102 7.3288324 79.14717102 2.5688324 79.14717102 C-7.5230576 77.85884464 -15.29429154 75.78472772 -21.78565979 67.54902649 C-27.75750743 58.83225541 -28.05420639 49.4004034 -27.9311676 39.14717102 C-27.94663635 37.85810852 -27.9621051 36.56904602 -27.9780426 35.24092102 C-27.93344142 24.26902915 -26.11948563 14.94171231 -18.36476135 6.80342102 C-13.05459073 2.25491124 -6.95305373 0.0389073 0 0 Z " fill="#00AEEF" transform="translate(1536.431167602539,1185.8528289794922)"/>
<path d="M0 0 C1.20935715 -0.00428513 2.41871429 -0.00857025 3.66471863 -0.01298523 C6.21730932 -0.01871482 8.76991634 -0.01923893 11.32250977 -0.01489258 C15.20682974 -0.01173795 19.09038371 -0.03519196 22.97460938 -0.06054688 C25.46223863 -0.06282068 27.94986992 -0.06352299 30.4375 -0.0625 C32.16453911 -0.07631462 32.16453911 -0.07631462 33.9264679 -0.09040833 C44.45975403 -0.03064438 53.70721327 1.65871847 61.41796875 9.30078125 C69.28095057 19.3245825 69.59819804 30.32143956 69.60546875 42.55078125 C69.61771484 43.61941406 69.62996094 44.68804688 69.64257812 45.7890625 C69.6643486 57.73379379 68.52052069 68.83091399 60.35546875 78.05078125 C52.20973967 85.45310987 42.08068676 85.90154276 31.5703125 85.83203125 C30.27783096 85.83585815 28.98534943 85.83968506 27.65370178 85.84362793 C24.93649857 85.84947819 22.21982633 85.84110596 19.50268555 85.82226562 C16.04750615 85.79945446 12.59356866 85.81263945 9.13843441 85.83655548 C5.80313165 85.85461139 2.46815034 85.84191416 -0.8671875 85.83203125 C-2.0934938 85.84012817 -3.31980011 85.8482251 -4.58326721 85.85656738 C-14.93897415 85.7444875 -23.23331146 83.47854586 -30.890625 76.30078125 C-36.56197003 69.59471046 -37.73715695 61.69298359 -37.8203125 53.203125 C-37.82838425 52.41361954 -37.83645599 51.62411407 -37.84477234 50.8106842 C-37.85858458 49.13886693 -37.8693195 47.46702179 -37.87719727 45.79516602 C-37.88866887 44.10302334 -37.90904363 42.41091545 -37.9387207 40.71899414 C-38.13218749 29.6762556 -38.17710352 19.2813044 -31.39453125 9.92578125 C-22.12780743 1.27683902 -12.19178597 -0.00960029 0 0 Z " fill="#00AEEF" transform="translate(1591.58203125,1059.69921875)"/>
</svg>
